{
.appVersion = "1141";
DisplayStrings = (
<<<<<<< HEAD
"/thoThahan-thai"
=======
"/thanthakhat-thai/choChang-thai/woWaen-thai/choChang-thai/woWaen-thai  /choChang-thai/ngoNgu-thai/maiEk-thai/oAng-thai/maiEk-thai/oAng-thai/ngoNgu-thai \012\012/thoThahan-thai/saraIi-thai/maiEk-thai/saraAiMaimalai-thai/thoThahan-thai/thoThahan-thai/saraIi-thai/maiTho-thai/saraAiMaimalai-thai/thoThahan-thai/thoThahan-thai/saraIi-thai/maiTri-thai/saraAiMaimalai-thai/thoThahan-thai/thoThahan-thai/saraIi-thai/maiChattawa-thai/saraAiMaimalai-thai/thoThahan-thai \012\012/thoThahan-thai/saraIi-thai/maiEk-thai/saraO-thai/thoThahan-thai/thoThahan-thai/saraIi-thai/maiTho-thai/saraO-thai/thoThahan-thai/thoThahan-thai/saraIi-thai/maiTri-thai/saraO-thai/thoThahan-thai/thoThahan-thai/saraIi-thai/maiChattawa-thai/saraO-thai/thoThahan-thai \012\012/thoThahan-thai/saraIi-thai/maiEk-thai/saraAiMaimuan-thai/thoThahan-thai/thoThahan-thai/saraIi-thai/maiTho-thai/saraAiMaimuan-thai/thoThahan-thai/thoThahan-thai/saraIi-thai/maiTri-thai/saraAiMaimuan-thai/thoThahan-thai/thoThahan-thai/saraIi-thai/maiChattawa-thai/saraAiMaimuan-thai/thoThahan-thai",

glyphs = (
{
glyphname = A;
lastChange = "2018-05-23 06:41:33 +0000";
layers = (
{
anchors = (
{
name = bottom;
position = "{236, 0}";
},
{
name = ogonek;
position = "{468, 10}";
},
{
name = top;
position = "{411, 700}";
}
);
background = {
paths = (
{
closed = 1;
nodes = (
"483 -10 OFFCURVE",
"540 27 OFFCURVE",
"575 83 CURVE SMOOTH",
"580 91 OFFCURVE",
"584 102 OFFCURVE",
"584 111 CURVE SMOOTH",
"584 117 OFFCURVE",
"581 121 OFFCURVE",
"575 121 CURVE SMOOTH",
"560 121 OFFCURVE",
"536 89 OFFCURVE",
"506 89 CURVE SMOOTH",
"489 89 OFFCURVE",
"481 98 OFFCURVE",
"478 122 CURVE SMOOTH",
"473 158 OFFCURVE",
"465 221 OFFCURVE",
"465 323 CURVE SMOOTH",
"465 502 OFFCURVE",
"485 633 OFFCURVE",
"523 699 CURVE",
"523 700 LINE",
"505 694 OFFCURVE",
"483 689 OFFCURVE",
"450 689 CURVE SMOOTH",
"395 689 OFFCURVE",
"335 710 OFFCURVE",
"278 710 CURVE SMOOTH",
"172 710 OFFCURVE",
"85 649 OFFCURVE",
"68 564 CURVE SMOOTH",
"67 559 OFFCURVE",
"66 552 OFFCURVE",
"66 547 CURVE SMOOTH",
"66 539 OFFCURVE",
"70 535 OFFCURVE",
"76 535 CURVE SMOOTH",
"85 535 OFFCURVE",
"88 542 OFFCURVE",
"96 555 CURVE SMOOTH",
"129 609 OFFCURVE",
"180 636 OFFCURVE",
"257 636 CURVE SMOOTH",
"278 636 OFFCURVE",
"321 626 OFFCURVE",
"341 626 CURVE",
"341 625 LINE",
"267 569 OFFCURVE",
"218 453 OFFCURVE",
"176 321 CURVE SMOOTH",
"130 179 OFFCURVE",
"92 100 OFFCURVE",
"17 75 CURVE SMOOTH",
"6 71 OFFCURVE",
"-5 69 OFFCURVE",
"-13 65 CURVE SMOOTH",
"-30 56 OFFCURVE",
"-42 21 OFFCURVE",
"-42 10 CURVE SMOOTH",
"-42 4 OFFCURVE",
"-38 0 OFFCURVE",
"-32 0 CURVE SMOOTH",
"-19 0 OFFCURVE",
"1 16 OFFCURVE",
"29 16 CURVE SMOOTH",
"50 16 OFFCURVE",
"98 0 OFFCURVE",
"116 0 CURVE SMOOTH",
"146 0 OFFCURVE",
"168 14 OFFCURVE",
"194 50 CURVE SMOOTH",
"201 60 OFFCURVE",
"204 70 OFFCURVE",
"204 76 CURVE SMOOTH",
"204 82 OFFCURVE",
"202 86 OFFCURVE",
"195 86 CURVE SMOOTH",
"187 86 OFFCURVE",
"172 76 OFFCURVE",
"153 76 CURVE SMOOTH",
"144 76 OFFCURVE",
"131 80 OFFCURVE",
"124 83 CURVE",
"124 84 LINE",
"170 109 OFFCURVE",
"211 162 OFFCURVE",
"234 226 CURVE",
"343 226 LINE",
"359 232 LINE",
"360 178 OFFCURVE",
"361 114 OFFCURVE",
"371 60 CURVE SMOOTH",
"380 14 OFFCURVE",
"399 -10 OFFCURVE",
"433 -10 CURVE SMOOTH"
);
},
{
closed = 1;
nodes = (
"269 342 LINE SMOOTH",
"295 462 OFFCURVE",
"336 548 OFFCURVE",
"390 593 CURVE",
"391 593 LINE",
"373 506 OFFCURVE",
"361 401 OFFCURVE",
"359 310 CURVE",
"262 310 LINE"
);
}
);
};
layerId = "56450C88-1299-454A-B666-E6F9AF06B23F";
paths = (
{
closed = 1;
nodes = (
"476 -10 OFFCURVE",
"538 35 OFFCURVE",
"565 83 CURVE SMOOTH",
"570 92 OFFCURVE",
"574 101 OFFCURVE",
"574 110 CURVE SMOOTH",
"574 116 OFFCURVE",
"572 121 OFFCURVE",
"567 121 CURVE SMOOTH",
"554 121 OFFCURVE",
"527 89 OFFCURVE",
"496 89 CURVE SMOOTH",
"479 89 OFFCURVE",
"471 98 OFFCURVE",
"468 122 CURVE SMOOTH",
"463 158 OFFCURVE",
"455 219 OFFCURVE",
"455 328 CURVE SMOOTH",
"455 500 OFFCURVE",
"475 633 OFFCURVE",
"513 699 CURVE",
"513 700 LINE",
"495 694 OFFCURVE",
"472 689 OFFCURVE",
"442 689 CURVE SMOOTH",
"382 689 OFFCURVE",
"327 710 OFFCURVE",
"267 710 CURVE SMOOTH",
"159 710 OFFCURVE",
"73 643 OFFCURVE",
"58 564 CURVE SMOOTH",
"57 559 OFFCURVE",
"56 552 OFFCURVE",
"56 548 CURVE SMOOTH",
"56 539 OFFCURVE",
"60 535 OFFCURVE",
"66 535 CURVE SMOOTH",
"75 535 OFFCURVE",
"78 542 OFFCURVE",
"86 555 CURVE SMOOTH",
"119 608 OFFCURVE",
"172 636 OFFCURVE",
"238 636 CURVE SMOOTH",
"278 636 OFFCURVE",
"307 626 OFFCURVE",
"331 626 CURVE",
"331 625 LINE",
"247 558 OFFCURVE",
"211 453 OFFCURVE",
"166 321 CURVE SMOOTH",
"118 181 OFFCURVE",
"89 104 OFFCURVE",
"7 75 CURVE SMOOTH",
"-6 71 OFFCURVE",
"-17 68 OFFCURVE",
"-23 65 CURVE SMOOTH",
"-40 56 OFFCURVE",
"-52 21 OFFCURVE",
"-52 10 CURVE SMOOTH",
"-52 4 OFFCURVE",
"-48 0 OFFCURVE",
"-42 0 CURVE SMOOTH",
"-30 0 OFFCURVE",
"-7 16 OFFCURVE",
"18 16 CURVE SMOOTH",
"43 16 OFFCURVE",
"84 0 OFFCURVE",
"108 0 CURVE SMOOTH",
"132 0 OFFCURVE",
"161 15 OFFCURVE",
"184 50 CURVE SMOOTH",
"191 61 OFFCURVE",
"194 68 OFFCURVE",
"194 76 CURVE SMOOTH",
"194 81 OFFCURVE",
"193 86 OFFCURVE",
"187 86 CURVE SMOOTH",
"178 86 OFFCURVE",
"161 76 OFFCURVE",
"144 76 CURVE SMOOTH",
"133 76 OFFCURVE",
"121 80 OFFCURVE",
"114 83 CURVE",
"114 84 LINE",
"160 109 OFFCURVE",
"201 162 OFFCURVE",
"224 226 CURVE",
"329 226 LINE",
"349 236 LINE",
"350 185 OFFCURVE",
"351 112 OFFCURVE",
"362 60 CURVE SMOOTH",
"372 12 OFFCURVE",
"390 -10 OFFCURVE",
"425 -10 CURVE SMOOTH"
);
},
{
closed = 1;
nodes = (
"259 342 LINE SMOOTH",
"285 462 OFFCURVE",
"327 551 OFFCURVE",
"385 598 CURVE",
"386 598 LINE",
"363 513 OFFCURVE",
"352 431 OFFCURVE",
"349 310 CURVE",
"252 310 LINE"
);
}
);
width = 580;
},
{
anchors = (
{
name = bottom;
position = "{232, 0}";
},
{
name = ogonek;
position = "{477, 16}";
},
{
name = top;
position = "{421, 700}";
}
);
background = {
anchors = (
{
name = bottom;
position = "{232, 0}";
},
{
name = ogonek;
position = "{477, 16}";
},
{
name = top;
position = "{421, 700}";
}
);
paths = (
{
closed = 1;
nodes = (
"469 -10 OFFCURVE",
"517 27 OFFCURVE",
"543 72 CURVE SMOOTH",
"547 79 OFFCURVE",
"549 83 OFFCURVE",
"549 87 CURVE SMOOTH",
"549 93 OFFCURVE",
"546 96 OFFCURVE",
"542 96 CURVE SMOOTH",
"529 96 OFFCURVE",
"498 63 OFFCURVE",
"472 63 CURVE SMOOTH",
"450 63 OFFCURVE",
"444 86 OFFCURVE",
"441 121 CURVE SMOOTH",
"438 155 OFFCURVE",
"435 250 OFFCURVE",
"435 319 CURVE SMOOTH",
"435 515 OFFCURVE",
"459 640 OFFCURVE",
"493 699 CURVE",
"493 700 LINE",
"472 693 OFFCURVE",
"458 689 OFFCURVE",
"437 689 CURVE SMOOTH",
"388 689 OFFCURVE",
"329 710 OFFCURVE",
"273 710 CURVE SMOOTH",
"156 710 OFFCURVE",
"89 619 OFFCURVE",
"78 574 CURVE SMOOTH",
"77 570 OFFCURVE",
"77 568 OFFCURVE",
"77 564 CURVE SMOOTH",
"77 560 OFFCURVE",
"79 555 OFFCURVE",
"84 555 CURVE SMOOTH",
"87 555 OFFCURVE",
"92 559 OFFCURVE",
"100 571 CURVE SMOOTH",
"144 634 OFFCURVE",
"180 658 OFFCURVE",
"260 658 CURVE SMOOTH",
"311 658 OFFCURVE",
"322 648 OFFCURVE",
"357 645 CURVE",
"357 644 LINE",
"271 589 OFFCURVE",
"226 463 OFFCURVE",
"179 328 CURVE SMOOTH",
"138 209 OFFCURVE",
"94 87 OFFCURVE",
"10 55 CURVE SMOOTH",
"-4 50 OFFCURVE",
"-10 51 OFFCURVE",
"-15 48 CURVE SMOOTH",
"-27 42 OFFCURVE",
"-42 17 OFFCURVE",
"-42 5 CURVE SMOOTH",
"-42 1 OFFCURVE",
"-40 0 OFFCURVE",
"-37 0 CURVE SMOOTH",
"-25 0 OFFCURVE",
"-12 16 OFFCURVE",
"14 16 CURVE SMOOTH",
"39 16 OFFCURVE",
"62 0 OFFCURVE",
"88 0 CURVE SMOOTH",
"109 0 OFFCURVE",
"134 11 OFFCURVE",
"156 34 CURVE SMOOTH",
"166 45 OFFCURVE",
"170 51 OFFCURVE",
"170 57 CURVE SMOOTH",
"170 61 OFFCURVE",
"168 63 OFFCURVE",
"164 63 CURVE SMOOTH",
"154 63 OFFCURVE",
"142 53 OFFCURVE",
"118 53 CURVE SMOOTH",
"110 53 OFFCURVE",
"106 54 OFFCURVE",
"93 59 CURVE",
"93 60 LINE",
"140 93 OFFCURVE",
"183 161 OFFCURVE",
"211 237 CURVE",
"335 237 LINE",
"360 257 LINE",
"360 185 OFFCURVE",
"361 108 OFFCURVE",
"369 59 CURVE SMOOTH",
"375 22 OFFCURVE",
"389 -10 OFFCURVE",
"428 -10 CURVE SMOOTH"
);
},
{
closed = 1;
nodes = (
"241 332 LINE SMOOTH",
"303 518 OFFCURVE",
"347 606 OFFCURVE",
"401 630 CURVE",
"402 630 LINE",
"379 554 OFFCURVE",
"363 421 OFFCURVE",
"361 299 CURVE",
"230 299 LINE"
);
}
);
};
layerId = "0B1DFD06-3317-40CA-B510-4969A0718C16";
paths = (
{
closed = 1;
nodes = (
"469 -10 OFFCURVE",
"517 27 OFFCURVE",
"543 72 CURVE SMOOTH",
"547 79 OFFCURVE",
"549 83 OFFCURVE",
"549 87 CURVE SMOOTH",
"549 93 OFFCURVE",
"546 96 OFFCURVE",
"542 96 CURVE SMOOTH",
"529 96 OFFCURVE",
"498 63 OFFCURVE",
"472 63 CURVE SMOOTH",
"450 63 OFFCURVE",
"444 86 OFFCURVE",
"441 121 CURVE SMOOTH",
"438 155 OFFCURVE",
"435 250 OFFCURVE",
"435 319 CURVE SMOOTH",
"435 515 OFFCURVE",
"459 640 OFFCURVE",
"493 699 CURVE",
"493 700 LINE",
"472 693 OFFCURVE",
"458 689 OFFCURVE",
"437 689 CURVE SMOOTH",
"388 689 OFFCURVE",
"329 710 OFFCURVE",
"273 710 CURVE SMOOTH",
"156 710 OFFCURVE",
"89 619 OFFCURVE",
"78 574 CURVE SMOOTH",
"77 570 OFFCURVE",
"77 568 OFFCURVE",
"77 564 CURVE SMOOTH",
"77 560 OFFCURVE",
"79 555 OFFCURVE",
"84 555 CURVE SMOOTH",
"87 555 OFFCURVE",
"92 559 OFFCURVE",
"100 571 CURVE SMOOTH",
"144 634 OFFCURVE",
"180 658 OFFCURVE",
"260 658 CURVE SMOOTH",
"311 658 OFFCURVE",
"322 648 OFFCURVE",
"357 645 CURVE",
"357 644 LINE",
"271 589 OFFCURVE",
"226 463 OFFCURVE",
"179 328 CURVE SMOOTH",
"138 209 OFFCURVE",
"94 87 OFFCURVE",
"10 55 CURVE SMOOTH",
"-4 50 OFFCURVE",
"-10 51 OFFCURVE",
"-15 48 CURVE SMOOTH",
"-27 42 OFFCURVE",
"-42 17 OFFCURVE",
"-42 5 CURVE SMOOTH",
"-42 1 OFFCURVE",
"-40 0 OFFCURVE",
"-37 0 CURVE SMOOTH",
"-25 0 OFFCURVE",
"-12 16 OFFCURVE",
"14 16 CURVE SMOOTH",
"39 16 OFFCURVE",
"62 0 OFFCURVE",
"88 0 CURVE SMOOTH",
"109 0 OFFCURVE",
"134 11 OFFCURVE",
"156 34 CURVE SMOOTH",
"166 45 OFFCURVE",
"170 51 OFFCURVE",
"170 57 CURVE SMOOTH",
"170 61 OFFCURVE",
"168 63 OFFCURVE",
"164 63 CURVE SMOOTH",
"154 63 OFFCURVE",
"142 53 OFFCURVE",
"118 53 CURVE SMOOTH",
"110 53 OFFCURVE",
"106 54 OFFCURVE",
"93 59 CURVE",
"93 60 LINE",
"140 93 OFFCURVE",
"183 161 OFFCURVE",
"211 237 CURVE",
"335 237 LINE",
"360 257 LINE",
"360 185 OFFCURVE",
"361 108 OFFCURVE",
"369 59 CURVE SMOOTH",
"375 22 OFFCURVE",
"389 -10 OFFCURVE",
"428 -10 CURVE SMOOTH"
);
},
{
closed = 1;
nodes = (
"241 332 LINE SMOOTH",
"303 518 OFFCURVE",
"347 606 OFFCURVE",
"401 630 CURVE",
"402 630 LINE",
"379 554 OFFCURVE",
"363 421 OFFCURVE",
"361 299 CURVE",
"230 299 LINE"
);
}
);
width = 565;
}
);
leftKerningGroup = A;
note = A;
rightKerningGroup = A;
unicode = 0041;
},
{
glyphname = B;
lastChange = "2018-05-23 06:41:33 +0000";
layers = (
{
anchors = (
{
name = bottom;
position = "{271, 0}";
},
{
name = top;
position = "{351, 700}";
}
);
background = {
paths = (
{
closed = 1;
nodes = (
"65 0 OFFCURVE",
"95 15 OFFCURVE",
"129 15 CURVE SMOOTH",
"163 15 OFFCURVE",
"238 0 OFFCURVE",
"284 0 CURVE SMOOTH",
"416 0 OFFCURVE",
"555 84 OFFCURVE",
"555 221 CURVE SMOOTH",
"555 280 OFFCURVE",
"517 340 OFFCURVE",
"452 380 CURVE",
"523 422 OFFCURVE",
"566 484 OFFCURVE",
"566 554 CURVE SMOOTH",
"566 657 OFFCURVE",
"496 710 OFFCURVE",
"353 710 CURVE SMOOTH",
"215 710 OFFCURVE",
"97 643 OFFCURVE",
"53 545 CURVE SMOOTH",
"49 536 OFFCURVE",
"48 529 OFFCURVE",
"48 524 CURVE SMOOTH",
"48 516 OFFCURVE",
"52 511 OFFCURVE",
"60 511 CURVE SMOOTH",
"72 511 OFFCURVE",
"78 518 OFFCURVE",
"93 535 CURVE SMOOTH",
"150 600 OFFCURVE",
"229 634 OFFCURVE",
"322 634 CURVE SMOOTH",
"408 634 OFFCURVE",
"448 603 OFFCURVE",
"448 535 CURVE SMOOTH",
"448 467 OFFCURVE",
"409 411 OFFCURVE",
"350 397 CURVE",
"266 397 LINE",
"281 501 LINE SMOOTH",
"289 556 OFFCURVE",
"308 564 OFFCURVE",
"308 579 CURVE SMOOTH",
"308 587 OFFCURVE",
"304 593 OFFCURVE",
"289 593 CURVE SMOOTH",
"237 593 OFFCURVE",
"185 547 OFFCURVE",
"179 509 CURVE SMOOTH",
"123 140 LINE SMOOTH",
"120 120 OFFCURVE",
"115 101 OFFCURVE",
"84 79 CURVE SMOOTH",
"55 59 OFFCURVE",
"42 36 OFFCURVE",
"42 10 CURVE SMOOTH",
"42 4 OFFCURVE",
"46 0 OFFCURVE",
"52 0 CURVE SMOOTH"
);
},
{
closed = 1;
nodes = (
"266 88 OFFCURVE",
"231 92 OFFCURVE",
"212 98 CURVE",
"211 99 LINE",
"221 113 OFFCURVE",
"225 124 OFFCURVE",
"228 145 CURVE SMOOTH",
"253 319 LINE",
"357 319 LINE",
"409 292 OFFCURVE",
"439 247 OFFCURVE",
"439 198 CURVE SMOOTH",
"439 123 OFFCURVE",
"390 88 OFFCURVE",
"306 88 CURVE SMOOTH"
);
}
);
};
layerId = "56450C88-1299-454A-B666-E6F9AF06B23F";
paths = (
{
closed = 1;
nodes = (
"56 0 OFFCURVE",
"84 15 OFFCURVE",
"119 15 CURVE SMOOTH",
"154 15 OFFCURVE",
"224 0 OFFCURVE",
"277 0 CURVE SMOOTH",
"406 0 OFFCURVE",
"545 88 OFFCURVE",
"545 216 CURVE SMOOTH",
"545 284 OFFCURVE",
"506 340 OFFCURVE",
"442 380 CURVE",
"515 424 OFFCURVE",
"556 483 OFFCURVE",
"556 557 CURVE SMOOTH",
"556 657 OFFCURVE",
"480 710 OFFCURVE",
"350 710 CURVE SMOOTH",
"190 710 OFFCURVE",
"77 630 OFFCURVE",
"43 545 CURVE SMOOTH",
"40 538 OFFCURVE",
"38 530 OFFCURVE",
"38 524 CURVE SMOOTH",
"38 516 OFFCURVE",
"42 511 OFFCURVE",
"48 511 CURVE SMOOTH",
"56 511 OFFCURVE",
"65 518 OFFCURVE",
"81 535 CURVE SMOOTH",
"118 573 OFFCURVE",
"183 634 OFFCURVE",
"309 634 CURVE SMOOTH",
"398 634 OFFCURVE",
"438 604 OFFCURVE",
"438 535 CURVE SMOOTH",
"438 467 OFFCURVE",
"399 410 OFFCURVE",
"340 396 CURVE",
"256 396 LINE",
"271 501 LINE SMOOTH",
"280 562 OFFCURVE",
"295 567 OFFCURVE",
"295 583 CURVE SMOOTH",
"295 590 OFFCURVE",
"292 593 OFFCURVE",
"279 593 CURVE SMOOTH",
"230 593 OFFCURVE",
"175 547 OFFCURVE",
"169 509 CURVE SMOOTH",
"113 140 LINE SMOOTH",
"108 107 OFFCURVE",
"99 99 OFFCURVE",
"74 79 CURVE SMOOTH",
"54 63 OFFCURVE",
"32 44 OFFCURVE",
"32 14 CURVE SMOOTH",
"32 5 OFFCURVE",
"34 0 OFFCURVE",
"42 0 CURVE SMOOTH"
);
},
{
closed = 1;
nodes = (
"259 88 OFFCURVE",
"221 92 OFFCURVE",
"202 98 CURVE",
"201 99 LINE",
"211 113 OFFCURVE",
"215 124 OFFCURVE",
"218 145 CURVE SMOOTH",
"243 320 LINE",
"347 320 LINE",
"398 293 OFFCURVE",
"429 251 OFFCURVE",
"429 194 CURVE SMOOTH",
"429 123 OFFCURVE",
"380 88 OFFCURVE",
"290 88 CURVE SMOOTH"
);
}
);
width = 582;
},
{
anchors = (
{
name = bottom;
position = "{245, 0}";
},
{
name = top;
position = "{326, 700}";
}
);
background = {
anchors = (
{
name = bottom;
position = "{245, 0}";
},
{
name = top;
position = "{326, 700}";
}
);
paths = (
{
closed = 1;
nodes = (
"64 0 OFFCURVE",
"74 15 OFFCURVE",
"108 15 CURVE SMOOTH",
"141 15 OFFCURVE",
"193 0 OFFCURVE",
"256 0 CURVE SMOOTH",
"400 0 OFFCURVE",
"506 80 OFFCURVE",
"506 205 CURVE SMOOTH",
"506 278 OFFCURVE",
"470 335 OFFCURVE",
"394 377 CURVE",
"474 420 OFFCURVE",
"523 493 OFFCURVE",
"523 566 CURVE SMOOTH",
"523 657 OFFCURVE",
"445 710 OFFCURVE",
"325 710 CURVE SMOOTH",
"177 710 OFFCURVE",
"62 630 OFFCURVE",
"43 549 CURVE SMOOTH",
"42 545 OFFCURVE",
"42 543 OFFCURVE",
"42 539 CURVE SMOOTH",
"42 534 OFFCURVE",
"44 530 OFFCURVE",
"50 530 CURVE SMOOTH",
"58 530 OFFCURVE",
"65 539 OFFCURVE",
"74 551 CURVE SMOOTH",
"130 624 OFFCURVE",
"207 652 OFFCURVE",
"293 652 CURVE SMOOTH",
"394 652 OFFCURVE",
"449 613 OFFCURVE",
"449 544 CURVE SMOOTH",
"449 479 OFFCURVE",
"400 407 OFFCURVE",
"320 386 CURVE",
"233 386 LINE",
"255 538 LINE SMOOTH",
"262 586 OFFCURVE",
"280 593 OFFCURVE",
"280 601 CURVE SMOOTH",
"280 605 OFFCURVE",
"276 607 OFFCURVE",
"269 607 CURVE SMOOTH",
"238 607 OFFCURVE",
"189 565 OFFCURVE",
"184 532 CURVE SMOOTH",
"122 120 LINE SMOOTH",
"119 96 OFFCURVE",
"111 78 OFFCURVE",
"79 54 CURVE SMOOTH",
"58 39 OFFCURVE",
"42 24 OFFCURVE",
"42 8 CURVE SMOOTH",
"42 3 OFFCURVE",
"44 0 OFFCURVE",
"50 0 CURVE SMOOTH"
);
},
{
closed = 1;
nodes = (
"242 60 OFFCURVE",
"193 63 OFFCURVE",
"166 70 CURVE",
"166 71 LINE",
"183 87 OFFCURVE",
"190 104 OFFCURVE",
"195 138 CURVE SMOOTH",
"225 338 LINE",
"327 338 LINE",
"397 307 OFFCURVE",
"434 254 OFFCURVE",
"434 182 CURVE SMOOTH",
"434 98 OFFCURVE",
"383 60 OFFCURVE",
"273 60 CURVE SMOOTH"
);
}
);
};
layerId = "0B1DFD06-3317-40CA-B510-4969A0718C16";
paths = (
{
closed = 1;
nodes = (
"64 0 OFFCURVE",
"74 15 OFFCURVE",
"108 15 CURVE SMOOTH",
"141 15 OFFCURVE",
"193 0 OFFCURVE",
"256 0 CURVE SMOOTH",
"400 0 OFFCURVE",
"506 80 OFFCURVE",
"506 205 CURVE SMOOTH",
"506 278 OFFCURVE",
"470 335 OFFCURVE",
"394 377 CURVE",
"474 420 OFFCURVE",
"523 493 OFFCURVE",
"523 566 CURVE SMOOTH",
"523 657 OFFCURVE",
"445 710 OFFCURVE",
"325 710 CURVE SMOOTH",
"177 710 OFFCURVE",
"62 630 OFFCURVE",
"43 549 CURVE SMOOTH",
"42 545 OFFCURVE",
"42 543 OFFCURVE",
"42 539 CURVE SMOOTH",
"42 534 OFFCURVE",
"44 530 OFFCURVE",
"50 530 CURVE SMOOTH",
"58 530 OFFCURVE",
"65 539 OFFCURVE",
"74 551 CURVE SMOOTH",
"130 624 OFFCURVE",
"207 652 OFFCURVE",
"293 652 CURVE SMOOTH",
"394 652 OFFCURVE",
"449 613 OFFCURVE",
"449 544 CURVE SMOOTH",
"449 479 OFFCURVE",
"400 407 OFFCURVE",
"320 386 CURVE",
"233 386 LINE",
"255 538 LINE SMOOTH",
"262 586 OFFCURVE",
"280 593 OFFCURVE",
"280 601 CURVE SMOOTH",
"280 605 OFFCURVE",
"276 607 OFFCURVE",
"269 607 CURVE SMOOTH",
"238 607 OFFCURVE",
"189 565 OFFCURVE",
"184 532 CURVE SMOOTH",
"122 120 LINE SMOOTH",
"119 96 OFFCURVE",
"111 78 OFFCURVE",
"79 54 CURVE SMOOTH",
"58 39 OFFCURVE",
"42 24 OFFCURVE",
"42 8 CURVE SMOOTH",
"42 3 OFFCURVE",
"44 0 OFFCURVE",
"50 0 CURVE SMOOTH"
);
},
{
closed = 1;
nodes = (
"242 60 OFFCURVE",
"193 63 OFFCURVE",
"166 70 CURVE",
"166 71 LINE",
"183 87 OFFCURVE",
"190 104 OFFCURVE",
"195 138 CURVE SMOOTH",
"225 338 LINE",
"327 338 LINE",
"397 307 OFFCURVE",
"434 254 OFFCURVE",
"434 182 CURVE SMOOTH",
"434 98 OFFCURVE",
"383 60 OFFCURVE",
"273 60 CURVE SMOOTH"
);
}
);
width = 559;
}
);
note = B;
unicode = 0042;
},
{
glyphname = C;
lastChange = "2018-05-23 06:41:33 +0000";
layers = (
{
anchors = (
{
name = bottom;
position = "{255, 0}";
},
{
name = top;
position = "{445, 700}";
}
);
background = {
paths = (
{
closed = 1;
nodes = (
"379 -10 OFFCURVE",
"478 66 OFFCURVE",
"510 181 CURVE SMOOTH",
"519 213 OFFCURVE",
"518 224 OFFCURVE",
"505 224 CURVE SMOOTH",
"497 224 OFFCURVE",
"491 217 OFFCURVE",
"485 206 CURVE SMOOTH",
"438 121 OFFCURVE",
"382 82 OFFCURVE",
"308 82 CURVE SMOOTH",
"224 82 OFFCURVE",
"182 145 OFFCURVE",
"182 265 CURVE SMOOTH",
"182 486 OFFCURVE",
"273 634 OFFCURVE",
"409 634 CURVE SMOOTH",
"463 634 OFFCURVE",
"496 613 OFFCURVE",
"504 572 CURVE SMOOTH",
"511 537 OFFCURVE",
"513 526 OFFCURVE",
"530 526 CURVE SMOOTH",
"544 526 OFFCURVE",
"556 543 OFFCURVE",
"564 557 CURVE SMOOTH",
"577 580 OFFCURVE",
"583 599 OFFCURVE",
"583 624 CURVE SMOOTH",
"583 678 OFFCURVE",
"529 710 OFFCURVE",
"433 710 CURVE SMOOTH",
"260 710 OFFCURVE",
"62 537 OFFCURVE",
"62 235 CURVE SMOOTH",
"62 81 OFFCURVE",
"137 -10 OFFCURVE",
"263 -10 CURVE SMOOTH"
);
}
);
};
layerId = "56450C88-1299-454A-B666-E6F9AF06B23F";
paths = (
{
closed = 1;
nodes = (
"368 -10 OFFCURVE",
"465 62 OFFCURVE",
"500 181 CURVE SMOOTH",
"510 215 OFFCURVE",
"506 224 OFFCURVE",
"496 224 CURVE SMOOTH",
"487 224 OFFCURVE",
"481 217 OFFCURVE",
"475 206 CURVE SMOOTH",
"446 157 OFFCURVE",
"399 82 OFFCURVE",
"300 82 CURVE SMOOTH",
"209 82 OFFCURVE",
"172 145 OFFCURVE",
"172 277 CURVE SMOOTH",
"172 483 OFFCURVE",
"263 634 OFFCURVE",
"402 634 CURVE SMOOTH",
"449 634 OFFCURVE",
"485 617 OFFCURVE",
"496 572 CURVE SMOOTH",
"501 552 OFFCURVE",
"500 526 OFFCURVE",
"518 526 CURVE SMOOTH",
"533 526 OFFCURVE",
"544 543 OFFCURVE",
"552 557 CURVE SMOOTH",
"565 580 OFFCURVE",
"573 600 OFFCURVE",
"573 621 CURVE SMOOTH",
"573 678 OFFCURVE",
"515 710 OFFCURVE",
"433 710 CURVE SMOOTH",
"232 710 OFFCURVE",
"52 516 OFFCURVE",
"52 248 CURVE SMOOTH",
"52 75 OFFCURVE",
"127 -10 OFFCURVE",
"252 -10 CURVE SMOOTH"
);
}
);
width = 563;
},
{
anchors = (
{
name = bottom;
position = "{239, 0}";
},
{
name = top;
position = "{444, 700}";
}
);
background = {
anchors = (
{
name = bottom;
position = "{239, 0}";
},
{
name = top;
position = "{444, 700}";
}
);
paths = (
{
closed = 1;
nodes = (
"351 -10 OFFCURVE",
"452 66 OFFCURVE",
"483 175 CURVE SMOOTH",
"484 179 OFFCURVE",
"491 208 OFFCURVE",
"481 208 CURVE SMOOTH",
"475 208 OFFCURVE",
"470 199 OFFCURVE",
"469 196 CURVE SMOOTH",
"425 108 OFFCURVE",
"358 60 OFFCURVE",
"286 60 CURVE SMOOTH",
"196 60 OFFCURVE",
"148 136 OFFCURVE",
"148 265 CURVE SMOOTH",
"148 420 OFFCURVE",
"217 656 OFFCURVE",
"393 656 CURVE SMOOTH",
"456 656 OFFCURVE",
"488 626 OFFCURVE",
"496 582 CURVE SMOOTH",
"499 566 OFFCURVE",
"499 548 OFFCURVE",
"513 548 CURVE SMOOTH",
"520 548 OFFCURVE",
"525 553 OFFCURVE",
"532 563 CURVE SMOOTH",
"542 577 OFFCURVE",
"555 603 OFFCURVE",
"555 628 CURVE SMOOTH",
"555 687 OFFCURVE",
"482 710 OFFCURVE",
"424 710 CURVE SMOOTH",
"270 710 OFFCURVE",
"62 549 OFFCURVE",
"62 245 CURVE SMOOTH",
"62 74 OFFCURVE",
"128 -10 OFFCURVE",
"242 -10 CURVE SMOOTH"
);
}
);
};
layerId = "0B1DFD06-3317-40CA-B510-4969A0718C16";
paths = (
{
closed = 1;
nodes = (
"351 -10 OFFCURVE",
"452 66 OFFCURVE",
"483 175 CURVE SMOOTH",
"484 179 OFFCURVE",
"491 208 OFFCURVE",
"481 208 CURVE SMOOTH",
"475 208 OFFCURVE",
"470 199 OFFCURVE",
"469 196 CURVE SMOOTH",
"425 108 OFFCURVE",
"358 60 OFFCURVE",
"286 60 CURVE SMOOTH",
"196 60 OFFCURVE",
"148 136 OFFCURVE",
"148 265 CURVE SMOOTH",
"148 420 OFFCURVE",
"217 656 OFFCURVE",
"393 656 CURVE SMOOTH",
"456 656 OFFCURVE",
"488 626 OFFCURVE",
"496 582 CURVE SMOOTH",
"499 566 OFFCURVE",
"499 548 OFFCURVE",
"513 548 CURVE SMOOTH",
"520 548 OFFCURVE",
"525 553 OFFCURVE",
"532 563 CURVE SMOOTH",
"542 577 OFFCURVE",
"555 603 OFFCURVE",
"555 628 CURVE SMOOTH",
"555 687 OFFCURVE",
"482 710 OFFCURVE",
"424 710 CURVE SMOOTH",
"270 710 OFFCURVE",
"62 549 OFFCURVE",
"62 245 CURVE SMOOTH",
"62 74 OFFCURVE",
"128 -10 OFFCURVE",
"242 -10 CURVE SMOOTH"
);
}
);
width = 555;
}
);
leftKerningGroup = C;
note = C;
rightKerningGroup = C;
unicode = 0043;
},
{
glyphname = D;
lastChange = "2018-05-23 06:41:33 +0000";
layers = (
{
anchors = (
{
name = bottom;
position = "{255, 0}";
},
{
name = center;
position = "{277, 350}";
},
{
name = top;
position = "{367, 700}";
}
);
background = {
paths = (
{
closed = 1;
nodes = (
"62 0 OFFCURVE",
"80 14 OFFCURVE",
"116 14 CURVE SMOOTH",
"162 14 OFFCURVE",
"194 0 OFFCURVE",
"265 0 CURVE SMOOTH",
"478 0 OFFCURVE",
"620 169 OFFCURVE",
"620 423 CURVE SMOOTH",
"620 603 OFFCURVE",
"509 710 OFFCURVE",
"322 710 CURVE SMOOTH",
"197 710 OFFCURVE",
"89 649 OFFCURVE",
"51 557 CURVE SMOOTH",
"47 548 OFFCURVE",
"47 543 OFFCURVE",
"47 538 CURVE SMOOTH",
"47 530 OFFCURVE",
"51 525 OFFCURVE",
"59 525 CURVE SMOOTH",
"71 525 OFFCURVE",
"78 532 OFFCURVE",
"92 549 CURVE SMOOTH",
"139 606 OFFCURVE",
"211 638 OFFCURVE",
"288 638 CURVE SMOOTH",
"431 638 OFFCURVE",
"500 561 OFFCURVE",
"500 418 CURVE SMOOTH",
"500 207 OFFCURVE",
"417 83 OFFCURVE",
"276 83 CURVE SMOOTH",
"245 83 OFFCURVE",
"217 84 OFFCURVE",
"196 87 CURVE",
"196 88 LINE",
"205 100 OFFCURVE",
"210 115 OFFCURVE",
"213 130 CURVE SMOOTH",
"279 500 LINE SMOOTH",
"289 554 OFFCURVE",
"306 563 OFFCURVE",
"306 578 CURVE SMOOTH",
"306 586 OFFCURVE",
"302 592 OFFCURVE",
"287 592 CURVE SMOOTH",
"235 592 OFFCURVE",
"183 546 OFFCURVE",
"176 508 CURVE SMOOTH",
"112 146 LINE SMOOTH",
"108 126 OFFCURVE",
"104 94 OFFCURVE",
"67 71 CURVE SMOOTH",
"54 63 OFFCURVE",
"36 32 OFFCURVE",
"36 10 CURVE SMOOTH",
"36 4 OFFCURVE",
"40 0 OFFCURVE",
"46 0 CURVE SMOOTH"
);
}
);
};
layerId = "56450C88-1299-454A-B666-E6F9AF06B23F";
paths = (
{
closed = 1;
nodes = (
"52 0 OFFCURVE",
"68 14 OFFCURVE",
"108 14 CURVE SMOOTH",
"148 14 OFFCURVE",
"190 0 OFFCURVE",
"251 0 CURVE SMOOTH",
"472 0 OFFCURVE",
"610 180 OFFCURVE",
"610 405 CURVE SMOOTH",
"610 607 OFFCURVE",
"499 710 OFFCURVE",
"321 710 CURVE SMOOTH",
"183 710 OFFCURVE",
"77 648 OFFCURVE",
"41 557 CURVE SMOOTH",
"38 550 OFFCURVE",
"37 545 OFFCURVE",
"37 540 CURVE SMOOTH",
"37 530 OFFCURVE",
"40 525 OFFCURVE",
"49 525 CURVE SMOOTH",
"63 525 OFFCURVE",
"70 535 OFFCURVE",
"82 549 CURVE SMOOTH",
"133 608 OFFCURVE",
"197 638 OFFCURVE",
"285 638 CURVE SMOOTH",
"426 638 OFFCURVE",
"490 561 OFFCURVE",
"490 398 CURVE SMOOTH",
"490 212 OFFCURVE",
"407 82 OFFCURVE",
"258 82 CURVE SMOOTH",
"239 82 OFFCURVE",
"207 84 OFFCURVE",
"186 87 CURVE",
"186 88 LINE",
"197 102 OFFCURVE",
"202 124 OFFCURVE",
"203 130 CURVE SMOOTH",
"269 500 LINE SMOOTH",
"280 560 OFFCURVE",
"293 567 OFFCURVE",
"293 582 CURVE SMOOTH",
"293 589 OFFCURVE",
"290 592 OFFCURVE",
"277 592 CURVE SMOOTH",
"228 592 OFFCURVE",
"173 546 OFFCURVE",
"166 508 CURVE SMOOTH",
"102 146 LINE SMOOTH",
"93 100 OFFCURVE",
"90 97 OFFCURVE",
"57 71 CURVE SMOOTH",
"32 50 OFFCURVE",
"26 21 OFFCURVE",
"26 11 CURVE SMOOTH",
"26 4 OFFCURVE",
"29 0 OFFCURVE",
"37 0 CURVE SMOOTH"
);
}
);
width = 636;
},
{
anchors = (
{
name = bottom;
position = "{240, 0}";
},
{
name = center;
position = "{310, 350}";
},
{
name = top;
position = "{376, 700}";
}
);
background = {
anchors = (
{
name = bottom;
position = "{240, 0}";
},
{
name = center;
position = "{310, 350}";
},
{
name = top;
position = "{376, 700}";
}
);
paths = (
{
closed = 1;
nodes = (
"54 0 OFFCURVE",
"66 14 OFFCURVE",
"104 14 CURVE SMOOTH",
"142 14 OFFCURVE",
"187 0 OFFCURVE",
"244 0 CURVE SMOOTH",
"464 0 OFFCURVE",
"584 206 OFFCURVE",
"584 418 CURVE SMOOTH",
"584 616 OFFCURVE",
"480 710 OFFCURVE",
"317 710 CURVE SMOOTH",
"164 710 OFFCURVE",
"64 627 OFFCURVE",
"49 564 CURVE SMOOTH",
"48 560 OFFCURVE",
"48 558 OFFCURVE",
"48 554 CURVE SMOOTH",
"48 550 OFFCURVE",
"50 545 OFFCURVE",
"56 545 CURVE SMOOTH",
"63 545 OFFCURVE",
"68 552 OFFCURVE",
"80 566 CURVE SMOOTH",
"132 626 OFFCURVE",
"200 655 OFFCURVE",
"286 655 CURVE SMOOTH",
"431 655 OFFCURVE",
"498 574 OFFCURVE",
"498 405 CURVE SMOOTH",
"498 211 OFFCURVE",
"409 61 OFFCURVE",
"247 61 CURVE SMOOTH",
"224 61 OFFCURVE",
"181 64 OFFCURVE",
"160 69 CURVE",
"160 70 LINE",
"172 82 OFFCURVE",
"179 105 OFFCURVE",
"182 122 CURVE SMOOTH",
"251 539 LINE SMOOTH",
"259 587 OFFCURVE",
"276 594 OFFCURVE",
"276 602 CURVE SMOOTH",
"276 606 OFFCURVE",
"272 608 OFFCURVE",
"265 608 CURVE SMOOTH",
"234 608 OFFCURVE",
"186 566 OFFCURVE",
"180 533 CURVE SMOOTH",
"114 136 LINE SMOOTH",
"105 84 OFFCURVE",
"82 65 OFFCURVE",
"60 49 CURVE SMOOTH",
"48 40 OFFCURVE",
"36 17 OFFCURVE",
"36 6 CURVE SMOOTH",
"36 2 OFFCURVE",
"37 0 OFFCURVE",
"41 0 CURVE SMOOTH"
);
}
);
};
layerId = "0B1DFD06-3317-40CA-B510-4969A0718C16";
paths = (
{
closed = 1;
nodes = (
"54 0 OFFCURVE",
"66 14 OFFCURVE",
"104 14 CURVE SMOOTH",
"142 14 OFFCURVE",
"187 0 OFFCURVE",
"244 0 CURVE SMOOTH",
"464 0 OFFCURVE",
"584 206 OFFCURVE",
"584 418 CURVE SMOOTH",
"584 616 OFFCURVE",
"480 710 OFFCURVE",
"317 710 CURVE SMOOTH",
"164 710 OFFCURVE",
"64 627 OFFCURVE",
"49 564 CURVE SMOOTH",
"48 560 OFFCURVE",
"48 558 OFFCURVE",
"48 554 CURVE SMOOTH",
"48 550 OFFCURVE",
"50 545 OFFCURVE",
"56 545 CURVE SMOOTH",
"63 545 OFFCURVE",
"68 552 OFFCURVE",
"80 566 CURVE SMOOTH",
"132 626 OFFCURVE",
"200 655 OFFCURVE",
"286 655 CURVE SMOOTH",
"431 655 OFFCURVE",
"498 574 OFFCURVE",
"498 405 CURVE SMOOTH",
"498 211 OFFCURVE",
"409 61 OFFCURVE",
"247 61 CURVE SMOOTH",
"224 61 OFFCURVE",
"181 64 OFFCURVE",
"160 69 CURVE",
"160 70 LINE",
"172 82 OFFCURVE",
"179 105 OFFCURVE",
"182 122 CURVE SMOOTH",
"251 539 LINE SMOOTH",
"259 587 OFFCURVE",
"276 594 OFFCURVE",
"276 602 CURVE SMOOTH",
"276 606 OFFCURVE",
"272 608 OFFCURVE",
"265 608 CURVE SMOOTH",
"234 608 OFFCURVE",
"186 566 OFFCURVE",
"180 533 CURVE SMOOTH",
"114 136 LINE SMOOTH",
"105 84 OFFCURVE",
"82 65 OFFCURVE",
"60 49 CURVE SMOOTH",
"48 40 OFFCURVE",
"36 17 OFFCURVE",
"36 6 CURVE SMOOTH",
"36 2 OFFCURVE",
"37 0 OFFCURVE",
"41 0 CURVE SMOOTH"
);
}
);
width = 620;
}
);
leftKerningGroup = D;
note = D;
rightKerningGroup = D;
unicode = 0044;
},
{
glyphname = E;
lastChange = "2018-05-23 06:41:33 +0000";
layers = (
{
anchors = (
{
name = bottom;
position = "{233, 0}";
},
{
name = ogonek;
position = "{384, 32}";
},
{
name = top;
position = "{364, 700}";
},
{
name = topleft;
position = "{47, 597}";
}
);
background = {
anchors = (
{
name = bottom;
position = "{267, 0}";
},
{
name = ogonek;
position = "{519, 10}";
},
{
name = top;
position = "{267, 700}";
},
{
name = topleft;
position = "{-28, 700}";
}
);
paths = (
{
closed = 1;
nodes = (
"60 0 OFFCURVE",
"78 17 OFFCURVE",
"118 17 CURVE SMOOTH",
"167 17 OFFCURVE",
"227 0 OFFCURVE",
"289 0 CURVE SMOOTH",
"381 0 OFFCURVE",
"467 61 OFFCURVE",
"467 114 CURVE SMOOTH",
"467 122 OFFCURVE",
"463 128 OFFCURVE",
"457 128 CURVE SMOOTH",
"452 128 OFFCURVE",
"445 124 OFFCURVE",
"435 118 CURVE SMOOTH",
"410 103 OFFCURVE",
"368 88 OFFCURVE",
"293 88 CURVE SMOOTH",
"258 88 OFFCURVE",
"219 96 OFFCURVE",
"200 99 CURVE",
"200 100 LINE",
"207 116 OFFCURVE",
"209 128 OFFCURVE",
"211 138 CURVE SMOOTH",
"243 325 LINE",
"277 325 LINE SMOOTH",
"327 325 OFFCURVE",
"356 313 OFFCURVE",
"386 313 CURVE SMOOTH",
"416 313 OFFCURVE",
"461 376 OFFCURVE",
"461 390 CURVE SMOOTH",
"461 398 OFFCURVE",
"457 402 OFFCURVE",
"449 402 CURVE SMOOTH",
"256 402 LINE",
"290 610 LINE",
"355 610 OFFCURVE",
"386 602 OFFCURVE",
"431 602 CURVE SMOOTH",
"505 602 OFFCURVE",
"557 664 OFFCURVE",
"557 697 CURVE SMOOTH",
"557 705 OFFCURVE",
"552 710 OFFCURVE",
"544 710 CURVE SMOOTH",
"532 710 OFFCURVE",
"496 690 OFFCURVE",
"436 690 CURVE SMOOTH",
"345 690 OFFCURVE",
"305 700 OFFCURVE",
"234 700 CURVE SMOOTH",
"138 700 OFFCURVE",
"63 659 OFFCURVE",
"47 597 CURVE SMOOTH",
"46 593 OFFCURVE",
"45 588 OFFCURVE",
"45 584 CURVE SMOOTH",
"45 576 OFFCURVE",
"48 572 OFFCURVE",
"54 572 CURVE SMOOTH",
"66 572 OFFCURVE",
"95 613 OFFCURVE",
"178 613 CURVE SMOOTH",
"183 613 LINE",
"112 189 LINE SMOOTH",
"99 114 OFFCURVE",
"88 92 OFFCURVE",
"62 66 CURVE SMOOTH",
"45 49 OFFCURVE",
"36 25 OFFCURVE",
"36 10 CURVE SMOOTH",
"36 4 OFFCURVE",
"40 0 OFFCURVE",
"46 0 CURVE SMOOTH"
);
}
);
};
layerId = "56450C88-1299-454A-B666-E6F9AF06B23F";
paths = (
{
closed = 1;
nodes = (
"51 0 OFFCURVE",
"66 17 OFFCURVE",
"110 17 CURVE SMOOTH",
"153 17 OFFCURVE",
"221 0 OFFCURVE",
"276 0 CURVE SMOOTH",
"381 0 OFFCURVE",
"457 63 OFFCURVE",
"457 114 CURVE SMOOTH",
"457 124 OFFCURVE",
"454 126 OFFCURVE",
"449 126 CURVE SMOOTH",
"443 126 OFFCURVE",
"438 124 OFFCURVE",
"425 116 CURVE SMOOTH",
"399 101 OFFCURVE",
"355 86 OFFCURVE",
"289 86 CURVE SMOOTH",
"248 86 OFFCURVE",
"218 92 OFFCURVE",
"190 99 CURVE",
"190 100 LINE",
"193 107 OFFCURVE",
"197 117 OFFCURVE",
"201 138 CURVE SMOOTH",
"233 325 LINE",
"267 325 LINE SMOOTH",
"314 325 OFFCURVE",
"353 313 OFFCURVE",
"371 313 CURVE SMOOTH",
"412 313 OFFCURVE",
"451 379 OFFCURVE",
"451 393 CURVE SMOOTH",
"451 397 OFFCURVE",
"448 402 OFFCURVE",
"441 402 CURVE SMOOTH",
"246 402 LINE",
"280 610 LINE",
"341 610 OFFCURVE",
"384 604 OFFCURVE",
"412 604 CURVE SMOOTH",
"506 604 OFFCURVE",
"547 671 OFFCURVE",
"547 700 CURVE SMOOTH",
"547 707 OFFCURVE",
"544 710 OFFCURVE",
"537 710 CURVE SMOOTH",
"519 710 OFFCURVE",
"500 690 OFFCURVE",
"413 690 CURVE SMOOTH",
"352 690 OFFCURVE",
"282 700 OFFCURVE",
"230 700 CURVE SMOOTH",
"122 700 OFFCURVE",
"51 656 OFFCURVE",
"37 597 CURVE SMOOTH",
"36 593 OFFCURVE",
"35 587 OFFCURVE",
"35 582 CURVE SMOOTH",
"35 576 OFFCURVE",
"37 572 OFFCURVE",
"42 572 CURVE SMOOTH",
"58 572 OFFCURVE",
"79 613 OFFCURVE",
"167 613 CURVE SMOOTH",
"173 613 LINE",
"102 189 LINE SMOOTH",
"88 108 OFFCURVE",
"79 96 OFFCURVE",
"52 66 CURVE SMOOTH",
"35 47 OFFCURVE",
"26 27 OFFCURVE",
"26 13 CURVE SMOOTH",
"26 3 OFFCURVE",
"30 0 OFFCURVE",
"36 0 CURVE SMOOTH"
);
}
);
width = 515;
},
{
anchors = (
{
name = bottom;
position = "{218, 0}";
},
{
name = ogonek;
position = "{377, 38}";
},
{
name = top;
position = "{373, 700}";
},
{
name = topleft;
position = "{67, 617}";
}
);
background = {
anchors = (
{
name = bottom;
position = "{218, 0}";
},
{
name = ogonek;
position = "{377, 38}";
},
{
name = top;
position = "{373, 700}";
},
{
name = topleft;
position = "{67, 617}";
}
);
paths = (
{
closed = 1;
nodes = (
"55 0 OFFCURVE",
"72 17 OFFCURVE",
"106 17 CURVE SMOOTH",
"139 17 OFFCURVE",
"216 0 OFFCURVE",
"264 0 CURVE SMOOTH",
"356 0 OFFCURVE",
"447 61 OFFCURVE",
"447 102 CURVE SMOOTH",
"447 108 OFFCURVE",
"445 113 OFFCURVE",
"440 113 CURVE SMOOTH",
"437 113 OFFCURVE",
"433 111 OFFCURVE",
"427 107 CURVE SMOOTH",
"386 81 OFFCURVE",
"331 64 OFFCURVE",
"268 64 CURVE SMOOTH",
"234 64 OFFCURVE",
"189 69 OFFCURVE",
"160 76 CURVE",
"160 77 LINE",
"169 87 OFFCURVE",
"179 111 OFFCURVE",
"183 135 CURVE SMOOTH",
"216 332 LINE",
"250 332 LINE SMOOTH",
"296 332 OFFCURVE",
"325 320 OFFCURVE",
"343 320 CURVE SMOOTH",
"381 320 OFFCURVE",
"423 375 OFFCURVE",
"423 388 CURVE SMOOTH",
"423 392 OFFCURVE",
"418 394 OFFCURVE",
"414 394 CURVE SMOOTH",
"225 394 LINE",
"264 637 LINE",
"302 637 OFFCURVE",
"356 630 OFFCURVE",
"394 630 CURVE SMOOTH",
"497 630 OFFCURVE",
"537 683 OFFCURVE",
"537 702 CURVE SMOOTH",
"537 707 OFFCURVE",
"535 710 OFFCURVE",
"529 710 CURVE SMOOTH",
"515 710 OFFCURVE",
"495 690 OFFCURVE",
"412 690 CURVE SMOOTH",
"353 690 OFFCURVE",
"281 700 OFFCURVE",
"227 700 CURVE SMOOTH",
"119 700 OFFCURVE",
"63 659 OFFCURVE",
"52 614 CURVE SMOOTH",
"51 610 OFFCURVE",
"51 608 OFFCURVE",
"51 604 CURVE SMOOTH",
"51 600 OFFCURVE",
"53 595 OFFCURVE",
"58 595 CURVE SMOOTH",
"70 595 OFFCURVE",
"84 636 OFFCURVE",
"184 636 CURVE SMOOTH",
"189 636 LINE",
"114 176 LINE SMOOTH",
"100 90 OFFCURVE",
"90 78 OFFCURVE",
"59 49 CURVE SMOOTH",
"45 36 OFFCURVE",
"36 22 OFFCURVE",
"36 8 CURVE SMOOTH",
"36 3 OFFCURVE",
"37 0 OFFCURVE",
"42 0 CURVE SMOOTH"
);
}
);
};
layerId = "0B1DFD06-3317-40CA-B510-4969A0718C16";
paths = (
{
closed = 1;
nodes = (
"55 0 OFFCURVE",
"72 17 OFFCURVE",
"106 17 CURVE SMOOTH",
"139 17 OFFCURVE",
"216 0 OFFCURVE",
"264 0 CURVE SMOOTH",
"356 0 OFFCURVE",
"447 61 OFFCURVE",
"447 102 CURVE SMOOTH",
"447 108 OFFCURVE",
"445 113 OFFCURVE",
"440 113 CURVE SMOOTH",
"437 113 OFFCURVE",
"433 111 OFFCURVE",
"427 107 CURVE SMOOTH",
"386 81 OFFCURVE",
"331 64 OFFCURVE",
"268 64 CURVE SMOOTH",
"234 64 OFFCURVE",
"189 69 OFFCURVE",
"160 76 CURVE",
"160 77 LINE",
"169 87 OFFCURVE",
"179 111 OFFCURVE",
"183 135 CURVE SMOOTH",
"216 332 LINE",
"250 332 LINE SMOOTH",
"296 332 OFFCURVE",
"325 320 OFFCURVE",
"343 320 CURVE SMOOTH",
"381 320 OFFCURVE",
"423 375 OFFCURVE",
"423 388 CURVE SMOOTH",
"423 392 OFFCURVE",
"418 394 OFFCURVE",
"414 394 CURVE SMOOTH",
"225 394 LINE",
"264 637 LINE",
"302 637 OFFCURVE",
"356 630 OFFCURVE",
"394 630 CURVE SMOOTH",
"497 630 OFFCURVE",
"537 683 OFFCURVE",
"537 702 CURVE SMOOTH",
"537 707 OFFCURVE",
"535 710 OFFCURVE",
"529 710 CURVE SMOOTH",
"515 710 OFFCURVE",
"495 690 OFFCURVE",
"412 690 CURVE SMOOTH",
"353 690 OFFCURVE",
"281 700 OFFCURVE",
"227 700 CURVE SMOOTH",
"119 700 OFFCURVE",
"63 659 OFFCURVE",
"52 614 CURVE SMOOTH",
"51 610 OFFCURVE",
"51 608 OFFCURVE",
"51 604 CURVE SMOOTH",
"51 600 OFFCURVE",
"53 595 OFFCURVE",
"58 595 CURVE SMOOTH",
"70 595 OFFCURVE",
"84 636 OFFCURVE",
"184 636 CURVE SMOOTH",
"189 636 LINE",
"114 176 LINE SMOOTH",
"100 90 OFFCURVE",
"90 78 OFFCURVE",
"59 49 CURVE SMOOTH",
"45 36 OFFCURVE",
"36 22 OFFCURVE",
"36 8 CURVE SMOOTH",
"36 3 OFFCURVE",
"37 0 OFFCURVE",
"42 0 CURVE SMOOTH"
);
}
);
width = 515;
}
);
leftKerningGroup = E;
note = E;
rightKerningGroup = E;
unicode = 0045;
},
{
glyphname = F;
lastChange = "2018-05-23 06:41:33 +0000";
layers = (
{
anchors = (
{
name = bottom;
position = "{129, 0}";
},
{
name = top;
position = "{367, 700}";
}
);
background = {
paths = (
{
closed = 1;
nodes = (
"53 0 OFFCURVE",
"71 16 OFFCURVE",
"106 16 CURVE SMOOTH",
"138 16 OFFCURVE",
"169 0 OFFCURVE",
"197 0 CURVE SMOOTH",
"221 0 OFFCURVE",
"240 11 OFFCURVE",
"275 53 CURVE SMOOTH",
"284 64 OFFCURVE",
"287 71 OFFCURVE",
"287 80 CURVE SMOOTH",
"287 85 OFFCURVE",
"284 89 OFFCURVE",
"279 89 CURVE SMOOTH",
"268 89 OFFCURVE",
"257 78 OFFCURVE",
"231 78 CURVE SMOOTH",
"219 78 OFFCURVE",
"204 81 OFFCURVE",
"192 87 CURVE",
"192 88 LINE",
"203 98 OFFCURVE",
"212 115 OFFCURVE",
"215 133 CURVE SMOOTH",
"244 305 LINE",
"278 305 LINE SMOOTH",
"328 305 OFFCURVE",
"357 293 OFFCURVE",
"387 293 CURVE SMOOTH",
"417 293 OFFCURVE",
"462 356 OFFCURVE",
"462 370 CURVE SMOOTH",
"462 378 OFFCURVE",
"458 382 OFFCURVE",
"450 382 CURVE SMOOTH",
"257 382 LINE",
"295 610 LINE",
"360 610 OFFCURVE",
"391 602 OFFCURVE",
"436 602 CURVE SMOOTH",
"510 602 OFFCURVE",
"562 664 OFFCURVE",
"562 697 CURVE SMOOTH",
"562 705 OFFCURVE",
"557 710 OFFCURVE",
"549 710 CURVE SMOOTH",
"537 710 OFFCURVE",
"501 690 OFFCURVE",
"441 690 CURVE SMOOTH",
"350 690 OFFCURVE",
"310 700 OFFCURVE",
"239 700 CURVE SMOOTH",
"143 700 OFFCURVE",
"68 659 OFFCURVE",
"52 597 CURVE SMOOTH",
"51 593 OFFCURVE",
"50 588 OFFCURVE",
"50 584 CURVE SMOOTH",
"50 576 OFFCURVE",
"53 572 OFFCURVE",
"59 572 CURVE SMOOTH",
"71 572 OFFCURVE",
"100 613 OFFCURVE",
"183 613 CURVE SMOOTH",
"188 613 LINE",
"115 177 LINE SMOOTH",
"104 110 OFFCURVE",
"94 87 OFFCURVE",
"68 65 CURVE SMOOTH",
"49 48 OFFCURVE",
"36 30 OFFCURVE",
"36 10 CURVE SMOOTH",
"36 4 OFFCURVE",
"39 0 OFFCURVE",
"44 0 CURVE SMOOTH"
);
}
);
};
layerId = "56450C88-1299-454A-B666-E6F9AF06B23F";
paths = (
{
closed = 1;
nodes = (
"43 0 OFFCURVE",
"62 16 OFFCURVE",
"96 16 CURVE SMOOTH",
"129 16 OFFCURVE",
"159 0 OFFCURVE",
"186 0 CURVE SMOOTH",
"208 0 OFFCURVE",
"232 10 OFFCURVE",
"265 53 CURVE SMOOTH",
"272 62 OFFCURVE",
"277 70 OFFCURVE",
"277 80 CURVE SMOOTH",
"277 86 OFFCURVE",
"275 89 OFFCURVE",
"269 89 CURVE SMOOTH",
"258 89 OFFCURVE",
"246 78 OFFCURVE",
"222 78 CURVE SMOOTH",
"209 78 OFFCURVE",
"194 81 OFFCURVE",
"182 87 CURVE",
"182 88 LINE",
"193 98 OFFCURVE",
"202 115 OFFCURVE",
"205 133 CURVE SMOOTH",
"234 305 LINE",
"268 305 LINE SMOOTH",
"315 305 OFFCURVE",
"354 293 OFFCURVE",
"372 293 CURVE SMOOTH",
"413 293 OFFCURVE",
"452 360 OFFCURVE",
"452 373 CURVE SMOOTH",
"452 377 OFFCURVE",
"448 382 OFFCURVE",
"442 382 CURVE SMOOTH",
"247 382 LINE",
"285 610 LINE",
"346 610 OFFCURVE",
"389 604 OFFCURVE",
"417 604 CURVE SMOOTH",
"511 604 OFFCURVE",
"552 671 OFFCURVE",
"552 700 CURVE SMOOTH",
"552 707 OFFCURVE",
"549 710 OFFCURVE",
"542 710 CURVE SMOOTH",
"524 710 OFFCURVE",
"505 690 OFFCURVE",
"418 690 CURVE SMOOTH",
"357 690 OFFCURVE",
"287 700 OFFCURVE",
"235 700 CURVE SMOOTH",
"127 700 OFFCURVE",
"56 656 OFFCURVE",
"42 597 CURVE SMOOTH",
"41 593 OFFCURVE",
"40 587 OFFCURVE",
"40 582 CURVE SMOOTH",
"40 576 OFFCURVE",
"42 572 OFFCURVE",
"47 572 CURVE SMOOTH",
"63 572 OFFCURVE",
"84 613 OFFCURVE",
"172 613 CURVE SMOOTH",
"178 613 LINE",
"105 177 LINE SMOOTH",
"92 101 OFFCURVE",
"85 91 OFFCURVE",
"58 65 CURVE SMOOTH",
"40 48 OFFCURVE",
"26 31 OFFCURVE",
"26 12 CURVE SMOOTH",
"26 3 OFFCURVE",
"29 0 OFFCURVE",
"33 0 CURVE SMOOTH"
);
}
);
width = 510;
},
{
anchors = (
{
name = bottom;
position = "{115, 0}";
},
{
name = top;
position = "{360, 700}";
}
);
background = {
anchors = (
{
name = bottom;
position = "{115, 0}";
},
{
name = top;
position = "{360, 700}";
}
);
paths = (
{
closed = 1;
nodes = (
"49 0 OFFCURVE",
"67 17 OFFCURVE",
"92 17 CURVE SMOOTH",
"117 17 OFFCURVE",
"147 0 OFFCURVE",
"167 0 CURVE SMOOTH",
"179 0 OFFCURVE",
"199 6 OFFCURVE",
"233 41 CURVE SMOOTH",
"244 52 OFFCURVE",
"246 58 OFFCURVE",
"246 62 CURVE SMOOTH",
"246 67 OFFCURVE",
"243 70 OFFCURVE",
"239 70 CURVE SMOOTH",
"230 70 OFFCURVE",
"220 59 OFFCURVE",
"198 59 CURVE SMOOTH",
"186 59 OFFCURVE",
"173 62 OFFCURVE",
"158 68 CURVE",
"158 69 LINE",
"168 79 OFFCURVE",
"176 94 OFFCURVE",
"179 111 CURVE SMOOTH",
"214 315 LINE",
"248 315 LINE SMOOTH",
"294 315 OFFCURVE",
"323 303 OFFCURVE",
"341 303 CURVE SMOOTH",
"379 303 OFFCURVE",
"421 358 OFFCURVE",
"421 371 CURVE SMOOTH",
"421 375 OFFCURVE",
"416 377 OFFCURVE",
"412 377 CURVE SMOOTH",
"223 377 LINE",
"265 637 LINE",
"303 637 OFFCURVE",
"357 630 OFFCURVE",
"395 630 CURVE SMOOTH",
"498 630 OFFCURVE",
"538 683 OFFCURVE",
"538 702 CURVE SMOOTH",
"538 707 OFFCURVE",
"536 710 OFFCURVE",
"530 710 CURVE SMOOTH",
"516 710 OFFCURVE",
"496 690 OFFCURVE",
"413 690 CURVE SMOOTH",
"354 690 OFFCURVE",
"282 700 OFFCURVE",
"228 700 CURVE SMOOTH",
"120 700 OFFCURVE",
"64 659 OFFCURVE",
"53 614 CURVE SMOOTH",
"52 610 OFFCURVE",
"52 608 OFFCURVE",
"52 604 CURVE SMOOTH",
"52 600 OFFCURVE",
"54 595 OFFCURVE",
"59 595 CURVE SMOOTH",
"71 595 OFFCURVE",
"85 636 OFFCURVE",
"185 636 CURVE SMOOTH",
"190 636 LINE",
"115 177 LINE SMOOTH",
"100 88 OFFCURVE",
"99 87 OFFCURVE",
"58 51 CURVE SMOOTH",
"41 36 OFFCURVE",
"36 21 OFFCURVE",
"36 9 CURVE SMOOTH",
"36 4 OFFCURVE",
"37 0 OFFCURVE",
"41 0 CURVE SMOOTH"
);
}
);
};
layerId = "0B1DFD06-3317-40CA-B510-4969A0718C16";
paths = (
{
closed = 1;
nodes = (
"49 0 OFFCURVE",
"67 17 OFFCURVE",
"92 17 CURVE SMOOTH",
"117 17 OFFCURVE",
"147 0 OFFCURVE",
"167 0 CURVE SMOOTH",
"179 0 OFFCURVE",
"199 6 OFFCURVE",
"233 41 CURVE SMOOTH",
"244 52 OFFCURVE",
"246 58 OFFCURVE",
"246 62 CURVE SMOOTH",
"246 67 OFFCURVE",
"243 70 OFFCURVE",
"239 70 CURVE SMOOTH",
"230 70 OFFCURVE",
"220 59 OFFCURVE",
"198 59 CURVE SMOOTH",
"186 59 OFFCURVE",
"173 62 OFFCURVE",
"158 68 CURVE",
"158 69 LINE",
"168 79 OFFCURVE",
"176 94 OFFCURVE",
"179 111 CURVE SMOOTH",
"214 315 LINE",
"248 315 LINE SMOOTH",
"294 315 OFFCURVE",
"323 303 OFFCURVE",
"341 303 CURVE SMOOTH",
"379 303 OFFCURVE",
"421 358 OFFCURVE",
"421 371 CURVE SMOOTH",
"421 375 OFFCURVE",
"416 377 OFFCURVE",
"412 377 CURVE SMOOTH",
"223 377 LINE",
"265 637 LINE",
"303 637 OFFCURVE",
"357 630 OFFCURVE",
"395 630 CURVE SMOOTH",
"498 630 OFFCURVE",
"538 683 OFFCURVE",
"538 702 CURVE SMOOTH",
"538 707 OFFCURVE",
"536 710 OFFCURVE",
"530 710 CURVE SMOOTH",
"516 710 OFFCURVE",
"496 690 OFFCURVE",
"413 690 CURVE SMOOTH",
"354 690 OFFCURVE",
"282 700 OFFCURVE",
"228 700 CURVE SMOOTH",
"120 700 OFFCURVE",
"64 659 OFFCURVE",
"53 614 CURVE SMOOTH",
"52 610 OFFCURVE",
"52 608 OFFCURVE",
"52 604 CURVE SMOOTH",
"52 600 OFFCURVE",
"54 595 OFFCURVE",
"59 595 CURVE SMOOTH",
"71 595 OFFCURVE",
"85 636 OFFCURVE",
"185 636 CURVE SMOOTH",
"190 636 LINE",
"115 177 LINE SMOOTH",
"100 88 OFFCURVE",
"99 87 OFFCURVE",
"58 51 CURVE SMOOTH",
"41 36 OFFCURVE",
"36 21 OFFCURVE",
"36 9 CURVE SMOOTH",
"36 4 OFFCURVE",
"37 0 OFFCURVE",
"41 0 CURVE SMOOTH"
);
}
);
width = 506;
}
);
leftKerningGroup = E;
note = F;
unicode = 0046;
},
{
glyphname = G;
lastChange = "2018-05-23 06:41:33 +0000";
layers = (
{
anchors = (
{
name = bottom;
position = "{248, -250}";
},
{
name = top;
position = "{416, 700}";
}
);
background = {
paths = (
{
closed = 1;
nodes = (
"382 -258 OFFCURVE",
"474 -145 OFFCURVE",
"509 71 CURVE",
"536 306 LINE SMOOTH",
"545 361 OFFCURVE",
"563 369 OFFCURVE",
"563 384 CURVE SMOOTH",
"563 392 OFFCURVE",
"559 398 OFFCURVE",
"544 398 CURVE SMOOTH",
"492 398 OFFCURVE",
"446 352 OFFCURVE",
"441 314 CURVE SMOOTH",
"420 163 LINE",
"397 120 OFFCURVE",
"352 92 OFFCURVE",
"308 92 CURVE SMOOTH",
"224 92 OFFCURVE",
"182 145 OFFCURVE",
"182 265 CURVE SMOOTH",
"182 486 OFFCURVE",
"273 634 OFFCURVE",
"409 634 CURVE SMOOTH",
"463 634 OFFCURVE",
"496 613 OFFCURVE",
"504 572 CURVE SMOOTH",
"511 537 OFFCURVE",
"513 526 OFFCURVE",
"530 526 CURVE SMOOTH",
"544 526 OFFCURVE",
"556 543 OFFCURVE",
"564 557 CURVE SMOOTH",
"577 580 OFFCURVE",
"583 599 OFFCURVE",
"583 624 CURVE SMOOTH",
"583 678 OFFCURVE",
"529 710 OFFCURVE",
"433 710 CURVE SMOOTH",
"260 710 OFFCURVE",
"62 537 OFFCURVE",
"62 235 CURVE SMOOTH",
"62 81 OFFCURVE",
"137 0 OFFCURVE",
"263 0 CURVE SMOOTH",
"312 0 OFFCURVE",
"371 26 OFFCURVE",
"406 63 CURVE",
"399 12 LINE SMOOTH",
"379 -134 OFFCURVE",
"350 -184 OFFCURVE",
"285 -184 CURVE SMOOTH",
"233 -184 OFFCURVE",
"200 -155 OFFCURVE",
"182 -93 CURVE SMOOTH",
"174 -65 OFFCURVE",
"95 -146 OFFCURVE",
"95 -178 CURVE SMOOTH",
"95 -216 OFFCURVE",
"154 -258 OFFCURVE",
"243 -258 CURVE SMOOTH"
);
}
);
};
layerId = "56450C88-1299-454A-B666-E6F9AF06B23F";
paths = (
{
closed = 1;
nodes = (
"377 -258 OFFCURVE",
"465 -138 OFFCURVE",
"499 71 CURVE SMOOTH",
"526 306 LINE SMOOTH",
"532 363 OFFCURVE",
"553 370 OFFCURVE",
"553 387 CURVE SMOOTH",
"553 395 OFFCURVE",
"548 398 OFFCURVE",
"537 398 CURVE SMOOTH",
"501 398 OFFCURVE",
"439 368 OFFCURVE",
"431 313 CURVE SMOOTH",
"410 163 LINE",
"385 119 OFFCURVE",
"347 92 OFFCURVE",
"291 92 CURVE SMOOTH",
"213 92 OFFCURVE",
"172 144 OFFCURVE",
"172 279 CURVE SMOOTH",
"172 477 OFFCURVE",
"260 634 OFFCURVE",
"402 634 CURVE SMOOTH",
"449 634 OFFCURVE",
"485 617 OFFCURVE",
"496 572 CURVE SMOOTH",
"501 552 OFFCURVE",
"500 526 OFFCURVE",
"518 526 CURVE SMOOTH",
"533 526 OFFCURVE",
"544 543 OFFCURVE",
"552 557 CURVE SMOOTH",
"565 580 OFFCURVE",
"573 600 OFFCURVE",
"573 621 CURVE SMOOTH",
"573 678 OFFCURVE",
"516 710 OFFCURVE",
"434 710 CURVE SMOOTH",
"229 710 OFFCURVE",
"52 511 OFFCURVE",
"52 249 CURVE SMOOTH",
"52 79 OFFCURVE",
"127 0 OFFCURVE",
"243 0 CURVE SMOOTH",
"315 0 OFFCURVE",
"363 30 OFFCURVE",
"396 63 CURVE",
"389 12 LINE SMOOTH",
"369 -135 OFFCURVE",
"342 -184 OFFCURVE",
"275 -184 CURVE SMOOTH",
"204 -184 OFFCURVE",
"184 -130 OFFCURVE",
"172 -93 CURVE SMOOTH",
"171 -89 OFFCURVE",
"169 -87 OFFCURVE",
"165 -87 CURVE SMOOTH",
"143 -87 OFFCURVE",
"85 -149 OFFCURVE",
"85 -181 CURVE SMOOTH",
"85 -214 OFFCURVE",
"144 -258 OFFCURVE",
"232 -258 CURVE SMOOTH"
);
}
);
width = 595;
},
{
anchors = (
{
name = bottom;
position = "{236, -250}";
},
{
name = top;
position = "{434, 700}";
}
);
background = {
anchors = (
{
name = bottom;
position = "{236, -250}";
},
{
name = top;
position = "{434, 700}";
}
);
paths = (
{
closed = 1;
nodes = (
"350 -258 OFFCURVE",
"439 -143 OFFCURVE",
"472 61 CURVE",
"504 319 LINE SMOOTH",
"510 367 OFFCURVE",
"529 376 OFFCURVE",
"529 384 CURVE SMOOTH",
"529 388 OFFCURVE",
"525 390 OFFCURVE",
"518 390 CURVE SMOOTH",
"487 390 OFFCURVE",
"445 349 OFFCURVE",
"441 316 CURVE SMOOTH",
"421 168 LINE",
"385 94 OFFCURVE",
"327 70 OFFCURVE",
"279 70 CURVE SMOOTH",
"199 70 OFFCURVE",
"148 136 OFFCURVE",
"148 267 CURVE SMOOTH",
"148 420 OFFCURVE",
"218 656 OFFCURVE",
"393 656 CURVE SMOOTH",
"452 656 OFFCURVE",
"489 629 OFFCURVE",
"496 582 CURVE SMOOTH",
"499 562 OFFCURVE",
"501 548 OFFCURVE",
"513 548 CURVE SMOOTH",
"520 548 OFFCURVE",
"525 553 OFFCURVE",
"532 563 CURVE SMOOTH",
"554 595 OFFCURVE",
"555 621 OFFCURVE",
"555 628 CURVE SMOOTH",
"555 686 OFFCURVE",
"484 710 OFFCURVE",
"424 710 CURVE SMOOTH",
"260 710 OFFCURVE",
"62 534 OFFCURVE",
"62 251 CURVE SMOOTH",
"62 85 OFFCURVE",
"130 0 OFFCURVE",
"233 0 CURVE SMOOTH",
"287 0 OFFCURVE",
"347 24 OFFCURVE",
"406 81 CURVE",
"393 -1 LINE SMOOTH",
"369 -152 OFFCURVE",
"336 -206 OFFCURVE",
"266 -206 CURVE SMOOTH",
"219 -206 OFFCURVE",
"186 -182 OFFCURVE",
"163 -114 CURVE SMOOTH",
"161 -108 OFFCURVE",
"159 -105 OFFCURVE",
"155 -105 CURVE SMOOTH",
"137 -105 OFFCURVE",
"92 -155 OFFCURVE",
"92 -189 CURVE SMOOTH",
"92 -228 OFFCURVE",
"152 -258 OFFCURVE",
"219 -258 CURVE SMOOTH"
);
}
);
};
layerId = "0B1DFD06-3317-40CA-B510-4969A0718C16";
paths = (
{
closed = 1;
nodes = (
"350 -258 OFFCURVE",
"439 -143 OFFCURVE",
"472 61 CURVE",
"504 319 LINE SMOOTH",
"510 367 OFFCURVE",
"529 376 OFFCURVE",
"529 384 CURVE SMOOTH",
"529 388 OFFCURVE",
"525 390 OFFCURVE",
"518 390 CURVE SMOOTH",
"487 390 OFFCURVE",
"445 349 OFFCURVE",
"441 316 CURVE SMOOTH",
"421 168 LINE",
"385 94 OFFCURVE",
"327 70 OFFCURVE",
"279 70 CURVE SMOOTH",
"199 70 OFFCURVE",
"148 136 OFFCURVE",
"148 267 CURVE SMOOTH",
"148 420 OFFCURVE",
"218 656 OFFCURVE",
"393 656 CURVE SMOOTH",
"452 656 OFFCURVE",
"489 629 OFFCURVE",
"496 582 CURVE SMOOTH",
"499 562 OFFCURVE",
"501 548 OFFCURVE",
"513 548 CURVE SMOOTH",
"520 548 OFFCURVE",
"525 553 OFFCURVE",
"532 563 CURVE SMOOTH",
"554 595 OFFCURVE",
"555 621 OFFCURVE",
"555 628 CURVE SMOOTH",
"555 686 OFFCURVE",
"484 710 OFFCURVE",
"424 710 CURVE SMOOTH",
"260 710 OFFCURVE",
"62 534 OFFCURVE",
"62 251 CURVE SMOOTH",
"62 85 OFFCURVE",
"130 0 OFFCURVE",
"233 0 CURVE SMOOTH",
"287 0 OFFCURVE",
"347 24 OFFCURVE",
"406 81 CURVE",
"393 -1 LINE SMOOTH",
"369 -152 OFFCURVE",
"336 -206 OFFCURVE",
"266 -206 CURVE SMOOTH",
"219 -206 OFFCURVE",
"186 -182 OFFCURVE",
"163 -114 CURVE SMOOTH",
"161 -108 OFFCURVE",
"159 -105 OFFCURVE",
"155 -105 CURVE SMOOTH",
"137 -105 OFFCURVE",
"92 -155 OFFCURVE",
"92 -189 CURVE SMOOTH",
"92 -228 OFFCURVE",
"152 -258 OFFCURVE",
"219 -258 CURVE SMOOTH"
);
}
);
width = 587;
}
);
leftKerningGroup = C;
note = G;
rightKerningGroup = G;
unicode = 0047;
},
{
glyphname = H;
lastChange = "2018-05-23 06:41:33 +0000";
layers = (
{
anchors = (
{
name = bottom;
position = "{319, 0}";
},
{
name = center;
position = "{370, 350}";
},
{
name = top;
position = "{421, 700}";
}
);
background = {
paths = (
{
closed = 1;
nodes = (
"573 -10 OFFCURVE",
"658 76 OFFCURVE",
"658 122 CURVE SMOOTH",
"658 130 OFFCURVE",
"655 134 OFFCURVE",
"648 134 CURVE SMOOTH",
"635 134 OFFCURVE",
"612 90 OFFCURVE",
"576 90 CURVE SMOOTH",
"563 90 OFFCURVE",
"560 101 OFFCURVE",
"565 131 CURVE SMOOTH",
"635 579 LINE SMOOTH",
"664 760 OFFCURVE",
"710 822 OFFCURVE",
"817 822 CURVE SMOOTH",
"852 822 OFFCURVE",
"895 851 OFFCURVE",
"895 880 CURVE SMOOTH",
"895 888 OFFCURVE",
"892 895 OFFCURVE",
"883 895 CURVE SMOOTH",
"880 895 OFFCURVE",
"877 894 OFFCURVE",
"872 892 CURVE SMOOTH",
"864 889 OFFCURVE",
"853 885 OFFCURVE",
"833 885 CURVE SMOOTH",
"653 885 OFFCURVE",
"564 790 OFFCURVE",
"522 552 CURVE SMOOTH",
"498 415 LINE",
"280 415 LINE",
"302 555 LINE SMOOTH",
"309 602 OFFCURVE",
"324 656 OFFCURVE",
"340 700 CURVE",
"320 700 OFFCURVE",
"301 695 OFFCURVE",
"269 695 CURVE SMOOTH",
"235 695 OFFCURVE",
"209 700 OFFCURVE",
"184 700 CURVE SMOOTH",
"104 700 OFFCURVE",
"52 662 OFFCURVE",
"34 589 CURVE SMOOTH",
"33 585 OFFCURVE",
"32 578 OFFCURVE",
"32 574 CURVE SMOOTH",
"32 567 OFFCURVE",
"35 562 OFFCURVE",
"40 562 CURVE SMOOTH",
"46 562 OFFCURVE",
"52 569 OFFCURVE",
"59 579 CURVE SMOOTH",
"77 604 OFFCURVE",
"103 615 OFFCURVE",
"145 615 CURVE SMOOTH",
"176 615 OFFCURVE",
"192 610 OFFCURVE",
"205 610 CURVE",
"134 177 LINE SMOOTH",
"123 110 OFFCURVE",
"113 87 OFFCURVE",
"87 65 CURVE SMOOTH",
"68 49 OFFCURVE",
"55 30 OFFCURVE",
"55 10 CURVE SMOOTH",
"55 4 OFFCURVE",
"58 0 OFFCURVE",
"63 0 CURVE SMOOTH",
"72 0 OFFCURVE",
"90 16 OFFCURVE",
"125 16 CURVE SMOOTH",
"157 16 OFFCURVE",
"187 0 OFFCURVE",
"215 0 CURVE SMOOTH",
"239 0 OFFCURVE",
"256 11 OFFCURVE",
"288 53 CURVE SMOOTH",
"296 64 OFFCURVE",
"300 71 OFFCURVE",
"300 80 CURVE SMOOTH",
"300 85 OFFCURVE",
"297 89 OFFCURVE",
"292 89 CURVE SMOOTH",
"280 89 OFFCURVE",
"272 78 OFFCURVE",
"247 78 CURVE SMOOTH",
"233 78 OFFCURVE",
"218 81 OFFCURVE",
"210 85 CURVE",
"210 86 LINE",
"221 96 OFFCURVE",
"230 113 OFFCURVE",
"233 131 CURVE SMOOTH",
"267 328 LINE",
"484 328 LINE",
"451 105 LINE SMOOTH",
"439 24 OFFCURVE",
"462 -10 OFFCURVE",
"500 -10 CURVE SMOOTH"
);
}
);
};
layerId = "56450C88-1299-454A-B666-E6F9AF06B23F";
paths = (
{
closed = 1;
nodes = (
"561 -10 OFFCURVE",
"648 78 OFFCURVE",
"648 123 CURVE SMOOTH",
"648 130 OFFCURVE",
"646 134 OFFCURVE",
"641 134 CURVE SMOOTH",
"625 134 OFFCURVE",
"601 90 OFFCURVE",
"567 90 CURVE SMOOTH",
"555 90 OFFCURVE",
"549 96 OFFCURVE",
"555 131 CURVE SMOOTH",
"625 579 LINE SMOOTH",
"665 833 OFFCURVE",
"744 812 OFFCURVE",
"807 822 CURVE SMOOTH",
"866 831 OFFCURVE",
"885 864 OFFCURVE",
"885 884 CURVE SMOOTH",
"885 891 OFFCURVE",
"883 895 OFFCURVE",
"877 895 CURVE SMOOTH",
"872 895 OFFCURVE",
"869 892 OFFCURVE",
"857 889 CURVE SMOOTH",
"848 886 OFFCURVE",
"834 885 OFFCURVE",
"823 885 CURVE SMOOTH",
"640 878 OFFCURVE",
"555 799 OFFCURVE",
"512 552 CURVE SMOOTH",
"488 414 LINE",
"270 414 LINE",
"292 555 LINE SMOOTH",
"300 608 OFFCURVE",
"316 661 OFFCURVE",
"330 700 CURVE",
"310 700 OFFCURVE",
"292 695 OFFCURVE",
"259 695 CURVE SMOOTH",
"225 695 OFFCURVE",
"200 700 OFFCURVE",
"173 700 CURVE SMOOTH",
"93 700 OFFCURVE",
"37 656 OFFCURVE",
"24 589 CURVE SMOOTH",
"23 583 OFFCURVE",
"22 578 OFFCURVE",
"22 573 CURVE SMOOTH",
"22 565 OFFCURVE",
"25 562 OFFCURVE",
"30 562 CURVE SMOOTH",
"36 562 OFFCURVE",
"42 569 OFFCURVE",
"50 579 CURVE SMOOTH",
"74 609 OFFCURVE",
"99 616 OFFCURVE",
"135 616 CURVE SMOOTH",
"167 616 OFFCURVE",
"182 610 OFFCURVE",
"195 610 CURVE",
"124 177 LINE SMOOTH",
"111 101 OFFCURVE",
"104 91 OFFCURVE",
"77 65 CURVE SMOOTH",
"61 50 OFFCURVE",
"45 33 OFFCURVE",
"45 12 CURVE SMOOTH",
"45 3 OFFCURVE",
"48 0 OFFCURVE",
"52 0 CURVE SMOOTH",
"62 0 OFFCURVE",
"81 16 OFFCURVE",
"115 16 CURVE SMOOTH",
"148 16 OFFCURVE",
"178 0 OFFCURVE",
"204 0 CURVE SMOOTH",
"226 0 OFFCURVE",
"248 11 OFFCURVE",
"278 53 CURVE SMOOTH",
"286 64 OFFCURVE",
"290 72 OFFCURVE",
"290 80 CURVE SMOOTH",
"290 86 OFFCURVE",
"288 89 OFFCURVE",
"282 89 CURVE SMOOTH",
"270 89 OFFCURVE",
"262 78 OFFCURVE",
"237 78 CURVE SMOOTH",
"223 78 OFFCURVE",
"208 81 OFFCURVE",
"200 85 CURVE",
"200 86 LINE",
"211 96 OFFCURVE",
"220 113 OFFCURVE",
"223 131 CURVE SMOOTH",
"257 328 LINE",
"474 328 LINE",
"441 105 LINE SMOOTH",
"429 23 OFFCURVE",
"451 -10 OFFCURVE",
"493 -10 CURVE SMOOTH"
);
}
);
width = 709;
},
{
anchors = (
{
name = bottom;
position = "{312, 0}";
},
{
name = center;
position = "{364, 350}";
},
{
name = top;
position = "{420, 700}";
}
);
background = {
anchors = (
{
name = bottom;
position = "{312, 0}";
},
{
name = center;
position = "{364, 350}";
},
{
name = top;
position = "{420, 700}";
}
);
paths = (
{
closed = 1;
nodes = (
"509 -10 OFFCURVE",
"604 64 OFFCURVE",
"604 102 CURVE SMOOTH",
"604 109 OFFCURVE",
"601 112 OFFCURVE",
"598 112 CURVE SMOOTH",
"587 112 OFFCURVE",
"561 76 OFFCURVE",
"532 76 CURVE SMOOTH",
"519 76 OFFCURVE",
"515 83 OFFCURVE",
"521 121 CURVE SMOOTH",
"592 583 LINE SMOOTH",
"629 821 OFFCURVE",
"708 832 OFFCURVE",
"790 843 CURVE SMOOTH",
"843 850 OFFCURVE",
"852 880 OFFCURVE",
"852 888 CURVE SMOOTH",
"852 893 OFFCURVE",
"849 895 OFFCURVE",
"844 895 CURVE SMOOTH",
"841 895 OFFCURVE",
"843 894 OFFCURVE",
"837 892 CURVE SMOOTH",
"825 887 OFFCURVE",
"819 887 OFFCURVE",
"806 886 CURVE SMOOTH",
"615 872 OFFCURVE",
"545 753 OFFCURVE",
"511 553 CURVE SMOOTH",
"486 405 LINE",
"244 405 LINE",
"271 578 LINE SMOOTH",
"276 607 OFFCURVE",
"280 644 OFFCURVE",
"298 700 CURVE",
"277 700 OFFCURVE",
"267 696 OFFCURVE",
"238 696 CURVE SMOOTH",
"208 696 OFFCURVE",
"181 700 OFFCURVE",
"159 700 CURVE SMOOTH",
"93 700 OFFCURVE",
"45 664 OFFCURVE",
"33 606 CURVE SMOOTH",
"33 604 OFFCURVE",
"32 604 OFFCURVE",
"32 597 CURVE SMOOTH",
"32 589 OFFCURVE",
"33 585 OFFCURVE",
"37 585 CURVE SMOOTH",
"43 585 OFFCURVE",
"46 593 OFFCURVE",
"53 603 CURVE SMOOTH",
"64 619 OFFCURVE",
"89 640 OFFCURVE",
"137 640 CURVE SMOOTH",
"161 640 OFFCURVE",
"190 635 OFFCURVE",
"205 635 CURVE",
"131 174 LINE SMOOTH",
"118 96 OFFCURVE",
"136 114 OFFCURVE",
"76 51 CURVE SMOOTH",
"61 36 OFFCURVE",
"54 25 OFFCURVE",
"54 10 CURVE SMOOTH",
"54 4 OFFCURVE",
"55 0 OFFCURVE",
"59 0 CURVE SMOOTH",
"67 0 OFFCURVE",
"85 17 OFFCURVE",
"110 17 CURVE SMOOTH",
"135 17 OFFCURVE",
"165 0 OFFCURVE",
"185 0 CURVE SMOOTH",
"193 0 OFFCURVE",
"210 3 OFFCURVE",
"246 41 CURVE SMOOTH",
"257 52 OFFCURVE",
"259 58 OFFCURVE",
"259 62 CURVE SMOOTH",
"259 67 OFFCURVE",
"256 70 OFFCURVE",
"252 70 CURVE SMOOTH",
"243 70 OFFCURVE",
"233 59 OFFCURVE",
"211 59 CURVE SMOOTH",
"199 59 OFFCURVE",
"191 62 OFFCURVE",
"176 68 CURVE",
"176 69 LINE",
"185 79 OFFCURVE",
"192 94 OFFCURVE",
"195 111 CURVE SMOOTH",
"234 338 LINE",
"475 338 LINE",
"439 92 LINE SMOOTH",
"430 28 OFFCURVE",
"444 -10 OFFCURVE",
"471 -10 CURVE SMOOTH"
);
}
);
};
layerId = "0B1DFD06-3317-40CA-B510-4969A0718C16";
paths = (
{
closed = 1;
nodes = (
"509 -10 OFFCURVE",
"604 64 OFFCURVE",
"604 102 CURVE SMOOTH",
"604 109 OFFCURVE",
"601 112 OFFCURVE",
"598 112 CURVE SMOOTH",
"587 112 OFFCURVE",
"561 76 OFFCURVE",
"532 76 CURVE SMOOTH",
"519 76 OFFCURVE",
"515 83 OFFCURVE",
"521 121 CURVE SMOOTH",
"592 583 LINE SMOOTH",
"629 821 OFFCURVE",
"708 832 OFFCURVE",
"790 843 CURVE SMOOTH",
"843 850 OFFCURVE",
"852 880 OFFCURVE",
"852 888 CURVE SMOOTH",
"852 893 OFFCURVE",
"849 895 OFFCURVE",
"844 895 CURVE SMOOTH",
"841 895 OFFCURVE",
"843 894 OFFCURVE",
"837 892 CURVE SMOOTH",
"825 887 OFFCURVE",
"819 887 OFFCURVE",
"806 886 CURVE SMOOTH",
"615 872 OFFCURVE",
"545 753 OFFCURVE",
"511 553 CURVE SMOOTH",
"486 405 LINE",
"244 405 LINE",
"271 578 LINE SMOOTH",
"276 607 OFFCURVE",
"280 644 OFFCURVE",
"298 700 CURVE",
"277 700 OFFCURVE",
"267 696 OFFCURVE",
"238 696 CURVE SMOOTH",
"208 696 OFFCURVE",
"181 700 OFFCURVE",
"159 700 CURVE SMOOTH",
"93 700 OFFCURVE",
"45 664 OFFCURVE",
"33 606 CURVE SMOOTH",
"33 604 OFFCURVE",
"32 604 OFFCURVE",
"32 597 CURVE SMOOTH",
"32 589 OFFCURVE",
"33 585 OFFCURVE",
"37 585 CURVE SMOOTH",
"43 585 OFFCURVE",
"46 593 OFFCURVE",
"53 603 CURVE SMOOTH",
"64 619 OFFCURVE",
"89 640 OFFCURVE",
"137 640 CURVE SMOOTH",
"161 640 OFFCURVE",
"190 635 OFFCURVE",
"205 635 CURVE",
"131 174 LINE SMOOTH",
"118 96 OFFCURVE",
"136 114 OFFCURVE",
"76 51 CURVE SMOOTH",
"61 36 OFFCURVE",
"54 25 OFFCURVE",
"54 10 CURVE SMOOTH",
"54 4 OFFCURVE",
"55 0 OFFCURVE",
"59 0 CURVE SMOOTH",
"67 0 OFFCURVE",
"85 17 OFFCURVE",
"110 17 CURVE SMOOTH",
"135 17 OFFCURVE",
"165 0 OFFCURVE",
"185 0 CURVE SMOOTH",
"193 0 OFFCURVE",
"210 3 OFFCURVE",
"246 41 CURVE SMOOTH",
"257 52 OFFCURVE",
"259 58 OFFCURVE",
"259 62 CURVE SMOOTH",
"259 67 OFFCURVE",
"256 70 OFFCURVE",
"252 70 CURVE SMOOTH",
"243 70 OFFCURVE",
"233 59 OFFCURVE",
"211 59 CURVE SMOOTH",
"199 59 OFFCURVE",
"191 62 OFFCURVE",
"176 68 CURVE",
"176 69 LINE",
"185 79 OFFCURVE",
"192 94 OFFCURVE",
"195 111 CURVE SMOOTH",
"234 338 LINE",
"475 338 LINE",
"439 92 LINE SMOOTH",
"430 28 OFFCURVE",
"444 -10 OFFCURVE",
"471 -10 CURVE SMOOTH"
);
}
);
width = 686;
}
);
leftKerningGroup = H;
note = H;
rightKerningGroup = H;
unicode = 0048;
},
{
glyphname = I;
lastChange = "2018-05-23 06:41:33 +0000";
layers = (
{
anchors = (
{
name = bottom;
position = "{141, 0}";
},
{
name = ogonek;
position = "{245, 10}";
},
{
name = top;
position = "{261, 700}";
},
{
name = topleft;
position = "{100, 661}";
}
);
background = {
paths = (
{
closed = 0;
nodes = (
"296 615 LINE",
"312 618 OFFCURVE",
"324 620 OFFCURVE",
"338 620 CURVE SMOOTH",
"362 620 OFFCURVE",
"371 610 OFFCURVE",
"380 610 CURVE SMOOTH",
"386 610 OFFCURVE",
"388 613 OFFCURVE",
"388 620 CURVE SMOOTH",
"388 633 OFFCURVE",
"379 652 OFFCURVE",
"355 676 CURVE SMOOTH",
"336 695 OFFCURVE",
"324 700 OFFCURVE",
"306 700 CURVE SMOOTH",
"288 700 OFFCURVE",
"208 682 OFFCURVE",
"161 682 CURVE SMOOTH",
"120 682 OFFCURVE",
"110 690 OFFCURVE",
"91 690 CURVE SMOOTH",
"83 690 OFFCURVE",
"81 688 OFFCURVE",
"81 680 CURVE SMOOTH",
"81 662 OFFCURVE",
"114 603 OFFCURVE",
"147 603 CURVE SMOOTH",
"159 603 OFFCURVE",
"178 606 OFFCURVE",
"188 607 CURVE"
);
}
);
};
layerId = "56450C88-1299-454A-B666-E6F9AF06B23F";
paths = (
{
closed = 1;
nodes = (
"47 0 OFFCURVE",
"69 16 OFFCURVE",
"116 16 CURVE SMOOTH",
"162 16 OFFCURVE",
"190 0 OFFCURVE",
"218 0 CURVE SMOOTH",
"241 0 OFFCURVE",
"270 11 OFFCURVE",
"297 50 CURVE SMOOTH",
"308 66 OFFCURVE",
"310 74 OFFCURVE",
"310 80 CURVE SMOOTH",
"310 85 OFFCURVE",
"308 89 OFFCURVE",
"302 89 CURVE SMOOTH",
"293 89 OFFCURVE",
"286 79 OFFCURVE",
"257 79 CURVE SMOOTH",
"241 79 OFFCURVE",
"226 82 OFFCURVE",
"206 85 CURVE",
"206 86 LINE",
"215 94 OFFCURVE",
"226 120 OFFCURVE",
"229 140 CURVE SMOOTH",
"299 628 LINE",
"314 629 OFFCURVE",
"334 629 OFFCURVE",
"349 631 CURVE SMOOTH",
"381 635 OFFCURVE",
"381 644 OFFCURVE",
"399 676 CURVE SMOOTH",
"405 686 OFFCURVE",
"407 691 OFFCURVE",
"407 697 CURVE SMOOTH",
"407 702 OFFCURVE",
"406 706 OFFCURVE",
"400 708 CURVE SMOOTH",
"392 710 OFFCURVE",
"390 705 OFFCURVE",
"331 703 CURVE SMOOTH",
"298 702 OFFCURVE",
"244 699 OFFCURVE",
"170 700 CURVE SMOOTH",
"130 700 OFFCURVE",
"103 681 OFFCURVE",
"85 647 CURVE SMOOTH",
"78 634 OFFCURVE",
"77 626 OFFCURVE",
"77 621 CURVE SMOOTH",
"77 613 OFFCURVE",
"79 610 OFFCURVE",
"85 610 CURVE SMOOTH",
"93 610 OFFCURVE",
"118 617 OFFCURVE",
"153 620 CURVE SMOOTH",
"174 622 OFFCURVE",
"181 621 OFFCURVE",
"191 622 CURVE",
"128 177 LINE SMOOTH",
"122 137 OFFCURVE",
"118 106 OFFCURVE",
"104 95 CURVE SMOOTH",
"96 88 OFFCURVE",
"73 79 OFFCURVE",
"65 75 CURVE SMOOTH",
"41 62 OFFCURVE",
"26 26 OFFCURVE",
"26 10 CURVE SMOOTH",
"26 4 OFFCURVE",
"28 0 OFFCURVE",
"34 0 CURVE SMOOTH"
);
}
);
width = 396;
},
{
anchors = (
{
name = bottom;
position = "{130, 0}";
},
{
name = ogonek;
position = "{209, 6}";
},
{
name = top;
position = "{255, 700}";
},
{
name = topleft;
position = "{113, 671}";
}
);
background = {
anchors = (
{
name = bottom;
position = "{130, 0}";
},
{
name = ogonek;
position = "{209, 6}";
},
{
name = top;
position = "{255, 700}";
},
{
name = topleft;
position = "{113, 671}";
}
);
paths = (
{
closed = 1;
nodes = (
"53 0 OFFCURVE",
"83 16 OFFCURVE",
"113 16 CURVE SMOOTH",
"142 16 OFFCURVE",
"181 0 OFFCURVE",
"203 0 CURVE SMOOTH",
"223 0 OFFCURVE",
"248 13 OFFCURVE",
"272 40 CURVE SMOOTH",
"284 54 OFFCURVE",
"285 58 OFFCURVE",
"285 62 CURVE SMOOTH",
"285 67 OFFCURVE",
"283 70 OFFCURVE",
"279 70 CURVE SMOOTH",
"270 70 OFFCURVE",
"265 58 OFFCURVE",
"239 58 CURVE SMOOTH",
"221 58 OFFCURVE",
"201 64 OFFCURVE",
"183 66 CURVE",
"183 67 LINE",
"192 78 OFFCURVE",
"199 95 OFFCURVE",
"201 108 CURVE SMOOTH",
"278 644 LINE",
"295 644 OFFCURVE",
"312 646 OFFCURVE",
"327 647 CURVE SMOOTH",
"358 649 OFFCURVE",
"363 661 OFFCURVE",
"375 682 CURVE SMOOTH",
"379 689 OFFCURVE",
"381 696 OFFCURVE",
"382 700 CURVE SMOOTH",
"383 706 OFFCURVE",
"380 709 OFFCURVE",
"376 709 CURVE SMOOTH",
"367 709 OFFCURVE",
"358 701 OFFCURVE",
"317 700 CURVE SMOOTH",
"288 699 OFFCURVE",
"220 698 OFFCURVE",
"175 696 CURVE SMOOTH",
"143 695 OFFCURVE",
"124 681 OFFCURVE",
"107 657 CURVE SMOOTH",
"102 650 OFFCURVE",
"99 643 OFFCURVE",
"99 639 CURVE SMOOTH",
"99 633 OFFCURVE",
"101 630 OFFCURVE",
"105 630 CURVE SMOOTH",
"114 630 OFFCURVE",
"130 637 OFFCURVE",
"164 639 CURVE SMOOTH",
"182 640 OFFCURVE",
"184 641 OFFCURVE",
"203 641 CURVE",
"135 164 LINE SMOOTH",
"127 111 OFFCURVE",
"123 86 OFFCURVE",
"104 74 CURVE SMOOTH",
"99 71 OFFCURVE",
"100 71 OFFCURVE",
"75 61 CURVE SMOOTH",
"52 52 OFFCURVE",
"36 23 OFFCURVE",
"36 8 CURVE SMOOTH",
"36 3 OFFCURVE",
"38 0 OFFCURVE",
"42 0 CURVE SMOOTH"
);
}
);
};
layerId = "0B1DFD06-3317-40CA-B510-4969A0718C16";
paths = (
{
closed = 1;
nodes = (
"53 0 OFFCURVE",
"83 16 OFFCURVE",
"113 16 CURVE SMOOTH",
"142 16 OFFCURVE",
"181 0 OFFCURVE",
"203 0 CURVE SMOOTH",
"223 0 OFFCURVE",
"248 13 OFFCURVE",
"272 40 CURVE SMOOTH",
"284 54 OFFCURVE",
"285 58 OFFCURVE",
"285 62 CURVE SMOOTH",
"285 67 OFFCURVE",
"283 70 OFFCURVE",
"279 70 CURVE SMOOTH",
"270 70 OFFCURVE",
"265 58 OFFCURVE",
"239 58 CURVE SMOOTH",
"221 58 OFFCURVE",
"201 64 OFFCURVE",
"183 66 CURVE",
"183 67 LINE",
"192 78 OFFCURVE",
"199 95 OFFCURVE",
"201 108 CURVE SMOOTH",
"278 644 LINE",
"295 644 OFFCURVE",
"312 646 OFFCURVE",
"327 647 CURVE SMOOTH",
"358 649 OFFCURVE",
"363 661 OFFCURVE",
"375 682 CURVE SMOOTH",
"379 689 OFFCURVE",
"381 696 OFFCURVE",
"382 700 CURVE SMOOTH",
"383 706 OFFCURVE",
"380 709 OFFCURVE",
"376 709 CURVE SMOOTH",
"367 709 OFFCURVE",
"358 701 OFFCURVE",
"317 700 CURVE SMOOTH",
"288 699 OFFCURVE",
"220 698 OFFCURVE",
"175 696 CURVE SMOOTH",
"143 695 OFFCURVE",
"124 681 OFFCURVE",
"107 657 CURVE SMOOTH",
"102 650 OFFCURVE",
"99 643 OFFCURVE",
"99 639 CURVE SMOOTH",
"99 633 OFFCURVE",
"101 630 OFFCURVE",
"105 630 CURVE SMOOTH",
"114 630 OFFCURVE",
"130 637 OFFCURVE",
"164 639 CURVE SMOOTH",
"182 640 OFFCURVE",
"184 641 OFFCURVE",
"203 641 CURVE",
"135 164 LINE SMOOTH",
"127 111 OFFCURVE",
"123 86 OFFCURVE",
"104 74 CURVE SMOOTH",
"99 71 OFFCURVE",
"100 71 OFFCURVE",
"75 61 CURVE SMOOTH",
"52 52 OFFCURVE",
"36 23 OFFCURVE",
"36 8 CURVE SMOOTH",
"36 3 OFFCURVE",
"38 0 OFFCURVE",
"42 0 CURVE SMOOTH"
);
}
);
width = 387;
}
);
leftKerningGroup = I;
note = I;
rightKerningGroup = I;
unicode = 0049;
},
{
glyphname = J;
lastChange = "2018-05-23 06:41:33 +0000";
layers = (
{
anchors = (
{
name = bottom;
position = "{91, -212}";
},
{
name = top;
position = "{344, 700}";
}
);
background = {
paths = (
{
closed = 1;
nodes = (
"249 -212 OFFCURVE",
"358 -80 OFFCURVE",
"389 146 CURVE SMOOTH",
"446 555 LINE SMOOTH",
"452 598 OFFCURVE",
"465 652 OFFCURVE",
"482 700 CURVE",
"461 695 OFFCURVE",
"439 690 OFFCURVE",
"408 690 CURVE SMOOTH",
"354 690 OFFCURVE",
"288 700 OFFCURVE",
"243 700 CURVE SMOOTH",
"163 700 OFFCURVE",
"91 662 OFFCURVE",
"73 589 CURVE SMOOTH",
"72 585 OFFCURVE",
"71 578 OFFCURVE",
"71 574 CURVE SMOOTH",
"71 567 OFFCURVE",
"74 562 OFFCURVE",
"79 562 CURVE SMOOTH",
"85 562 OFFCURVE",
"92 571 OFFCURVE",
"101 579 CURVE SMOOTH",
"135 609 OFFCURVE",
"170 614 OFFCURVE",
"220 614 CURVE SMOOTH",
"257 614 OFFCURVE",
"311 599 OFFCURVE",
"340 599 CURVE SMOOTH",
"346 599 LINE",
"273 87 LINE SMOOTH",
"249 -79 OFFCURVE",
"220 -136 OFFCURVE",
"149 -136 CURVE SMOOTH",
"99 -136 OFFCURVE",
"65 -91 OFFCURVE",
"56 -3 CURVE SMOOTH",
"55 7 OFFCURVE",
"53 11 OFFCURVE",
"46 11 CURVE SMOOTH",
"23 11 OFFCURVE",
"-51 -49 OFFCURVE",
"-46 -83 CURVE SMOOTH",
"-34 -165 OFFCURVE",
"33 -212 OFFCURVE",
"101 -212 CURVE SMOOTH"
);
}
);
};
layerId = "56450C88-1299-454A-B666-E6F9AF06B23F";
paths = (
{
closed = 1;
nodes = (
"238 -212 OFFCURVE",
"348 -78 OFFCURVE",
"379 146 CURVE SMOOTH",
"436 555 LINE SMOOTH",
"442 598 OFFCURVE",
"455 652 OFFCURVE",
"472 700 CURVE",
"451 695 OFFCURVE",
"430 690 OFFCURVE",
"396 690 CURVE SMOOTH",
"347 690 OFFCURVE",
"275 700 OFFCURVE",
"234 700 CURVE SMOOTH",
"150 700 OFFCURVE",
"78 658 OFFCURVE",
"63 589 CURVE SMOOTH",
"62 585 OFFCURVE",
"61 578 OFFCURVE",
"61 574 CURVE SMOOTH",
"61 567 OFFCURVE",
"63 562 OFFCURVE",
"68 562 CURVE SMOOTH",
"75 562 OFFCURVE",
"82 571 OFFCURVE",
"91 579 CURVE SMOOTH",
"125 609 OFFCURVE",
"164 614 OFFCURVE",
"199 614 CURVE SMOOTH",
"259 614 OFFCURVE",
"296 599 OFFCURVE",
"330 599 CURVE SMOOTH",
"336 599 LINE",
"263 87 LINE SMOOTH",
"240 -73 OFFCURVE",
"208 -136 OFFCURVE",
"141 -136 CURVE SMOOTH",
"84 -136 OFFCURVE",
"57 -90 OFFCURVE",
"46 -3 CURVE SMOOTH",
"45 7 OFFCURVE",
"43 11 OFFCURVE",
"36 11 CURVE SMOOTH",
"13 11 OFFCURVE",
"-57 -44 OFFCURVE",
"-56 -83 CURVE SMOOTH",
"-55 -109 OFFCURVE",
"-24 -212 OFFCURVE",
"98 -212 CURVE SMOOTH"
);
}
);
width = 478;
},
{
anchors = (
{
name = bottom;
position = "{107, -212}";
},
{
name = top;
position = "{324, 700}";
}
);
background = {
anchors = (
{
name = bottom;
position = "{107, -212}";
},
{
name = top;
position = "{324, 700}";
}
);
paths = (
{
closed = 1;
nodes = (
"224 -212 OFFCURVE",
"317 -91 OFFCURVE",
"352 135 CURVE SMOOTH",
"422 587 LINE SMOOTH",
"427 618 OFFCURVE",
"429 645 OFFCURVE",
"448 700 CURVE",
"427 693 OFFCURVE",
"415 690 OFFCURVE",
"385 690 CURVE SMOOTH",
"329 690 OFFCURVE",
"296 700 OFFCURVE",
"244 700 CURVE SMOOTH",
"148 700 OFFCURVE",
"94 666 OFFCURVE",
"78 596 CURVE SMOOTH",
"77 592 OFFCURVE",
"77 590 OFFCURVE",
"77 586 CURVE SMOOTH",
"77 582 OFFCURVE",
"79 577 OFFCURVE",
"84 577 CURVE SMOOTH",
"89 577 OFFCURVE",
"94 583 OFFCURVE",
"102 593 CURVE SMOOTH",
"119 614 OFFCURVE",
"146 640 OFFCURVE",
"217 640 CURVE SMOOTH",
"272 640 OFFCURVE",
"310 624 OFFCURVE",
"348 624 CURVE SMOOTH",
"354 624 LINE",
"267 74 LINE SMOOTH",
"240 -98 OFFCURVE",
"205 -158 OFFCURVE",
"131 -158 CURVE SMOOTH",
"46 -158 OFFCURVE",
"36 -78 OFFCURVE",
"31 -27 CURVE SMOOTH",
"30 -16 OFFCURVE",
"29 -15 OFFCURVE",
"18 -19 CURVE SMOOTH",
"-11 -30 OFFCURVE",
"-46 -59 OFFCURVE",
"-45 -94 CURVE SMOOTH",
"-44 -129 OFFCURVE",
"-6 -212 OFFCURVE",
"98 -212 CURVE SMOOTH"
);
}
);
};
layerId = "0B1DFD06-3317-40CA-B510-4969A0718C16";
paths = (
{
closed = 1;
nodes = (
"224 -212 OFFCURVE",
"317 -91 OFFCURVE",
"352 135 CURVE SMOOTH",
"422 587 LINE SMOOTH",
"427 618 OFFCURVE",
"429 645 OFFCURVE",
"448 700 CURVE",
"427 693 OFFCURVE",
"415 690 OFFCURVE",
"385 690 CURVE SMOOTH",
"329 690 OFFCURVE",
"296 700 OFFCURVE",
"244 700 CURVE SMOOTH",
"148 700 OFFCURVE",
"94 666 OFFCURVE",
"78 596 CURVE SMOOTH",
"77 592 OFFCURVE",
"77 590 OFFCURVE",
"77 586 CURVE SMOOTH",
"77 582 OFFCURVE",
"79 577 OFFCURVE",
"84 577 CURVE SMOOTH",
"89 577 OFFCURVE",
"94 583 OFFCURVE",
"102 593 CURVE SMOOTH",
"119 614 OFFCURVE",
"146 640 OFFCURVE",
"217 640 CURVE SMOOTH",
"272 640 OFFCURVE",
"310 624 OFFCURVE",
"348 624 CURVE SMOOTH",
"354 624 LINE",
"267 74 LINE SMOOTH",
"240 -98 OFFCURVE",
"205 -158 OFFCURVE",
"131 -158 CURVE SMOOTH",
"46 -158 OFFCURVE",
"36 -78 OFFCURVE",
"31 -27 CURVE SMOOTH",
"30 -16 OFFCURVE",
"29 -15 OFFCURVE",
"18 -19 CURVE SMOOTH",
"-11 -30 OFFCURVE",
"-46 -59 OFFCURVE",
"-45 -94 CURVE SMOOTH",
"-44 -129 OFFCURVE",
"-6 -212 OFFCURVE",
"98 -212 CURVE SMOOTH"
);
}
);
width = 464;
}
);
leftKerningGroup = J;
note = J;
rightKerningGroup = J;
unicode = 004A;
},
{
glyphname = K;
lastChange = "2018-05-23 06:41:33 +0000";
layers = (
{
anchors = (
{
name = bottom;
position = "{296, 0}";
},
{
name = top;
position = "{350, 700}";
}
);
background = {
paths = (
{
closed = 1;
nodes = (
"257 318 LINE",
"350 142 LINE SMOOTH",
"404 40 OFFCURVE",
"434 -10 OFFCURVE",
"479 -10 CURVE SMOOTH",
"527 -10 OFFCURVE",
"604 95 OFFCURVE",
"604 158 CURVE SMOOTH",
"604 165 OFFCURVE",
"601 170 OFFCURVE",
"594 170 CURVE SMOOTH",
"585 170 OFFCURVE",
"581 164 OFFCURVE",
"572 149 CURVE SMOOTH",
"562 133 OFFCURVE",
"540 97 OFFCURVE",
"514 97 CURVE SMOOTH",
"493 97 OFFCURVE",
"481 117 OFFCURVE",
"459 156 CURVE SMOOTH",
"331 388 LINE",
"523 620 LINE SMOOTH",
"616 732 OFFCURVE",
"703 813 OFFCURVE",
"798 813 CURVE SMOOTH",
"833 813 OFFCURVE",
"876 846 OFFCURVE",
"876 875 CURVE SMOOTH",
"876 882 OFFCURVE",
"874 886 OFFCURVE",
"867 886 CURVE SMOOTH",
"863 886 OFFCURVE",
"856 882 OFFCURVE",
"848 880 CURVE SMOOTH",
"840 878 OFFCURVE",
"829 876 OFFCURVE",
"814 876 CURVE SMOOTH",
"673 876 OFFCURVE",
"578 815 OFFCURVE",
"411 613 CURVE SMOOTH",
"280 455 LINE",
"298 565 LINE SMOOTH",
"306 617 OFFCURVE",
"316 659 OFFCURVE",
"329 700 CURVE",
"309 700 OFFCURVE",
"292 695 OFFCURVE",
"263 695 CURVE SMOOTH",
"229 695 OFFCURVE",
"203 700 OFFCURVE",
"178 700 CURVE SMOOTH",
"98 700 OFFCURVE",
"44 663 OFFCURVE",
"28 589 CURVE SMOOTH",
"27 583 OFFCURVE",
"26 578 OFFCURVE",
"26 572 CURVE SMOOTH",
"26 565 OFFCURVE",
"29 562 OFFCURVE",
"34 562 CURVE SMOOTH",
"40 562 OFFCURVE",
"46 569 OFFCURVE",
"54 579 CURVE SMOOTH",
"76 607 OFFCURVE",
"100 616 OFFCURVE",
"139 616 CURVE SMOOTH",
"168 616 OFFCURVE",
"188 610 OFFCURVE",
"202 610 CURVE",
"132 177 LINE SMOOTH",
"121 110 OFFCURVE",
"111 87 OFFCURVE",
"85 65 CURVE SMOOTH",
"66 49 OFFCURVE",
"53 30 OFFCURVE",
"53 10 CURVE SMOOTH",
"53 4 OFFCURVE",
"56 0 OFFCURVE",
"61 0 CURVE SMOOTH",
"70 0 OFFCURVE",
"88 16 OFFCURVE",
"123 16 CURVE SMOOTH",
"155 16 OFFCURVE",
"181 0 OFFCURVE",
"209 0 CURVE SMOOTH",
"233 0 OFFCURVE",
"251 10 OFFCURVE",
"282 53 CURVE SMOOTH",
"290 64 OFFCURVE",
"294 72 OFFCURVE",
"294 81 CURVE SMOOTH",
"294 86 OFFCURVE",
"291 89 OFFCURVE",
"286 89 CURVE SMOOTH",
"274 89 OFFCURVE",
"266 78 OFFCURVE",
"241 78 CURVE SMOOTH",
"227 78 OFFCURVE",
"212 81 OFFCURVE",
"204 85 CURVE",
"204 86 LINE",
"215 96 OFFCURVE",
"224 113 OFFCURVE",
"227 131 CURVE SMOOTH"
);
}
);
};
layerId = "56450C88-1299-454A-B666-E6F9AF06B23F";
paths = (
{
closed = 1;
nodes = (
"522 -10 OFFCURVE",
"594 99 OFFCURVE",
"594 156 CURVE SMOOTH",
"594 166 OFFCURVE",
"592 170 OFFCURVE",
"585 170 CURVE SMOOTH",
"576 170 OFFCURVE",
"571 164 OFFCURVE",
"562 149 CURVE SMOOTH",
"553 134 OFFCURVE",
"530 97 OFFCURVE",
"503 97 CURVE SMOOTH",
"483 97 OFFCURVE",
"471 117 OFFCURVE",
"449 156 CURVE SMOOTH",
"321 388 LINE",
"513 620 LINE SMOOTH",
"563 680 OFFCURVE",
"611 731 OFFCURVE",
"660 766 CURVE SMOOTH",
"717 806 OFFCURVE",
"745 810 OFFCURVE",
"788 813 CURVE SMOOTH",
"833 816 OFFCURVE",
"866 850 OFFCURVE",
"866 875 CURVE SMOOTH",
"866 881 OFFCURVE",
"864 886 OFFCURVE",
"858 886 CURVE SMOOTH",
"853 886 OFFCURVE",
"850 883 OFFCURVE",
"838 880 CURVE SMOOTH",
"829 877 OFFCURVE",
"815 876 OFFCURVE",
"804 876 CURVE SMOOTH",
"751 874 OFFCURVE",
"695 871 OFFCURVE",
"623 827 CURVE SMOOTH",
"558 787 OFFCURVE",
"493 724 OFFCURVE",
"401 613 CURVE SMOOTH",
"270 455 LINE",
"288 565 LINE SMOOTH",
"297 620 OFFCURVE",
"304 652 OFFCURVE",
"319 700 CURVE",
"298 700 OFFCURVE",
"284 695 OFFCURVE",
"252 695 CURVE SMOOTH",
"220 695 OFFCURVE",
"194 700 OFFCURVE",
"166 700 CURVE SMOOTH",
"86 700 OFFCURVE",
"31 658 OFFCURVE",
"18 589 CURVE SMOOTH",
"17 583 OFFCURVE",
"16 578 OFFCURVE",
"16 573 CURVE SMOOTH",
"16 565 OFFCURVE",
"19 562 OFFCURVE",
"24 562 CURVE SMOOTH",
"30 562 OFFCURVE",
"36 569 OFFCURVE",
"44 579 CURVE SMOOTH",
"68 609 OFFCURVE",
"93 616 OFFCURVE",
"127 616 CURVE SMOOTH",
"159 616 OFFCURVE",
"177 610 OFFCURVE",
"192 610 CURVE",
"122 177 LINE SMOOTH",
"110 102 OFFCURVE",
"100 89 OFFCURVE",
"75 65 CURVE SMOOTH",
"59 50 OFFCURVE",
"43 33 OFFCURVE",
"43 12 CURVE SMOOTH",
"43 3 OFFCURVE",
"46 0 OFFCURVE",
"50 0 CURVE SMOOTH",
"60 0 OFFCURVE",
"79 16 OFFCURVE",
"113 16 CURVE SMOOTH",
"146 16 OFFCURVE",
"170 0 OFFCURVE",
"199 0 CURVE SMOOTH",
"221 0 OFFCURVE",
"241 9 OFFCURVE",
"272 53 CURVE SMOOTH",
"280 64 OFFCURVE",
"284 72 OFFCURVE",
"284 80 CURVE SMOOTH",
"284 86 OFFCURVE",
"282 89 OFFCURVE",
"276 89 CURVE SMOOTH",
"264 89 OFFCURVE",
"256 78 OFFCURVE",
"231 78 CURVE SMOOTH",
"217 78 OFFCURVE",
"202 81 OFFCURVE",
"194 85 CURVE",
"194 86 LINE",
"205 96 OFFCURVE",
"214 113 OFFCURVE",
"217 131 CURVE SMOOTH",
"247 318 LINE",
"340 142 LINE SMOOTH",
"389 49 OFFCURVE",
"424 -10 OFFCURVE",
"466 -10 CURVE SMOOTH"
);
}
);
width = 634;
},
{
anchors = (
{
name = bottom;
position = "{272, 0}";
},
{
name = top;
position = "{339, 700}";
}
);
background = {
anchors = (
{
name = bottom;
position = "{272, 0}";
},
{
name = top;
position = "{339, 700}";
}
);
paths = (
{
closed = 1;
nodes = (
"497 -10 OFFCURVE",
"564 90 OFFCURVE",
"564 125 CURVE SMOOTH",
"564 131 OFFCURVE",
"562 136 OFFCURVE",
"556 136 CURVE SMOOTH",
"549 136 OFFCURVE",
"544 129 OFFCURVE",
"537 119 CURVE SMOOTH",
"523 99 OFFCURVE",
"500 75 OFFCURVE",
"481 75 CURVE SMOOTH",
"463 75 OFFCURVE",
"452 95 OFFCURVE",
"428 141 CURVE SMOOTH",
"300 388 LINE",
"428 573 LINE SMOOTH",
"522 709 OFFCURVE",
"578 767 OFFCURVE",
"619 795 CURVE SMOOTH",
"677 835 OFFCURVE",
"714 820 OFFCURVE",
"774 833 CURVE SMOOTH",
"821 843 OFFCURVE",
"836 860 OFFCURVE",
"836 877 CURVE SMOOTH",
"836 884 OFFCURVE",
"833 885 OFFCURVE",
"830 885 CURVE SMOOTH",
"828 885 OFFCURVE",
"825 884 OFFCURVE",
"821 882 CURVE SMOOTH",
"813 878 OFFCURVE",
"805 877 OFFCURVE",
"790 876 CURVE SMOOTH",
"709 870 OFFCURVE",
"648 865 OFFCURVE",
"590 836 CURVE SMOOTH",
"518 800 OFFCURVE",
"462 734 OFFCURVE",
"372 603 CURVE SMOOTH",
"236 405 LINE",
"263 578 LINE SMOOTH",
"269 620 OFFCURVE",
"262 597 OFFCURVE",
"292 700 CURVE",
"271 700 OFFCURVE",
"261 696 OFFCURVE",
"232 696 CURVE SMOOTH",
"202 696 OFFCURVE",
"175 700 OFFCURVE",
"153 700 CURVE SMOOTH",
"87 700 OFFCURVE",
"40 665 OFFCURVE",
"27 606 CURVE SMOOTH",
"26 602 OFFCURVE",
"26 598 OFFCURVE",
"26 594 CURVE SMOOTH",
"26 590 OFFCURVE",
"28 585 OFFCURVE",
"33 585 CURVE SMOOTH",
"38 585 OFFCURVE",
"40 593 OFFCURVE",
"47 603 CURVE SMOOTH",
"58 619 OFFCURVE",
"83 640 OFFCURVE",
"131 640 CURVE SMOOTH",
"155 640 OFFCURVE",
"183 635 OFFCURVE",
"198 635 CURVE",
"124 174 LINE SMOOTH",
"111 96 OFFCURVE",
"129 114 OFFCURVE",
"69 51 CURVE SMOOTH",
"54 36 OFFCURVE",
"47 25 OFFCURVE",
"47 10 CURVE SMOOTH",
"47 4 OFFCURVE",
"48 0 OFFCURVE",
"52 0 CURVE SMOOTH",
"60 0 OFFCURVE",
"78 17 OFFCURVE",
"103 17 CURVE SMOOTH",
"128 17 OFFCURVE",
"158 0 OFFCURVE",
"178 0 CURVE SMOOTH",
"186 0 OFFCURVE",
"203 3 OFFCURVE",
"239 41 CURVE SMOOTH",
"250 52 OFFCURVE",
"252 58 OFFCURVE",
"252 62 CURVE SMOOTH",
"252 67 OFFCURVE",
"249 70 OFFCURVE",
"245 70 CURVE SMOOTH",
"236 70 OFFCURVE",
"226 59 OFFCURVE",
"204 59 CURVE SMOOTH",
"192 59 OFFCURVE",
"184 62 OFFCURVE",
"169 68 CURVE",
"169 69 LINE",
"177 78 OFFCURVE",
"185 93 OFFCURVE",
"188 111 CURVE SMOOTH",
"229 360 LINE",
"344 135 LINE SMOOTH",
"386 53 OFFCURVE",
"419 -10 OFFCURVE",
"454 -10 CURVE SMOOTH"
);
}
);
};
layerId = "0B1DFD06-3317-40CA-B510-4969A0718C16";
paths = (
{
closed = 1;
nodes = (
"497 -10 OFFCURVE",
"564 90 OFFCURVE",
"564 125 CURVE SMOOTH",
"564 131 OFFCURVE",
"562 136 OFFCURVE",
"556 136 CURVE SMOOTH",
"549 136 OFFCURVE",
"544 129 OFFCURVE",
"537 119 CURVE SMOOTH",
"523 99 OFFCURVE",
"500 75 OFFCURVE",
"481 75 CURVE SMOOTH",
"463 75 OFFCURVE",
"452 95 OFFCURVE",
"428 141 CURVE SMOOTH",
"300 388 LINE",
"428 573 LINE SMOOTH",
"522 709 OFFCURVE",
"578 767 OFFCURVE",
"619 795 CURVE SMOOTH",
"677 835 OFFCURVE",
"714 820 OFFCURVE",
"774 833 CURVE SMOOTH",
"821 843 OFFCURVE",
"836 860 OFFCURVE",
"836 877 CURVE SMOOTH",
"836 884 OFFCURVE",
"833 885 OFFCURVE",
"830 885 CURVE SMOOTH",
"828 885 OFFCURVE",
"825 884 OFFCURVE",
"821 882 CURVE SMOOTH",
"813 878 OFFCURVE",
"805 877 OFFCURVE",
"790 876 CURVE SMOOTH",
"709 870 OFFCURVE",
"648 865 OFFCURVE",
"590 836 CURVE SMOOTH",
"518 800 OFFCURVE",
"462 734 OFFCURVE",
"372 603 CURVE SMOOTH",
"236 405 LINE",
"263 578 LINE SMOOTH",
"269 620 OFFCURVE",
"262 597 OFFCURVE",
"292 700 CURVE",
"271 700 OFFCURVE",
"261 696 OFFCURVE",
"232 696 CURVE SMOOTH",
"202 696 OFFCURVE",
"175 700 OFFCURVE",
"153 700 CURVE SMOOTH",
"87 700 OFFCURVE",
"40 665 OFFCURVE",
"27 606 CURVE SMOOTH",
"26 602 OFFCURVE",
"26 598 OFFCURVE",
"26 594 CURVE SMOOTH",
"26 590 OFFCURVE",
"28 585 OFFCURVE",
"33 585 CURVE SMOOTH",
"38 585 OFFCURVE",
"40 593 OFFCURVE",
"47 603 CURVE SMOOTH",
"58 619 OFFCURVE",
"83 640 OFFCURVE",
"131 640 CURVE SMOOTH",
"155 640 OFFCURVE",
"183 635 OFFCURVE",
"198 635 CURVE",
"124 174 LINE SMOOTH",
"111 96 OFFCURVE",
"129 114 OFFCURVE",
"69 51 CURVE SMOOTH",
"54 36 OFFCURVE",
"47 25 OFFCURVE",
"47 10 CURVE SMOOTH",
"47 4 OFFCURVE",
"48 0 OFFCURVE",
"52 0 CURVE SMOOTH",
"60 0 OFFCURVE",
"78 17 OFFCURVE",
"103 17 CURVE SMOOTH",
"128 17 OFFCURVE",
"158 0 OFFCURVE",
"178 0 CURVE SMOOTH",
"186 0 OFFCURVE",
"203 3 OFFCURVE",
"239 41 CURVE SMOOTH",
"250 52 OFFCURVE",
"252 58 OFFCURVE",
"252 62 CURVE SMOOTH",
"252 67 OFFCURVE",
"249 70 OFFCURVE",
"245 70 CURVE SMOOTH",
"236 70 OFFCURVE",
"226 59 OFFCURVE",
"204 59 CURVE SMOOTH",
"192 59 OFFCURVE",
"184 62 OFFCURVE",
"169 68 CURVE",
"169 69 LINE",
"177 78 OFFCURVE",
"185 93 OFFCURVE",
"188 111 CURVE SMOOTH",
"229 360 LINE",
"344 135 LINE SMOOTH",
"386 53 OFFCURVE",
"419 -10 OFFCURVE",
"454 -10 CURVE SMOOTH"
);
}
);
width = 614;
}
);
leftKerningGroup = H;
note = K;
rightKerningGroup = K;
unicode = 004B;
},
{
glyphname = L;
lastChange = "2018-05-23 06:41:33 +0000";
layers = (
{
anchors = (
{
name = bottom;
position = "{196, 0}";
},
{
name = center;
position = "{364, 350}";
},
{
name = top;
position = "{379, 750}";
},
{
name = topright;
position = "{545, 750}";
}
);
background = {
paths = (
{
closed = 1;
nodes = (
"-14 0 OFFCURVE",
"-1 17 OFFCURVE",
"46 17 CURVE SMOOTH",
"128 17 OFFCURVE",
"195 0 OFFCURVE",
"277 0 CURVE SMOOTH",
"379 0 OFFCURVE",
"480 64 OFFCURVE",
"480 123 CURVE SMOOTH",
"480 131 OFFCURVE",
"477 137 OFFCURVE",
"470 137 CURVE SMOOTH",
"463 137 OFFCURVE",
"456 131 OFFCURVE",
"450 127 CURVE SMOOTH",
"414 103 OFFCURVE",
"391 88 OFFCURVE",
"287 88 CURVE SMOOTH",
"262 88 OFFCURVE",
"198 92 OFFCURVE",
"167 97 CURVE",
"167 98 LINE",
"184 116 OFFCURVE",
"195 142 OFFCURVE",
"202 183 CURVE SMOOTH",
"264 559 LINE SMOOTH",
"281 660 OFFCURVE",
"310 700 OFFCURVE",
"366 700 CURVE SMOOTH",
"402 700 OFFCURVE",
"414 688 OFFCURVE",
"434 688 CURVE SMOOTH",
"455 688 OFFCURVE",
"514 726 OFFCURVE",
"514 741 CURVE SMOOTH",
"514 749 OFFCURVE",
"506 751 OFFCURVE",
"498 754 CURVE SMOOTH",
"475 763 OFFCURVE",
"439 770 OFFCURVE",
"407 770 CURVE SMOOTH",
"348 770 OFFCURVE",
"294 745 OFFCURVE",
"246 700 CURVE SMOOTH",
"190 648 OFFCURVE",
"164 601 OFFCURVE",
"154 541 CURVE SMOOTH",
"99 208 LINE SMOOTH",
"91 157 OFFCURVE",
"80 124 OFFCURVE",
"66 104 CURVE",
"61 104 OFFCURVE",
"51 104 OFFCURVE",
"44 104 CURVE SMOOTH",
"5 104 OFFCURVE",
"-36 61 OFFCURVE",
"-36 11 CURVE SMOOTH",
"-36 4 OFFCURVE",
"-33 0 OFFCURVE",
"-27 0 CURVE SMOOTH"
);
}
);
};
layerId = "56450C88-1299-454A-B666-E6F9AF06B23F";
paths = (
{
closed = 1;
nodes = (
"-22 0 OFFCURVE",
"-19 17 OFFCURVE",
"43 17 CURVE SMOOTH",
"105 17 OFFCURVE",
"198 0 OFFCURVE",
"258 0 CURVE SMOOTH",
"381 0 OFFCURVE",
"470 70 OFFCURVE",
"470 123 CURVE SMOOTH",
"470 133 OFFCURVE",
"467 137 OFFCURVE",
"462 137 CURVE SMOOTH",
"455 137 OFFCURVE",
"444 130 OFFCURVE",
"440 127 CURVE SMOOTH",
"405 103 OFFCURVE",
"374 88 OFFCURVE",
"290 88 CURVE SMOOTH",
"246 88 OFFCURVE",
"188 92 OFFCURVE",
"157 97 CURVE",
"157 98 LINE",
"173 115 OFFCURVE",
"185 141 OFFCURVE",
"192 183 CURVE SMOOTH",
"254 559 LINE SMOOTH",
"266 632 OFFCURVE",
"280 666 OFFCURVE",
"307 686 CURVE SMOOTH",
"320 696 OFFCURVE",
"336 700 OFFCURVE",
"356 700 CURVE SMOOTH",
"391 700 OFFCURVE",
"407 688 OFFCURVE",
"421 688 CURVE SMOOTH",
"446 688 OFFCURVE",
"504 726 OFFCURVE",
"504 742 CURVE SMOOTH",
"504 749 OFFCURVE",
"493 752 OFFCURVE",
"488 754 CURVE SMOOTH",
"462 763 OFFCURVE",
"432 770 OFFCURVE",
"399 770 CURVE SMOOTH",
"332 770 OFFCURVE",
"282 742 OFFCURVE",
"236 700 CURVE SMOOTH",
"182 651 OFFCURVE",
"154 601 OFFCURVE",
"144 541 CURVE SMOOTH",
"89 208 LINE SMOOTH",
"81 158 OFFCURVE",
"71 126 OFFCURVE",
"56 104 CURVE",
"51 104 OFFCURVE",
"41 104 OFFCURVE",
"34 104 CURVE SMOOTH",
"-5 104 OFFCURVE",
"-46 58 OFFCURVE",
"-46 13 CURVE SMOOTH",
"-46 3 OFFCURVE",
"-44 0 OFFCURVE",
"-37 0 CURVE SMOOTH"
);
}
);
width = 510;
},
{
anchors = (
{
name = bottom;
position = "{184, 0}";
},
{
name = center;
position = "{356, 350}";
},
{
name = top;
position = "{407, 750}";
},
{
name = topright;
position = "{515, 750}";
}
);
background = {
anchors = (
{
name = bottom;
position = "{184, 0}";
},
{
name = center;
position = "{356, 350}";
},
{
name = top;
position = "{407, 750}";
},
{
name = topright;
position = "{515, 750}";
}
);
paths = (
{
closed = 1;
nodes = (
"-15 0 OFFCURVE",
"-15 17 OFFCURVE",
"51 17 CURVE SMOOTH",
"116 17 OFFCURVE",
"197 0 OFFCURVE",
"254 0 CURVE SMOOTH",
"366 0 OFFCURVE",
"455 67 OFFCURVE",
"455 104 CURVE SMOOTH",
"455 110 OFFCURVE",
"453 115 OFFCURVE",
"448 115 CURVE SMOOTH",
"445 115 OFFCURVE",
"441 113 OFFCURVE",
"435 109 CURVE SMOOTH",
"394 83 OFFCURVE",
"339 66 OFFCURVE",
"276 66 CURVE SMOOTH",
"242 66 OFFCURVE",
"156 71 OFFCURVE",
"127 78 CURVE",
"127 79 LINE",
"144 94 OFFCURVE",
"158 122 OFFCURVE",
"163 150 CURVE SMOOTH",
"236 571 LINE SMOOTH",
"246 632 OFFCURVE",
"263 675 OFFCURVE",
"291 699 CURVE SMOOTH",
"308 714 OFFCURVE",
"330 722 OFFCURVE",
"357 722 CURVE SMOOTH",
"388 722 OFFCURVE",
"406 712 OFFCURVE",
"418 712 CURVE SMOOTH",
"434 712 OFFCURVE",
"478 731 OFFCURVE",
"478 744 CURVE SMOOTH",
"478 749 OFFCURVE",
"471 753 OFFCURVE",
"465 756 CURVE SMOOTH",
"446 765 OFFCURVE",
"417 770 OFFCURVE",
"391 770 CURVE SMOOTH",
"335 770 OFFCURVE",
"288 748 OFFCURVE",
"241 702 CURVE SMOOTH",
"187 650 OFFCURVE",
"168 603 OFFCURVE",
"159 551 CURVE SMOOTH",
"97 192 LINE SMOOTH",
"86 128 OFFCURVE",
"73 102 OFFCURVE",
"57 82 CURVE",
"50 82 OFFCURVE",
"45 82 OFFCURVE",
"34 82 CURVE SMOOTH",
"2 82 OFFCURVE",
"-36 36 OFFCURVE",
"-36 9 CURVE SMOOTH",
"-36 3 OFFCURVE",
"-34 0 OFFCURVE",
"-28 0 CURVE SMOOTH"
);
}
);
};
layerId = "0B1DFD06-3317-40CA-B510-4969A0718C16";
paths = (
{
closed = 1;
nodes = (
"-15 0 OFFCURVE",
"-15 17 OFFCURVE",
"51 17 CURVE SMOOTH",
"116 17 OFFCURVE",
"197 0 OFFCURVE",
"254 0 CURVE SMOOTH",
"366 0 OFFCURVE",
"455 67 OFFCURVE",
"455 104 CURVE SMOOTH",
"455 110 OFFCURVE",
"453 115 OFFCURVE",
"448 115 CURVE SMOOTH",
"445 115 OFFCURVE",
"441 113 OFFCURVE",
"435 109 CURVE SMOOTH",
"394 83 OFFCURVE",
"339 66 OFFCURVE",
"276 66 CURVE SMOOTH",
"242 66 OFFCURVE",
"156 71 OFFCURVE",
"127 78 CURVE",
"127 79 LINE",
"144 94 OFFCURVE",
"158 122 OFFCURVE",
"163 150 CURVE SMOOTH",
"236 571 LINE SMOOTH",
"246 632 OFFCURVE",
"263 675 OFFCURVE",
"291 699 CURVE SMOOTH",
"308 714 OFFCURVE",
"330 722 OFFCURVE",
"357 722 CURVE SMOOTH",
"388 722 OFFCURVE",
"406 712 OFFCURVE",
"418 712 CURVE SMOOTH",
"434 712 OFFCURVE",
"478 731 OFFCURVE",
"478 744 CURVE SMOOTH",
"478 749 OFFCURVE",
"471 753 OFFCURVE",
"465 756 CURVE SMOOTH",
"446 765 OFFCURVE",
"417 770 OFFCURVE",
"391 770 CURVE SMOOTH",
"335 770 OFFCURVE",
"288 748 OFFCURVE",
"241 702 CURVE SMOOTH",
"187 650 OFFCURVE",
"168 603 OFFCURVE",
"159 551 CURVE SMOOTH",
"97 192 LINE SMOOTH",
"86 128 OFFCURVE",
"73 102 OFFCURVE",
"57 82 CURVE",
"50 82 OFFCURVE",
"45 82 OFFCURVE",
"34 82 CURVE SMOOTH",
"2 82 OFFCURVE",
"-36 36 OFFCURVE",
"-36 9 CURVE SMOOTH",
"-36 3 OFFCURVE",
"-34 0 OFFCURVE",
"-28 0 CURVE SMOOTH"
);
}
);
width = 494;
}
);
leftKerningGroup = L;
note = L;
rightKerningGroup = L;
unicode = 004C;
},
{
glyphname = M;
lastChange = "2018-05-23 06:41:33 +0000";
layers = (
{
anchors = (
{
name = bottom;
position = "{344, 0}";
},
{
name = top;
position = "{465, 700}";
}
);
background = {
paths = (
{
closed = 1;
nodes = (
"59 0 OFFCURVE",
"77 16 OFFCURVE",
"112 16 CURVE SMOOTH",
"144 16 OFFCURVE",
"160 0 OFFCURVE",
"188 0 CURVE SMOOTH",
"212 0 OFFCURVE",
"231 10 OFFCURVE",
"262 53 CURVE SMOOTH",
"270 64 OFFCURVE",
"274 71 OFFCURVE",
"274 80 CURVE SMOOTH",
"274 85 OFFCURVE",
"271 89 OFFCURVE",
"266 89 CURVE SMOOTH",
"254 89 OFFCURVE",
"247 78 OFFCURVE",
"225 78 CURVE SMOOTH",
"211 78 OFFCURVE",
"195 81 OFFCURVE",
"187 85 CURVE",
"187 86 LINE",
"198 96 OFFCURVE",
"203 116 OFFCURVE",
"207 134 CURVE SMOOTH",
"268 436 LINE",
"269 435 LINE",
"278 392 LINE SMOOTH",
"298 298 OFFCURVE",
"349 189 OFFCURVE",
"343 50 CURVE SMOOTH",
"343 41 OFFCURVE",
"345 39 OFFCURVE",
"350 38 CURVE SMOOTH",
"364 38 OFFCURVE",
"415 101 OFFCURVE",
"441 145 CURVE",
"480 244 OFFCURVE",
"548 375 OFFCURVE",
"603 463 CURVE",
"604 463 LINE",
"591 361 OFFCURVE",
"575 214 OFFCURVE",
"566 111 CURVE SMOOTH",
"564 88 OFFCURVE",
"549 81 OFFCURVE",
"526 65 CURVE SMOOTH",
"505 51 OFFCURVE",
"494 30 OFFCURVE",
"494 10 CURVE SMOOTH",
"494 4 OFFCURVE",
"497 0 OFFCURVE",
"502 0 CURVE SMOOTH",
"511 0 OFFCURVE",
"529 16 OFFCURVE",
"564 16 CURVE SMOOTH",
"596 16 OFFCURVE",
"627 0 OFFCURVE",
"655 0 CURVE SMOOTH",
"679 0 OFFCURVE",
"698 11 OFFCURVE",
"733 53 CURVE SMOOTH",
"742 64 OFFCURVE",
"745 71 OFFCURVE",
"745 80 CURVE SMOOTH",
"745 85 OFFCURVE",
"742 89 OFFCURVE",
"737 89 CURVE SMOOTH",
"726 89 OFFCURVE",
"715 78 OFFCURVE",
"689 78 CURVE SMOOTH",
"677 78 OFFCURVE",
"662 81 OFFCURVE",
"650 87 CURVE",
"650 88 LINE",
"661 98 OFFCURVE",
"671 121 OFFCURVE",
"674 147 CURVE SMOOTH",
"700 374 OFFCURVE",
"705 494 OFFCURVE",
"721 600 CURVE SMOOTH",
"747 778 OFFCURVE",
"785 822 OFFCURVE",
"909 822 CURVE SMOOTH",
"944 822 OFFCURVE",
"987 851 OFFCURVE",
"987 880 CURVE SMOOTH",
"987 888 OFFCURVE",
"984 895 OFFCURVE",
"975 895 CURVE SMOOTH",
"972 895 OFFCURVE",
"969 894 OFFCURVE",
"964 892 CURVE SMOOTH",
"956 889 OFFCURVE",
"945 885 OFFCURVE",
"925 885 CURVE SMOOTH",
"771 885 OFFCURVE",
"712 842 OFFCURVE",
"630 670 CURVE SMOOTH",
"567 533 OFFCURVE",
"484 386 OFFCURVE",
"416 263 CURVE",
"415 269 OFFCURVE",
"411 286 OFFCURVE",
"408 297 CURVE SMOOTH",
"376 431 LINE SMOOTH",
"351 534 OFFCURVE",
"338 603 OFFCURVE",
"338 654 CURVE SMOOTH",
"338 668 OFFCURVE",
"339 686 OFFCURVE",
"340 700 CURVE",
"320 700 OFFCURVE",
"301 695 OFFCURVE",
"269 695 CURVE SMOOTH",
"235 695 OFFCURVE",
"209 700 OFFCURVE",
"184 700 CURVE SMOOTH",
"104 700 OFFCURVE",
"52 662 OFFCURVE",
"34 589 CURVE SMOOTH",
"33 585 OFFCURVE",
"32 578 OFFCURVE",
"32 574 CURVE SMOOTH",
"32 567 OFFCURVE",
"35 562 OFFCURVE",
"40 562 CURVE SMOOTH",
"46 562 OFFCURVE",
"52 569 OFFCURVE",
"59 579 CURVE SMOOTH",
"77 604 OFFCURVE",
"103 615 OFFCURVE",
"145 615 CURVE SMOOTH",
"176 615 OFFCURVE",
"192 610 OFFCURVE",
"205 610 CURVE SMOOTH",
"215 610 LINE",
"122 169 LINE SMOOTH",
"108 102 OFFCURVE",
"100 87 OFFCURVE",
"74 65 CURVE SMOOTH",
"55 49 OFFCURVE",
"42 30 OFFCURVE",
"42 10 CURVE SMOOTH",
"42 4 OFFCURVE",
"45 0 OFFCURVE",
"50 0 CURVE SMOOTH"
);
}
);
};
layerId = "56450C88-1299-454A-B666-E6F9AF06B23F";
paths = (
{
closed = 1;
nodes = (
"49 0 OFFCURVE",
"68 16 OFFCURVE",
"102 16 CURVE SMOOTH",
"135 16 OFFCURVE",
"149 0 OFFCURVE",
"178 0 CURVE SMOOTH",
"202 0 OFFCURVE",
"221 10 OFFCURVE",
"252 53 CURVE SMOOTH",
"260 64 OFFCURVE",
"264 71 OFFCURVE",
"264 79 CURVE SMOOTH",
"264 86 OFFCURVE",
"261 89 OFFCURVE",
"256 89 CURVE SMOOTH",
"246 89 OFFCURVE",
"238 78 OFFCURVE",
"214 78 CURVE SMOOTH",
"201 78 OFFCURVE",
"185 81 OFFCURVE",
"177 85 CURVE",
"177 86 LINE",
"188 95 OFFCURVE",
"195 125 OFFCURVE",
"197 134 CURVE SMOOTH",
"259 440 LINE",
"260 439 LINE",
"263 425 OFFCURVE",
"298 269 OFFCURVE",
"300 259 CURVE SMOOTH",
"322 157 OFFCURVE",
"325 128 OFFCURVE",
"333 50 CURVE SMOOTH",
"334 41 OFFCURVE",
"335 38 OFFCURVE",
"339 38 CURVE SMOOTH",
"355 38 OFFCURVE",
"404 100 OFFCURVE",
"431 145 CURVE",
"470 244 OFFCURVE",
"538 375 OFFCURVE",
"593 463 CURVE",
"594 463 LINE",
"573 285 OFFCURVE",
"583 392 OFFCURVE",
"556 111 CURVE SMOOTH",
"554 86 OFFCURVE",
"542 86 OFFCURVE",
"516 65 CURVE SMOOTH",
"492 46 OFFCURVE",
"484 30 OFFCURVE",
"484 13 CURVE SMOOTH",
"484 3 OFFCURVE",
"487 0 OFFCURVE",
"491 0 CURVE SMOOTH",
"501 0 OFFCURVE",
"520 16 OFFCURVE",
"554 16 CURVE SMOOTH",
"587 16 OFFCURVE",
"617 0 OFFCURVE",
"644 0 CURVE SMOOTH",
"663 0 OFFCURVE",
"688 8 OFFCURVE",
"723 53 CURVE SMOOTH",
"732 64 OFFCURVE",
"735 72 OFFCURVE",
"735 79 CURVE SMOOTH",
"735 86 OFFCURVE",
"732 89 OFFCURVE",
"727 89 CURVE SMOOTH",
"718 89 OFFCURVE",
"704 78 OFFCURVE",
"680 78 CURVE SMOOTH",
"667 78 OFFCURVE",
"652 81 OFFCURVE",
"640 87 CURVE",
"640 88 LINE",
"651 98 OFFCURVE",
"661 121 OFFCURVE",
"664 147 CURVE SMOOTH",
"690 374 OFFCURVE",
"693 482 OFFCURVE",
"711 600 CURVE SMOOTH",
"729 722 OFFCURVE",
"753 781 OFFCURVE",
"804 806 CURVE SMOOTH",
"833 820 OFFCURVE",
"860 821 OFFCURVE",
"899 822 CURVE SMOOTH",
"937 823 OFFCURVE",
"977 856 OFFCURVE",
"977 884 CURVE SMOOTH",
"977 890 OFFCURVE",
"975 895 OFFCURVE",
"968 895 CURVE SMOOTH",
"964 895 OFFCURVE",
"966 894 OFFCURVE",
"949 889 CURVE SMOOTH",
"940 886 OFFCURVE",
"936 885 OFFCURVE",
"915 885 CURVE SMOOTH",
"861 884 OFFCURVE",
"815 881 OFFCURVE",
"771 860 CURVE SMOOTH",
"707 829 OFFCURVE",
"671 775 OFFCURVE",
"620 670 CURVE SMOOTH",
"576 580 OFFCURVE",
"590 595 OFFCURVE",
"406 263 CURVE",
"405 271 OFFCURVE",
"401 286 OFFCURVE",
"398 297 CURVE SMOOTH",
"366 431 LINE SMOOTH",
"342 531 OFFCURVE",
"328 600 OFFCURVE",
"328 654 CURVE SMOOTH",
"328 668 OFFCURVE",
"329 686 OFFCURVE",
"330 700 CURVE",
"310 700 OFFCURVE",
"292 695 OFFCURVE",
"259 695 CURVE SMOOTH",
"225 695 OFFCURVE",
"200 700 OFFCURVE",
"173 700 CURVE SMOOTH",
"93 700 OFFCURVE",
"37 656 OFFCURVE",
"24 589 CURVE SMOOTH",
"23 583 OFFCURVE",
"22 578 OFFCURVE",
"22 573 CURVE SMOOTH",
"22 565 OFFCURVE",
"25 562 OFFCURVE",
"30 562 CURVE SMOOTH",
"36 562 OFFCURVE",
"42 569 OFFCURVE",
"50 579 CURVE SMOOTH",
"74 609 OFFCURVE",
"99 616 OFFCURVE",
"135 616 CURVE SMOOTH",
"168 616 OFFCURVE",
"183 610 OFFCURVE",
"199 610 CURVE SMOOTH",
"205 610 LINE",
"112 169 LINE SMOOTH",
"97 97 OFFCURVE",
"91 91 OFFCURVE",
"64 65 CURVE SMOOTH",
"44 46 OFFCURVE",
"32 31 OFFCURVE",
"32 12 CURVE SMOOTH",
"32 3 OFFCURVE",
"35 0 OFFCURVE",
"39 0 CURVE SMOOTH"
);
}
);
width = 801;
},
{
anchors = (
{
name = bottom;
position = "{332, 0}";
},
{
name = top;
position = "{443, 700}";
}
);
background = {
anchors = (
{
name = bottom;
position = "{332, 0}";
},
{
name = top;
position = "{443, 700}";
}
);
paths = (
{
closed = 1;
nodes = (
"45 0 OFFCURVE",
"63 17 OFFCURVE",
"88 17 CURVE SMOOTH",
"113 17 OFFCURVE",
"134 0 OFFCURVE",
"154 0 CURVE SMOOTH",
"162 0 OFFCURVE",
"179 3 OFFCURVE",
"215 41 CURVE SMOOTH",
"226 52 OFFCURVE",
"228 58 OFFCURVE",
"228 62 CURVE SMOOTH",
"228 67 OFFCURVE",
"225 70 OFFCURVE",
"221 70 CURVE SMOOTH",
"212 70 OFFCURVE",
"207 59 OFFCURVE",
"185 59 CURVE SMOOTH",
"173 59 OFFCURVE",
"160 62 OFFCURVE",
"145 68 CURVE",
"145 69 LINE",
"156 81 OFFCURVE",
"161 96 OFFCURVE",
"164 111 CURVE SMOOTH",
"247 518 LINE",
"248 518 LINE",
"261 450 OFFCURVE",
"279 368 OFFCURVE",
"293 301 CURVE SMOOTH",
"321 162 OFFCURVE",
"325 127 OFFCURVE",
"329 52 CURVE SMOOTH",
"329 44 OFFCURVE",
"333 42 OFFCURVE",
"336 42 CURVE SMOOTH",
"351 42 OFFCURVE",
"385 102 OFFCURVE",
"401 138 CURVE",
"443 247 OFFCURVE",
"530 412 OFFCURVE",
"602 533 CURVE",
"603 533 LINE",
"592 436 OFFCURVE",
"577 302 OFFCURVE",
"556 114 CURVE SMOOTH",
"553 86 OFFCURVE",
"544 79 OFFCURVE",
"507 51 CURVE SMOOTH",
"490 38 OFFCURVE",
"483 20 OFFCURVE",
"483 9 CURVE SMOOTH",
"483 4 OFFCURVE",
"484 0 OFFCURVE",
"488 0 CURVE SMOOTH",
"496 0 OFFCURVE",
"524 17 OFFCURVE",
"549 17 CURVE SMOOTH",
"574 17 OFFCURVE",
"614 0 OFFCURVE",
"634 0 CURVE SMOOTH",
"642 0 OFFCURVE",
"659 3 OFFCURVE",
"695 41 CURVE SMOOTH",
"706 52 OFFCURVE",
"708 58 OFFCURVE",
"708 62 CURVE SMOOTH",
"708 67 OFFCURVE",
"705 70 OFFCURVE",
"701 70 CURVE SMOOTH",
"692 70 OFFCURVE",
"679 59 OFFCURVE",
"655 59 CURVE SMOOTH",
"643 59 OFFCURVE",
"628 62 OFFCURVE",
"613 68 CURVE",
"613 69 LINE",
"621 78 OFFCURVE",
"629 93 OFFCURVE",
"632 111 CURVE SMOOTH",
"665 311 OFFCURVE",
"664 425 OFFCURVE",
"682 553 CURVE SMOOTH",
"704 707 OFFCURVE",
"738 776 OFFCURVE",
"779 809 CURVE SMOOTH",
"812 835 OFFCURVE",
"857 836 OFFCURVE",
"883 843 CURVE SMOOTH",
"912 850 OFFCURVE",
"945 863 OFFCURVE",
"945 887 CURVE SMOOTH",
"945 894 OFFCURVE",
"942 895 OFFCURVE",
"939 895 CURVE SMOOTH",
"937 895 OFFCURVE",
"934 894 OFFCURVE",
"930 892 CURVE SMOOTH",
"920 887 OFFCURVE",
"916 887 OFFCURVE",
"899 886 CURVE SMOOTH",
"839 882 OFFCURVE",
"794 873 OFFCURVE",
"753 846 CURVE SMOOTH",
"706 815 OFFCURVE",
"667 765 OFFCURVE",
"615 665 CURVE SMOOTH",
"585 608 OFFCURVE",
"413 270 OFFCURVE",
"386 217 CURVE",
"383 241 OFFCURVE",
"381 256 OFFCURVE",
"373 291 CURVE SMOOTH",
"341 438 LINE SMOOTH",
"318 543 OFFCURVE",
"302 614 OFFCURVE",
"302 661 CURVE SMOOTH",
"302 673 OFFCURVE",
"303 690 OFFCURVE",
"306 700 CURVE",
"285 700 OFFCURVE",
"273 696 OFFCURVE",
"244 696 CURVE SMOOTH",
"214 696 OFFCURVE",
"187 700 OFFCURVE",
"165 700 CURVE SMOOTH",
"99 700 OFFCURVE",
"52 665 OFFCURVE",
"39 606 CURVE SMOOTH",
"38 602 OFFCURVE",
"38 598 OFFCURVE",
"38 594 CURVE SMOOTH",
"38 590 OFFCURVE",
"40 585 OFFCURVE",
"45 585 CURVE SMOOTH",
"50 585 OFFCURVE",
"52 593 OFFCURVE",
"59 603 CURVE SMOOTH",
"70 619 OFFCURVE",
"95 640 OFFCURVE",
"143 640 CURVE SMOOTH",
"167 640 OFFCURVE",
"195 635 OFFCURVE",
"210 635 CURVE SMOOTH",
"216 635 LINE",
"113 150 LINE SMOOTH",
"100 89 OFFCURVE",
"98 87 OFFCURVE",
"54 51 CURVE SMOOTH",
"40 40 OFFCURVE",
"32 22 OFFCURVE",
"32 9 CURVE SMOOTH",
"32 4 OFFCURVE",
"33 0 OFFCURVE",
"37 0 CURVE SMOOTH"
);
}
);
};
layerId = "0B1DFD06-3317-40CA-B510-4969A0718C16";
paths = (
{
closed = 1;
nodes = (
"45 0 OFFCURVE",
"63 17 OFFCURVE",
"88 17 CURVE SMOOTH",
"113 17 OFFCURVE",
"134 0 OFFCURVE",
"154 0 CURVE SMOOTH",
"162 0 OFFCURVE",
"179 3 OFFCURVE",
"215 41 CURVE SMOOTH",
"226 52 OFFCURVE",
"228 58 OFFCURVE",
"228 62 CURVE SMOOTH",
"228 67 OFFCURVE",
"225 70 OFFCURVE",
"221 70 CURVE SMOOTH",
"212 70 OFFCURVE",
"207 59 OFFCURVE",
"185 59 CURVE SMOOTH",
"173 59 OFFCURVE",
"160 62 OFFCURVE",
"145 68 CURVE",
"145 69 LINE",
"156 81 OFFCURVE",
"161 96 OFFCURVE",
"164 111 CURVE SMOOTH",
"247 518 LINE",
"248 518 LINE",
"261 450 OFFCURVE",
"279 368 OFFCURVE",
"293 301 CURVE SMOOTH",
"321 162 OFFCURVE",
"325 127 OFFCURVE",
"329 52 CURVE SMOOTH",
"329 44 OFFCURVE",
"333 42 OFFCURVE",
"336 42 CURVE SMOOTH",
"351 42 OFFCURVE",
"385 102 OFFCURVE",
"401 138 CURVE",
"443 247 OFFCURVE",
"530 412 OFFCURVE",
"602 533 CURVE",
"603 533 LINE",
"592 436 OFFCURVE",
"577 302 OFFCURVE",
"556 114 CURVE SMOOTH",
"553 86 OFFCURVE",
"544 79 OFFCURVE",
"507 51 CURVE SMOOTH",
"490 38 OFFCURVE",
"483 20 OFFCURVE",
"483 9 CURVE SMOOTH",
"483 4 OFFCURVE",
"484 0 OFFCURVE",
"488 0 CURVE SMOOTH",
"496 0 OFFCURVE",
"524 17 OFFCURVE",
"549 17 CURVE SMOOTH",
"574 17 OFFCURVE",
"614 0 OFFCURVE",
"634 0 CURVE SMOOTH",
"642 0 OFFCURVE",
"659 3 OFFCURVE",
"695 41 CURVE SMOOTH",
"706 52 OFFCURVE",
"708 58 OFFCURVE",
"708 62 CURVE SMOOTH",
"708 67 OFFCURVE",
"705 70 OFFCURVE",
"701 70 CURVE SMOOTH",
"692 70 OFFCURVE",
"679 59 OFFCURVE",
"655 59 CURVE SMOOTH",
"643 59 OFFCURVE",
"628 62 OFFCURVE",
"613 68 CURVE",
"613 69 LINE",
"621 78 OFFCURVE",
"629 93 OFFCURVE",
"632 111 CURVE SMOOTH",
"665 311 OFFCURVE",
"664 425 OFFCURVE",
"682 553 CURVE SMOOTH",
"704 707 OFFCURVE",
"738 776 OFFCURVE",
"779 809 CURVE SMOOTH",
"812 835 OFFCURVE",
"857 836 OFFCURVE",
"883 843 CURVE SMOOTH",
"912 850 OFFCURVE",
"945 863 OFFCURVE",
"945 887 CURVE SMOOTH",
"945 894 OFFCURVE",
"942 895 OFFCURVE",
"939 895 CURVE SMOOTH",
"937 895 OFFCURVE",
"934 894 OFFCURVE",
"930 892 CURVE SMOOTH",
"920 887 OFFCURVE",
"916 887 OFFCURVE",
"899 886 CURVE SMOOTH",
"839 882 OFFCURVE",
"794 873 OFFCURVE",
"753 846 CURVE SMOOTH",
"706 815 OFFCURVE",
"667 765 OFFCURVE",
"615 665 CURVE SMOOTH",
"585 608 OFFCURVE",
"413 270 OFFCURVE",
"386 217 CURVE",
"383 241 OFFCURVE",
"381 256 OFFCURVE",
"373 291 CURVE SMOOTH",
"341 438 LINE SMOOTH",
"318 543 OFFCURVE",
"302 614 OFFCURVE",
"302 661 CURVE SMOOTH",
"302 673 OFFCURVE",
"303 690 OFFCURVE",
"306 700 CURVE",
"285 700 OFFCURVE",
"273 696 OFFCURVE",
"244 696 CURVE SMOOTH",
"214 696 OFFCURVE",
"187 700 OFFCURVE",
"165 700 CURVE SMOOTH",
"99 700 OFFCURVE",
"52 665 OFFCURVE",
"39 606 CURVE SMOOTH",
"38 602 OFFCURVE",
"38 598 OFFCURVE",
"38 594 CURVE SMOOTH",
"38 590 OFFCURVE",
"40 585 OFFCURVE",
"45 585 CURVE SMOOTH",
"50 585 OFFCURVE",
"52 593 OFFCURVE",
"59 603 CURVE SMOOTH",
"70 619 OFFCURVE",
"95 640 OFFCURVE",
"143 640 CURVE SMOOTH",
"167 640 OFFCURVE",
"195 635 OFFCURVE",
"210 635 CURVE SMOOTH",
"216 635 LINE",
"113 150 LINE SMOOTH",
"100 89 OFFCURVE",
"98 87 OFFCURVE",
"54 51 CURVE SMOOTH",
"40 40 OFFCURVE",
"32 22 OFFCURVE",
"32 9 CURVE SMOOTH",
"32 4 OFFCURVE",
"33 0 OFFCURVE",
"37 0 CURVE SMOOTH"
);
}
);
width = 779;
}
);
leftKerningGroup = H;
note = M;
rightKerningGroup = H;
unicode = 004D;
},
{
glyphname = N;
lastChange = "2018-05-23 06:41:33 +0000";
layers = (
{
anchors = (
{
name = bottom;
position = "{313, 0}";
},
{
name = top;
position = "{432, 700}";
}
);
background = {
paths = (
{
closed = 1;
nodes = (
"502 -10 OFFCURVE",
"556 62 OFFCURVE",
"566 120 CURVE SMOOTH",
"646 579 LINE SMOOTH",
"675 760 OFFCURVE",
"721 822 OFFCURVE",
"828 822 CURVE SMOOTH",
"863 822 OFFCURVE",
"906 851 OFFCURVE",
"906 880 CURVE SMOOTH",
"906 888 OFFCURVE",
"903 895 OFFCURVE",
"894 895 CURVE SMOOTH",
"891 895 OFFCURVE",
"888 894 OFFCURVE",
"883 892 CURVE SMOOTH",
"875 889 OFFCURVE",
"864 885 OFFCURVE",
"844 885 CURVE SMOOTH",
"669 885 OFFCURVE",
"584 793 OFFCURVE",
"546 562 CURVE SMOOTH",
"497 259 LINE",
"496 259 LINE",
"487 280 OFFCURVE",
"477 299 OFFCURVE",
"467 319 CURVE SMOOTH",
"415 424 LINE SMOOTH",
"365 525 OFFCURVE",
"332 587 OFFCURVE",
"332 652 CURVE SMOOTH",
"332 670 OFFCURVE",
"334 683 OFFCURVE",
"340 700 CURVE",
"320 700 OFFCURVE",
"301 695 OFFCURVE",
"269 695 CURVE SMOOTH",
"235 695 OFFCURVE",
"209 700 OFFCURVE",
"184 700 CURVE SMOOTH",
"104 700 OFFCURVE",
"52 662 OFFCURVE",
"34 589 CURVE SMOOTH",
"33 585 OFFCURVE",
"32 578 OFFCURVE",
"32 574 CURVE SMOOTH",
"32 567 OFFCURVE",
"35 562 OFFCURVE",
"40 562 CURVE SMOOTH",
"46 562 OFFCURVE",
"52 569 OFFCURVE",
"59 579 CURVE SMOOTH",
"77 604 OFFCURVE",
"103 615 OFFCURVE",
"145 615 CURVE SMOOTH",
"176 615 OFFCURVE",
"192 610 OFFCURVE",
"205 610 CURVE SMOOTH",
"214 610 LINE",
"140 177 LINE SMOOTH",
"129 110 OFFCURVE",
"119 87 OFFCURVE",
"93 65 CURVE SMOOTH",
"74 49 OFFCURVE",
"61 30 OFFCURVE",
"61 10 CURVE SMOOTH",
"61 4 OFFCURVE",
"64 0 OFFCURVE",
"69 0 CURVE SMOOTH",
"78 0 OFFCURVE",
"96 16 OFFCURVE",
"131 16 CURVE SMOOTH",
"163 16 OFFCURVE",
"186 0 OFFCURVE",
"214 0 CURVE SMOOTH",
"238 0 OFFCURVE",
"257 10 OFFCURVE",
"288 53 CURVE SMOOTH",
"296 64 OFFCURVE",
"300 71 OFFCURVE",
"300 80 CURVE SMOOTH",
"300 85 OFFCURVE",
"297 89 OFFCURVE",
"292 89 CURVE SMOOTH",
"280 89 OFFCURVE",
"272 78 OFFCURVE",
"248 78 CURVE SMOOTH",
"234 78 OFFCURVE",
"221 81 OFFCURVE",
"213 85 CURVE",
"213 86 LINE",
"224 96 OFFCURVE",
"230 113 OFFCURVE",
"233 131 CURVE SMOOTH",
"288 464 LINE",
"289 464 LINE",
"295 445 OFFCURVE",
"307 414 OFFCURVE",
"321 387 CURVE SMOOTH",
"385 260 LINE SMOOTH",
"404 222 OFFCURVE",
"427 180 OFFCURVE",
"442 149 CURVE SMOOTH",
"472 87 OFFCURVE",
"441 30 OFFCURVE",
"441 2 CURVE SMOOTH",
"441 -5 OFFCURVE",
"447 -10 OFFCURVE",
"455 -10 CURVE SMOOTH"
);
}
);
};
layerId = "56450C88-1299-454A-B666-E6F9AF06B23F";
paths = (
{
closed = 1;
nodes = (
"489 -10 OFFCURVE",
"546 62 OFFCURVE",
"556 120 CURVE SMOOTH",
"635 579 LINE SMOOTH",
"652 676 OFFCURVE",
"673 742 OFFCURVE",
"708 781 CURVE SMOOTH",
"739 815 OFFCURVE",
"769 819 OFFCURVE",
"818 822 CURVE SMOOTH",
"858 824 OFFCURVE",
"896 852 OFFCURVE",
"896 880 CURVE SMOOTH",
"896 888 OFFCURVE",
"893 895 OFFCURVE",
"884 895 CURVE SMOOTH",
"881 895 OFFCURVE",
"878 894 OFFCURVE",
"873 892 CURVE SMOOTH",
"860 887 OFFCURVE",
"855 886 OFFCURVE",
"834 885 CURVE SMOOTH",
"769 882 OFFCURVE",
"711 877 OFFCURVE",
"656 831 CURVE SMOOTH",
"601 785 OFFCURVE",
"560 710 OFFCURVE",
"536 562 CURVE SMOOTH",
"487 259 LINE",
"486 259 LINE",
"461 313 OFFCURVE",
"483 265 OFFCURVE",
"457 319 CURVE SMOOTH",
"405 424 LINE SMOOTH",
"355 525 OFFCURVE",
"322 587 OFFCURVE",
"322 654 CURVE SMOOTH",
"322 670 OFFCURVE",
"324 683 OFFCURVE",
"330 700 CURVE",
"310 700 OFFCURVE",
"292 695 OFFCURVE",
"259 695 CURVE SMOOTH",
"225 695 OFFCURVE",
"200 700 OFFCURVE",
"173 700 CURVE SMOOTH",
"89 700 OFFCURVE",
"36 653 OFFCURVE",
"24 589 CURVE SMOOTH",
"23 583 OFFCURVE",
"22 578 OFFCURVE",
"22 573 CURVE SMOOTH",
"22 565 OFFCURVE",
"25 562 OFFCURVE",
"30 562 CURVE SMOOTH",
"36 562 OFFCURVE",
"42 569 OFFCURVE",
"50 579 CURVE SMOOTH",
"74 609 OFFCURVE",
"99 616 OFFCURVE",
"135 616 CURVE SMOOTH",
"168 616 OFFCURVE",
"181 610 OFFCURVE",
"197 610 CURVE SMOOTH",
"204 610 LINE",
"130 177 LINE SMOOTH",
"117 103 OFFCURVE",
"112 93 OFFCURVE",
"83 65 CURVE SMOOTH",
"67 50 OFFCURVE",
"51 33 OFFCURVE",
"51 12 CURVE SMOOTH",
"51 3 OFFCURVE",
"54 0 OFFCURVE",
"58 0 CURVE SMOOTH",
"68 0 OFFCURVE",
"87 16 OFFCURVE",
"121 16 CURVE SMOOTH",
"154 16 OFFCURVE",
"176 0 OFFCURVE",
"205 0 CURVE SMOOTH",
"227 0 OFFCURVE",
"247 9 OFFCURVE",
"278 53 CURVE SMOOTH",
"286 64 OFFCURVE",
"290 72 OFFCURVE",
"290 80 CURVE SMOOTH",
"290 86 OFFCURVE",
"288 89 OFFCURVE",
"282 89 CURVE SMOOTH",
"270 89 OFFCURVE",
"262 78 OFFCURVE",
"237 78 CURVE SMOOTH",
"223 78 OFFCURVE",
"208 81 OFFCURVE",
"200 85 CURVE",
"200 86 LINE",
"211 96 OFFCURVE",
"220 113 OFFCURVE",
"223 131 CURVE SMOOTH",
"278 464 LINE",
"279 464 LINE",
"286 442 OFFCURVE",
"298 413 OFFCURVE",
"311 387 CURVE SMOOTH",
"375 260 LINE SMOOTH",
"386 237 OFFCURVE",
"423 167 OFFCURVE",
"432 149 CURVE SMOOTH",
"443 126 OFFCURVE",
"445 107 OFFCURVE",
"445 91 CURVE SMOOTH",
"445 47 OFFCURVE",
"431 16 OFFCURVE",
"431 1 CURVE SMOOTH",
"431 -6 OFFCURVE",
"434 -10 OFFCURVE",
"444 -10 CURVE SMOOTH"
);
}
);
width = 694;
},
{
anchors = (
{
name = bottom;
position = "{293, 0}";
},
{
name = top;
position = "{445, 700}";
}
);
background = {
anchors = (
{
name = bottom;
position = "{293, 0}";
},
{
name = top;
position = "{445, 700}";
}
);
paths = (
{
closed = 1;
nodes = (
"472 -10 OFFCURVE",
"524 65 OFFCURVE",
"531 110 CURVE SMOOTH",
"610 593 LINE SMOOTH",
"624 681 OFFCURVE",
"646 758 OFFCURVE",
"693 807 CURVE SMOOTH",
"731 847 OFFCURVE",
"768 850 OFFCURVE",
"808 853 CURVE SMOOTH",
"839 855 OFFCURVE",
"870 878 OFFCURVE",
"870 897 CURVE SMOOTH",
"870 903 OFFCURVE",
"867 905 OFFCURVE",
"864 905 CURVE SMOOTH",
"862 905 OFFCURVE",
"859 904 OFFCURVE",
"855 902 CURVE SMOOTH",
"845 898 OFFCURVE",
"838 897 OFFCURVE",
"824 896 CURVE SMOOTH",
"771 893 OFFCURVE",
"717 889 OFFCURVE",
"661 839 CURVE SMOOTH",
"593 778 OFFCURVE",
"559 681 OFFCURVE",
"541 563 CURVE SMOOTH",
"487 209 LINE",
"486 209 LINE",
"476 234 OFFCURVE",
"462 263 OFFCURVE",
"434 315 CURVE SMOOTH",
"377 421 LINE SMOOTH",
"321 525 OFFCURVE",
"292 599 OFFCURVE",
"292 657 CURVE SMOOTH",
"292 675 OFFCURVE",
"295 690 OFFCURVE",
"298 700 CURVE",
"277 700 OFFCURVE",
"267 696 OFFCURVE",
"238 696 CURVE SMOOTH",
"208 696 OFFCURVE",
"181 700 OFFCURVE",
"159 700 CURVE SMOOTH",
"93 700 OFFCURVE",
"46 665 OFFCURVE",
"33 606 CURVE SMOOTH",
"32 602 OFFCURVE",
"32 598 OFFCURVE",
"32 594 CURVE SMOOTH",
"32 590 OFFCURVE",
"34 585 OFFCURVE",
"39 585 CURVE SMOOTH",
"44 585 OFFCURVE",
"46 593 OFFCURVE",
"53 603 CURVE SMOOTH",
"64 619 OFFCURVE",
"89 640 OFFCURVE",
"137 640 CURVE SMOOTH",
"161 640 OFFCURVE",
"189 635 OFFCURVE",
"204 635 CURVE SMOOTH",
"211 635 LINE",
"135 151 LINE SMOOTH",
"125 88 OFFCURVE",
"123 86 OFFCURVE",
"81 51 CURVE SMOOTH",
"67 40 OFFCURVE",
"59 22 OFFCURVE",
"59 9 CURVE SMOOTH",
"59 4 OFFCURVE",
"60 0 OFFCURVE",
"64 0 CURVE SMOOTH",
"72 0 OFFCURVE",
"90 17 OFFCURVE",
"115 17 CURVE SMOOTH",
"140 17 OFFCURVE",
"161 0 OFFCURVE",
"181 0 CURVE SMOOTH",
"189 0 OFFCURVE",
"208 3 OFFCURVE",
"244 41 CURVE SMOOTH",
"255 52 OFFCURVE",
"257 58 OFFCURVE",
"257 62 CURVE SMOOTH",
"257 67 OFFCURVE",
"254 70 OFFCURVE",
"250 70 CURVE SMOOTH",
"241 70 OFFCURVE",
"237 59 OFFCURVE",
"213 59 CURVE SMOOTH",
"201 59 OFFCURVE",
"187 62 OFFCURVE",
"172 68 CURVE",
"172 69 LINE",
"180 78 OFFCURVE",
"186 93 OFFCURVE",
"189 111 CURVE SMOOTH",
"253 513 LINE",
"254 513 LINE",
"276 463 OFFCURVE",
"298 412 OFFCURVE",
"338 339 CURVE SMOOTH",
"378 266 LINE SMOOTH",
"402 222 OFFCURVE",
"428 171 OFFCURVE",
"439 138 CURVE SMOOTH",
"445 120 OFFCURVE",
"447 106 OFFCURVE",
"447 90 CURVE SMOOTH",
"447 52 OFFCURVE",
"435 14 OFFCURVE",
"435 3 CURVE SMOOTH",
"435 -3 OFFCURVE",
"439 -10 OFFCURVE",
"447 -10 CURVE SMOOTH"
);
}
);
};
layerId = "0B1DFD06-3317-40CA-B510-4969A0718C16";
paths = (
{
closed = 1;
nodes = (
"472 -10 OFFCURVE",
"524 65 OFFCURVE",
"531 110 CURVE SMOOTH",
"610 593 LINE SMOOTH",
"624 681 OFFCURVE",
"646 758 OFFCURVE",
"693 807 CURVE SMOOTH",
"731 847 OFFCURVE",
"768 850 OFFCURVE",
"808 853 CURVE SMOOTH",
"839 855 OFFCURVE",
"870 878 OFFCURVE",
"870 897 CURVE SMOOTH",
"870 903 OFFCURVE",
"867 905 OFFCURVE",
"864 905 CURVE SMOOTH",
"862 905 OFFCURVE",
"859 904 OFFCURVE",
"855 902 CURVE SMOOTH",
"845 898 OFFCURVE",
"838 897 OFFCURVE",
"824 896 CURVE SMOOTH",
"771 893 OFFCURVE",
"717 889 OFFCURVE",
"661 839 CURVE SMOOTH",
"593 778 OFFCURVE",
"559 681 OFFCURVE",
"541 563 CURVE SMOOTH",
"487 209 LINE",
"486 209 LINE",
"476 234 OFFCURVE",
"462 263 OFFCURVE",
"434 315 CURVE SMOOTH",
"377 421 LINE SMOOTH",
"321 525 OFFCURVE",
"292 599 OFFCURVE",
"292 657 CURVE SMOOTH",
"292 675 OFFCURVE",
"295 690 OFFCURVE",
"298 700 CURVE",
"277 700 OFFCURVE",
"267 696 OFFCURVE",
"238 696 CURVE SMOOTH",
"208 696 OFFCURVE",
"181 700 OFFCURVE",
"159 700 CURVE SMOOTH",
"93 700 OFFCURVE",
"46 665 OFFCURVE",
"33 606 CURVE SMOOTH",
"32 602 OFFCURVE",
"32 598 OFFCURVE",
"32 594 CURVE SMOOTH",
"32 590 OFFCURVE",
"34 585 OFFCURVE",
"39 585 CURVE SMOOTH",
"44 585 OFFCURVE",
"46 593 OFFCURVE",
"53 603 CURVE SMOOTH",
"64 619 OFFCURVE",
"89 640 OFFCURVE",
"137 640 CURVE SMOOTH",
"161 640 OFFCURVE",
"189 635 OFFCURVE",
"204 635 CURVE SMOOTH",
"211 635 LINE",
"135 151 LINE SMOOTH",
"125 88 OFFCURVE",
"123 86 OFFCURVE",
"81 51 CURVE SMOOTH",
"67 40 OFFCURVE",
"59 22 OFFCURVE",
"59 9 CURVE SMOOTH",
"59 4 OFFCURVE",
"60 0 OFFCURVE",
"64 0 CURVE SMOOTH",
"72 0 OFFCURVE",
"90 17 OFFCURVE",
"115 17 CURVE SMOOTH",
"140 17 OFFCURVE",
"161 0 OFFCURVE",
"181 0 CURVE SMOOTH",
"189 0 OFFCURVE",
"208 3 OFFCURVE",
"244 41 CURVE SMOOTH",
"255 52 OFFCURVE",
"257 58 OFFCURVE",
"257 62 CURVE SMOOTH",
"257 67 OFFCURVE",
"254 70 OFFCURVE",
"250 70 CURVE SMOOTH",
"241 70 OFFCURVE",
"237 59 OFFCURVE",
"213 59 CURVE SMOOTH",
"201 59 OFFCURVE",
"187 62 OFFCURVE",
"172 68 CURVE",
"172 69 LINE",
"180 78 OFFCURVE",
"186 93 OFFCURVE",
"189 111 CURVE SMOOTH",
"253 513 LINE",
"254 513 LINE",
"276 463 OFFCURVE",
"298 412 OFFCURVE",
"338 339 CURVE SMOOTH",
"378 266 LINE SMOOTH",
"402 222 OFFCURVE",
"428 171 OFFCURVE",
"439 138 CURVE SMOOTH",
"445 120 OFFCURVE",
"447 106 OFFCURVE",
"447 90 CURVE SMOOTH",
"447 52 OFFCURVE",
"435 14 OFFCURVE",
"435 3 CURVE SMOOTH",
"435 -3 OFFCURVE",
"439 -10 OFFCURVE",
"447 -10 CURVE SMOOTH"
);
}
);
width = 678;
}
);
leftKerningGroup = H;
note = N;
rightKerningGroup = N;
unicode = 004E;
},
{
glyphname = O;
lastChange = "2018-05-23 06:41:33 +0000";
layers = (
{
anchors = (
{
name = bottom;
position = "{244, 0}";
},
{
name = center;
position = "{325, 350}";
},
{
name = ogonek;
position = "{325, 9}";
},
{
name = top;
position = "{419, 700}";
},
{
name = topright;
position = "{567, 597}";
}
);
background = {
anchors = (
{
name = bottom;
position = "{335, 0}";
},
{
name = center;
position = "{335, 350}";
},
{
name = ogonek;
position = "{575, 10}";
},
{
name = top;
position = "{435, 700}";
},
{
name = topleft;
position = "{55, 700}";
},
{
name = topright;
position = "{615, 700}";
}
);
paths = (
{
closed = 1;
nodes = (
"437 -10 OFFCURVE",
"608 205 OFFCURVE",
"608 454 CURVE SMOOTH",
"608 608 OFFCURVE",
"536 710 OFFCURVE",
"429 710 CURVE SMOOTH",
"199 710 OFFCURVE",
"62 435 OFFCURVE",
"62 232 CURVE SMOOTH",
"62 87 OFFCURVE",
"134 -10 OFFCURVE",
"242 -10 CURVE SMOOTH"
);
},
{
closed = 1;
nodes = (
"220 68 OFFCURVE",
"182 135 OFFCURVE",
"182 268 CURVE SMOOTH",
"182 462 OFFCURVE",
"265 632 OFFCURVE",
"383 632 CURVE SMOOTH",
"452 632 OFFCURVE",
"488 556 OFFCURVE",
"488 407 CURVE SMOOTH",
"488 273 OFFCURVE",
"426 68 OFFCURVE",
"294 68 CURVE SMOOTH"
);
}
);
};
layerId = "56450C88-1299-454A-B666-E6F9AF06B23F";
paths = (
{
closed = 1;
nodes = (
"423 -10 OFFCURVE",
"598 205 OFFCURVE",
"598 455 CURVE SMOOTH",
"598 608 OFFCURVE",
"533 710 OFFCURVE",
"405 710 CURVE SMOOTH",
"196 710 OFFCURVE",
"52 435 OFFCURVE",
"52 230 CURVE SMOOTH",
"52 98 OFFCURVE",
"112 -10 OFFCURVE",
"241 -10 CURVE SMOOTH"
);
},
{
closed = 1;
nodes = (
"210 68 OFFCURVE",
"172 135 OFFCURVE",
"172 266 CURVE SMOOTH",
"172 463 OFFCURVE",
"258 632 OFFCURVE",
"367 632 CURVE SMOOTH",
"442 632 OFFCURVE",
"478 552 OFFCURVE",
"478 426 CURVE SMOOTH",
"478 256 OFFCURVE",
"412 68 OFFCURVE",
"286 68 CURVE SMOOTH"
);
}
);
width = 624;
},
{
anchors = (
{
name = bottom;
position = "{236, 0}";
},
{
name = center;
position = "{306, 350}";
},
{
name = ogonek;
position = "{316, 12}";
},
{
name = top;
position = "{422, 700}";
},
{
name = topright;
position = "{543, 608}";
}
);
background = {
anchors = (
{
name = bottom;
position = "{236, 0}";
},
{
name = center;
position = "{306, 350}";
},
{
name = ogonek;
position = "{316, 12}";
},
{
name = top;
position = "{422, 700}";
},
{
name = topright;
position = "{543, 608}";
}
);
paths = (
{
closed = 1;
nodes = (
"414 -10 OFFCURVE",
"576 210 OFFCURVE",
"576 460 CURVE SMOOTH",
"576 584 OFFCURVE",
"536 710 OFFCURVE",
"402 710 CURVE SMOOTH",
"203 710 OFFCURVE",
"62 433 OFFCURVE",
"62 233 CURVE SMOOTH",
"62 157 OFFCURVE",
"82 -10 OFFCURVE",
"237 -10 CURVE SMOOTH"
);
},
{
closed = 1;
nodes = (
"196 46 OFFCURVE",
"148 125 OFFCURVE",
"148 271 CURVE SMOOTH",
"148 495 OFFCURVE",
"261 654 OFFCURVE",
"367 654 CURVE SMOOTH",
"453 654 OFFCURVE",
"490 551 OFFCURVE",
"490 428 CURVE SMOOTH",
"490 250 OFFCURVE",
"412 46 OFFCURVE",
"279 46 CURVE SMOOTH"
);
}
);
};
layerId = "0B1DFD06-3317-40CA-B510-4969A0718C16";
paths = (
{
closed = 1;
nodes = (
"414 -10 OFFCURVE",
"576 210 OFFCURVE",
"576 460 CURVE SMOOTH",
"576 584 OFFCURVE",
"536 710 OFFCURVE",
"402 710 CURVE SMOOTH",
"203 710 OFFCURVE",
"62 433 OFFCURVE",
"62 233 CURVE SMOOTH",
"62 157 OFFCURVE",
"82 -10 OFFCURVE",
"237 -10 CURVE SMOOTH"
);
},
{
closed = 1;
nodes = (
"196 46 OFFCURVE",
"148 125 OFFCURVE",
"148 271 CURVE SMOOTH",
"148 495 OFFCURVE",
"261 654 OFFCURVE",
"367 654 CURVE SMOOTH",
"453 654 OFFCURVE",
"490 551 OFFCURVE",
"490 428 CURVE SMOOTH",
"490 250 OFFCURVE",
"412 46 OFFCURVE",
"279 46 CURVE SMOOTH"
);
}
);
width = 612;
}
);
leftKerningGroup = O;
note = O;
rightKerningGroup = O;
unicode = 004F;
},
{
glyphname = P;
lastChange = "2018-05-23 06:41:33 +0000";
layers = (
{
anchors = (
{
name = bottom;
position = "{148, 0}";
},
{
name = top;
position = "{327, 700}";
}
);
background = {
paths = (
{
closed = 1;
nodes = (
"123 110 OFFCURVE",
"114 87 OFFCURVE",
"88 65 CURVE SMOOTH",
"69 49 OFFCURVE",
"56 30 OFFCURVE",
"56 10 CURVE SMOOTH",
"56 4 OFFCURVE",
"59 0 OFFCURVE",
"64 0 CURVE SMOOTH",
"73 0 OFFCURVE",
"91 16 OFFCURVE",
"126 16 CURVE SMOOTH",
"158 16 OFFCURVE",
"189 0 OFFCURVE",
"217 0 CURVE SMOOTH",
"241 0 OFFCURVE",
"260 10 OFFCURVE",
"295 53 CURVE SMOOTH",
"304 64 OFFCURVE",
"307 72 OFFCURVE",
"307 81 CURVE SMOOTH",
"307 86 OFFCURVE",
"304 89 OFFCURVE",
"299 89 CURVE SMOOTH",
"288 89 OFFCURVE",
"277 78 OFFCURVE",
"251 78 CURVE SMOOTH",
"239 78 OFFCURVE",
"224 81 OFFCURVE",
"212 87 CURVE",
"212 88 LINE",
"223 98 OFFCURVE",
"232 115 OFFCURVE",
"235 133 CURVE SMOOTH",
"257 266 LINE",
"416 279 OFFCURVE",
"569 403 OFFCURVE",
"569 540 CURVE SMOOTH",
"569 647 OFFCURVE",
"481 710 OFFCURVE",
"331 710 CURVE SMOOTH",
"210 710 OFFCURVE",
"102 649 OFFCURVE",
"61 558 CURVE SMOOTH",
"57 549 OFFCURVE",
"56 543 OFFCURVE",
"56 538 CURVE SMOOTH",
"56 530 OFFCURVE",
"60 525 OFFCURVE",
"68 525 CURVE SMOOTH",
"80 525 OFFCURVE",
"85 533 OFFCURVE",
"101 549 CURVE SMOOTH",
"156 604 OFFCURVE",
"230 633 OFFCURVE",
"315 633 CURVE SMOOTH",
"412 629 OFFCURVE",
"463 587 OFFCURVE",
"463 510 CURVE SMOOTH",
"463 404 OFFCURVE",
"403 342 OFFCURVE",
"301 342 CURVE SMOOTH",
"291 342 OFFCURVE",
"278 344 OFFCURVE",
"268 346 CURVE",
"292 500 LINE SMOOTH",
"300 554 OFFCURVE",
"319 563 OFFCURVE",
"319 578 CURVE SMOOTH",
"319 586 OFFCURVE",
"315 592 OFFCURVE",
"300 592 CURVE SMOOTH",
"248 592 OFFCURVE",
"193 546 OFFCURVE",
"187 508 CURVE SMOOTH",
"134 177 LINE SMOOTH"
);
}
);
};
layerId = "56450C88-1299-454A-B666-E6F9AF06B23F";
paths = (
{
closed = 1;
nodes = (
"63 0 OFFCURVE",
"82 16 OFFCURVE",
"116 16 CURVE SMOOTH",
"149 16 OFFCURVE",
"179 0 OFFCURVE",
"206 0 CURVE SMOOTH",
"228 0 OFFCURVE",
"252 10 OFFCURVE",
"285 53 CURVE SMOOTH",
"292 62 OFFCURVE",
"297 70 OFFCURVE",
"297 80 CURVE SMOOTH",
"297 86 OFFCURVE",
"295 89 OFFCURVE",
"289 89 CURVE SMOOTH",
"278 89 OFFCURVE",
"266 78 OFFCURVE",
"242 78 CURVE SMOOTH",
"229 78 OFFCURVE",
"214 81 OFFCURVE",
"202 87 CURVE",
"202 88 LINE",
"213 98 OFFCURVE",
"222 115 OFFCURVE",
"225 133 CURVE SMOOTH",
"247 266 LINE",
"426 272 OFFCURVE",
"559 403 OFFCURVE",
"559 540 CURVE SMOOTH",
"559 647 OFFCURVE",
"466 710 OFFCURVE",
"329 710 CURVE SMOOTH",
"177 710 OFFCURVE",
"82 632 OFFCURVE",
"51 558 CURVE SMOOTH",
"47 549 OFFCURVE",
"46 543 OFFCURVE",
"46 538 CURVE SMOOTH",
"46 530 OFFCURVE",
"48 525 OFFCURVE",
"56 525 CURVE SMOOTH",
"68 525 OFFCURVE",
"74 534 OFFCURVE",
"91 550 CURVE SMOOTH",
"144 600 OFFCURVE",
"214 633 OFFCURVE",
"302 633 CURVE SMOOTH",
"402 633 OFFCURVE",
"453 591 OFFCURVE",
"453 504 CURVE SMOOTH",
"453 409 OFFCURVE",
"393 342 OFFCURVE",
"296 342 CURVE SMOOTH",
"279 342 OFFCURVE",
"268 344 OFFCURVE",
"258 346 CURVE",
"282 500 LINE SMOOTH",
"292 568 OFFCURVE",
"306 567 OFFCURVE",
"306 582 CURVE SMOOTH",
"306 589 OFFCURVE",
"303 592 OFFCURVE",
"290 592 CURVE SMOOTH",
"242 592 OFFCURVE",
"184 547 OFFCURVE",
"177 508 CURVE SMOOTH",
"124 177 LINE SMOOTH",
"112 101 OFFCURVE",
"102 89 OFFCURVE",
"78 65 CURVE SMOOTH",
"62 50 OFFCURVE",
"46 33 OFFCURVE",
"46 12 CURVE SMOOTH",
"46 3 OFFCURVE",
"49 0 OFFCURVE",
"53 0 CURVE SMOOTH"
);
}
);
width = 575;
},
{
anchors = (
{
name = bottom;
position = "{145, 0}";
},
{
name = top;
position = "{322, 700}";
}
);
background = {
anchors = (
{
name = bottom;
position = "{145, 0}";
},
{
name = top;
position = "{322, 700}";
}
);
paths = (
{
closed = 1;
nodes = (
"72 0 OFFCURVE",
"90 17 OFFCURVE",
"115 17 CURVE SMOOTH",
"140 17 OFFCURVE",
"170 0 OFFCURVE",
"190 0 CURVE SMOOTH",
"198 0 OFFCURVE",
"215 3 OFFCURVE",
"251 41 CURVE SMOOTH",
"262 52 OFFCURVE",
"264 58 OFFCURVE",
"264 62 CURVE SMOOTH",
"264 67 OFFCURVE",
"261 70 OFFCURVE",
"257 70 CURVE SMOOTH",
"248 70 OFFCURVE",
"238 59 OFFCURVE",
"216 59 CURVE SMOOTH",
"204 59 OFFCURVE",
"196 62 OFFCURVE",
"181 68 CURVE",
"181 69 LINE",
"190 79 OFFCURVE",
"197 94 OFFCURVE",
"200 111 CURVE SMOOTH",
"230 286 LINE",
"378 297 OFFCURVE",
"532 411 OFFCURVE",
"532 549 CURVE SMOOTH",
"532 651 OFFCURVE",
"447 710 OFFCURVE",
"323 710 CURVE SMOOTH",
"179 710 OFFCURVE",
"73 631 OFFCURVE",
"57 564 CURVE SMOOTH",
"56 560 OFFCURVE",
"56 558 OFFCURVE",
"56 554 CURVE SMOOTH",
"56 550 OFFCURVE",
"58 545 OFFCURVE",
"64 545 CURVE SMOOTH",
"71 545 OFFCURVE",
"76 552 OFFCURVE",
"88 566 CURVE SMOOTH",
"140 626 OFFCURVE",
"210 655 OFFCURVE",
"290 655 CURVE SMOOTH",
"394 655 OFFCURVE",
"454 607 OFFCURVE",
"454 515 CURVE SMOOTH",
"454 417 OFFCURVE",
"386 342 OFFCURVE",
"288 342 CURVE SMOOTH",
"272 342 OFFCURVE",
"251 344 OFFCURVE",
"242 346 CURVE",
"272 539 LINE SMOOTH",
"280 588 OFFCURVE",
"297 593 OFFCURVE",
"297 602 CURVE SMOOTH",
"297 606 OFFCURVE",
"293 608 OFFCURVE",
"286 608 CURVE SMOOTH",
"255 608 OFFCURVE",
"202 566 OFFCURVE",
"196 533 CURVE SMOOTH",
"135 174 LINE SMOOTH",
"121 94 OFFCURVE",
"137 110 OFFCURVE",
"81 51 CURVE SMOOTH",
"66 36 OFFCURVE",
"59 25 OFFCURVE",
"59 10 CURVE SMOOTH",
"59 4 OFFCURVE",
"60 0 OFFCURVE",
"64 0 CURVE SMOOTH"
);
}
);
};
layerId = "0B1DFD06-3317-40CA-B510-4969A0718C16";
paths = (
{
closed = 1;
nodes = (
"72 0 OFFCURVE",
"90 17 OFFCURVE",
"115 17 CURVE SMOOTH",
"140 17 OFFCURVE",
"170 0 OFFCURVE",
"190 0 CURVE SMOOTH",
"198 0 OFFCURVE",
"215 3 OFFCURVE",
"251 41 CURVE SMOOTH",
"262 52 OFFCURVE",
"264 58 OFFCURVE",
"264 62 CURVE SMOOTH",
"264 67 OFFCURVE",
"261 70 OFFCURVE",
"257 70 CURVE SMOOTH",
"248 70 OFFCURVE",
"238 59 OFFCURVE",
"216 59 CURVE SMOOTH",
"204 59 OFFCURVE",
"196 62 OFFCURVE",
"181 68 CURVE",
"181 69 LINE",
"190 79 OFFCURVE",
"197 94 OFFCURVE",
"200 111 CURVE SMOOTH",
"230 286 LINE",
"378 297 OFFCURVE",
"532 411 OFFCURVE",
"532 549 CURVE SMOOTH",
"532 651 OFFCURVE",
"447 710 OFFCURVE",
"323 710 CURVE SMOOTH",
"179 710 OFFCURVE",
"73 631 OFFCURVE",
"57 564 CURVE SMOOTH",
"56 560 OFFCURVE",
"56 558 OFFCURVE",
"56 554 CURVE SMOOTH",
"56 550 OFFCURVE",
"58 545 OFFCURVE",
"64 545 CURVE SMOOTH",
"71 545 OFFCURVE",
"76 552 OFFCURVE",
"88 566 CURVE SMOOTH",
"140 626 OFFCURVE",
"210 655 OFFCURVE",
"290 655 CURVE SMOOTH",
"394 655 OFFCURVE",
"454 607 OFFCURVE",
"454 515 CURVE SMOOTH",
"454 417 OFFCURVE",
"386 342 OFFCURVE",
"288 342 CURVE SMOOTH",
"272 342 OFFCURVE",
"251 344 OFFCURVE",
"242 346 CURVE",
"272 539 LINE SMOOTH",
"280 588 OFFCURVE",
"297 593 OFFCURVE",
"297 602 CURVE SMOOTH",
"297 606 OFFCURVE",
"293 608 OFFCURVE",
"286 608 CURVE SMOOTH",
"255 608 OFFCURVE",
"202 566 OFFCURVE",
"196 533 CURVE SMOOTH",
"135 174 LINE SMOOTH",
"121 94 OFFCURVE",
"137 110 OFFCURVE",
"81 51 CURVE SMOOTH",
"66 36 OFFCURVE",
"59 25 OFFCURVE",
"59 10 CURVE SMOOTH",
"59 4 OFFCURVE",
"60 0 OFFCURVE",
"64 0 CURVE SMOOTH"
);
}
);
width = 558;
}
);
leftKerningGroup = P;
note = P;
rightKerningGroup = P;
unicode = 0050;
},
{
glyphname = Q;
lastChange = "2018-05-23 06:41:33 +0000";
layers = (
{
anchors = (
{
name = bottom;
position = "{214, -83}";
},
{
name = top;
position = "{419, 700}";
}
);
background = {
paths = (
{
closed = 1;
nodes = (
"437 -10 OFFCURVE",
"608 205 OFFCURVE",
"608 454 CURVE SMOOTH",
"608 608 OFFCURVE",
"536 710 OFFCURVE",
"429 710 CURVE SMOOTH",
"199 710 OFFCURVE",
"62 435 OFFCURVE",
"62 232 CURVE SMOOTH",
"62 87 OFFCURVE",
"134 -10 OFFCURVE",
"242 -10 CURVE SMOOTH"
);
},
{
closed = 1;
nodes = (
"659 -267 OFFCURVE",
"736 -204 OFFCURVE",
"750 -110 CURVE SMOOTH",
"751 -102 OFFCURVE",
"747 -96 OFFCURVE",
"740 -96 CURVE SMOOTH",
"730 -96 OFFCURVE",
"726 -105 OFFCURVE",
"717 -119 CURVE SMOOTH",
"689 -163 OFFCURVE",
"645 -187 OFFCURVE",
"585 -187 CURVE SMOOTH",
"510 -187 OFFCURVE",
"444 -135 OFFCURVE",
"346 28 CURVE SMOOTH",
"334 48 LINE",
"231 37 LINE",
"249 5 LINE SMOOTH",
"355 -184 OFFCURVE",
"456 -267 OFFCURVE",
"557 -267 CURVE SMOOTH"
);
},
{
closed = 1;
nodes = (
"220 68 OFFCURVE",
"182 135 OFFCURVE",
"182 268 CURVE SMOOTH",
"182 462 OFFCURVE",
"265 632 OFFCURVE",
"383 632 CURVE SMOOTH",
"452 632 OFFCURVE",
"488 556 OFFCURVE",
"488 407 CURVE SMOOTH",
"488 273 OFFCURVE",
"426 68 OFFCURVE",
"294 68 CURVE SMOOTH"
);
}
);
};
components = (
{
name = O;
}
);
layerId = "56450C88-1299-454A-B666-E6F9AF06B23F";
paths = (
{
closed = 1;
nodes = (
"683 -267 OFFCURVE",
"740 -154 OFFCURVE",
"740 -110 CURVE SMOOTH",
"741 -102 OFFCURVE",
"737 -96 OFFCURVE",
"730 -96 CURVE SMOOTH",
"720 -96 OFFCURVE",
"716 -105 OFFCURVE",
"707 -119 CURVE SMOOTH",
"680 -160 OFFCURVE",
"638 -187 OFFCURVE",
"579 -187 CURVE SMOOTH",
"498 -187 OFFCURVE",
"434 -135 OFFCURVE",
"336 28 CURVE SMOOTH",
"324 48 LINE",
"221 37 LINE",
"239 5 LINE SMOOTH",
"344 -182 OFFCURVE",
"438 -267 OFFCURVE",
"552 -267 CURVE SMOOTH"
);
}
);
width = 626;
},
{
anchors = (
{
name = bottom;
position = "{227, -92}";
},
{
name = top;
position = "{422, 700}";
}
);
background = {
anchors = (
{
name = bottom;
position = "{227, -92}";
},
{
name = top;
position = "{422, 700}";
}
);
components = (
{
name = O;
}
);
paths = (
{
closed = 1;
nodes = (
"639 -267 OFFCURVE",
"715 -194 OFFCURVE",
"716 -126 CURVE SMOOTH",
"716 -118 OFFCURVE",
"715 -116 OFFCURVE",
"711 -116 CURVE SMOOTH",
"704 -116 OFFCURVE",
"702 -123 OFFCURVE",
"695 -134 CURVE SMOOTH",
"665 -183 OFFCURVE",
"621 -207 OFFCURVE",
"569 -207 CURVE SMOOTH",
"484 -207 OFFCURVE",
"414 -141 OFFCURVE",
"315 13 CURVE SMOOTH",
"306 27 LINE",
"234 19 LINE",
"245 0 LINE SMOOTH",
"342 -167 OFFCURVE",
"434 -267 OFFCURVE",
"545 -267 CURVE SMOOTH"
);
}
);
};
components = (
{
name = O;
}
);
layerId = "0B1DFD06-3317-40CA-B510-4969A0718C16";
paths = (
{
closed = 1;
nodes = (
"639 -267 OFFCURVE",
"715 -194 OFFCURVE",
"716 -126 CURVE SMOOTH",
"716 -118 OFFCURVE",
"715 -116 OFFCURVE",
"711 -116 CURVE SMOOTH",
"704 -116 OFFCURVE",
"702 -123 OFFCURVE",
"695 -134 CURVE SMOOTH",
"665 -183 OFFCURVE",
"621 -207 OFFCURVE",
"569 -207 CURVE SMOOTH",
"484 -207 OFFCURVE",
"414 -141 OFFCURVE",
"315 13 CURVE SMOOTH",
"306 27 LINE",
"234 19 LINE",
"245 0 LINE SMOOTH",
"342 -167 OFFCURVE",
"434 -267 OFFCURVE",
"545 -267 CURVE SMOOTH"
);
}
);
width = 612;
}
);
leftKerningGroup = O;
note = Q;
rightKerningGroup = O;
unicode = 0051;
},
{
glyphname = R;
lastChange = "2018-05-23 06:41:33 +0000";
layers = (
{
anchors = (
{
name = bottom;
position = "{299, 0}";
},
{
name = top;
position = "{344, 700}";
}
);
background = {
paths = (
{
closed = 1;
nodes = (
"70 0 OFFCURVE",
"88 16 OFFCURVE",
"123 16 CURVE SMOOTH",
"155 16 OFFCURVE",
"185 0 OFFCURVE",
"213 0 CURVE SMOOTH",
"237 0 OFFCURVE",
"256 9 OFFCURVE",
"285 52 CURVE SMOOTH",
"291 61 OFFCURVE",
"295 72 OFFCURVE",
"295 81 CURVE SMOOTH",
"295 86 OFFCURVE",
"291 89 OFFCURVE",
"286 89 CURVE SMOOTH",
"275 89 OFFCURVE",
"265 78 OFFCURVE",
"245 78 CURVE SMOOTH",
"233 78 OFFCURVE",
"220 81 OFFCURVE",
"208 87 CURVE",
"208 88 LINE",
"219 98 OFFCURVE",
"228 115 OFFCURVE",
"231 133 CURVE SMOOTH",
"259 306 LINE",
"428 321 OFFCURVE",
"555 403 OFFCURVE",
"555 540 CURVE SMOOTH",
"555 647 OFFCURVE",
"477 710 OFFCURVE",
"327 710 CURVE SMOOTH",
"206 710 OFFCURVE",
"98 649 OFFCURVE",
"57 558 CURVE SMOOTH",
"53 549 OFFCURVE",
"52 543 OFFCURVE",
"52 538 CURVE SMOOTH",
"52 530 OFFCURVE",
"56 525 OFFCURVE",
"64 525 CURVE SMOOTH",
"76 525 OFFCURVE",
"81 533 OFFCURVE",
"97 549 CURVE SMOOTH",
"152 604 OFFCURVE",
"226 633 OFFCURVE",
"311 633 CURVE SMOOTH",
"408 633 OFFCURVE",
"449 587 OFFCURVE",
"449 510 CURVE SMOOTH",
"449 404 OFFCURVE",
"400 352 OFFCURVE",
"298 352 CURVE SMOOTH",
"288 352 OFFCURVE",
"275 354 OFFCURVE",
"265 356 CURVE",
"288 500 LINE SMOOTH",
"297 554 OFFCURVE",
"315 563 OFFCURVE",
"315 578 CURVE SMOOTH",
"315 586 OFFCURVE",
"311 592 OFFCURVE",
"296 592 CURVE SMOOTH",
"244 592 OFFCURVE",
"191 546 OFFCURVE",
"185 508 CURVE SMOOTH",
"132 177 LINE SMOOTH",
"121 110 OFFCURVE",
"111 87 OFFCURVE",
"85 65 CURVE SMOOTH",
"66 49 OFFCURVE",
"53 30 OFFCURVE",
"53 10 CURVE SMOOTH",
"53 4 OFFCURVE",
"56 0 OFFCURVE",
"61 0 CURVE SMOOTH"
);
},
{
closed = 1;
nodes = (
"576 -10 OFFCURVE",
"627 47 OFFCURVE",
"627 108 CURVE SMOOTH",
"627 122 OFFCURVE",
"623 132 OFFCURVE",
"612 132 CURVE SMOOTH",
"606 132 OFFCURVE",
"600 125 OFFCURVE",
"594 116 CURVE SMOOTH",
"582 97 OFFCURVE",
"567 88 OFFCURVE",
"547 88 CURVE SMOOTH",
"527 88 OFFCURVE",
"514 99 OFFCURVE",
"498 138 CURVE SMOOTH",
"445 264 LINE SMOOTH",
"427 307 OFFCURVE",
"390 336 OFFCURVE",
"344 342 CURVE",
"281 332 LINE",
"259 306 LINE",
"317 306 OFFCURVE",
"321 288 OFFCURVE",
"341 240 CURVE SMOOTH",
"405 87 LINE SMOOTH",
"433 21 OFFCURVE",
"465 -10 OFFCURVE",
"519 -10 CURVE SMOOTH"
);
}
);
};
layerId = "56450C88-1299-454A-B666-E6F9AF06B23F";
paths = (
{
closed = 1;
nodes = (
"569 -10 OFFCURVE",
"617 48 OFFCURVE",
"617 107 CURVE SMOOTH",
"617 124 OFFCURVE",
"613 132 OFFCURVE",
"605 132 CURVE SMOOTH",
"598 132 OFFCURVE",
"593 125 OFFCURVE",
"587 116 CURVE SMOOTH",
"573 96 OFFCURVE",
"557 88 OFFCURVE",
"537 88 CURVE SMOOTH",
"520 88 OFFCURVE",
"506 94 OFFCURVE",
"488 138 CURVE SMOOTH",
"435 264 LINE SMOOTH",
"422 295 OFFCURVE",
"400 318 OFFCURVE",
"371 331 CURVE",
"479 369 OFFCURVE",
"545 442 OFFCURVE",
"545 539 CURVE SMOOTH",
"545 647 OFFCURVE",
"463 710 OFFCURVE",
"326 710 CURVE SMOOTH",
"175 710 OFFCURVE",
"79 634 OFFCURVE",
"47 558 CURVE SMOOTH",
"43 549 OFFCURVE",
"42 543 OFFCURVE",
"42 538 CURVE SMOOTH",
"42 530 OFFCURVE",
"44 525 OFFCURVE",
"52 525 CURVE SMOOTH",
"64 525 OFFCURVE",
"70 534 OFFCURVE",
"87 550 CURVE SMOOTH",
"141 601 OFFCURVE",
"212 633 OFFCURVE",
"298 633 CURVE SMOOTH",
"402 633 OFFCURVE",
"439 587 OFFCURVE",
"439 504 CURVE SMOOTH",
"439 409 OFFCURVE",
"390 352 OFFCURVE",
"294 352 CURVE SMOOTH",
"276 352 OFFCURVE",
"265 354 OFFCURVE",
"255 356 CURVE",
"278 500 LINE SMOOTH",
"288 561 OFFCURVE",
"304 566 OFFCURVE",
"304 582 CURVE SMOOTH",
"304 589 OFFCURVE",
"301 592 OFFCURVE",
"288 592 CURVE SMOOTH",
"240 592 OFFCURVE",
"182 547 OFFCURVE",
"175 508 CURVE SMOOTH",
"122 177 LINE SMOOTH",
"110 102 OFFCURVE",
"100 90 OFFCURVE",
"75 65 CURVE SMOOTH",
"59 50 OFFCURVE",
"43 33 OFFCURVE",
"43 12 CURVE SMOOTH",
"43 3 OFFCURVE",
"46 0 OFFCURVE",
"50 0 CURVE SMOOTH",
"60 0 OFFCURVE",
"79 16 OFFCURVE",
"112 16 CURVE SMOOTH",
"145 16 OFFCURVE",
"176 0 OFFCURVE",
"202 0 CURVE SMOOTH",
"220 0 OFFCURVE",
"249 8 OFFCURVE",
"275 52 CURVE SMOOTH",
"281 62 OFFCURVE",
"285 71 OFFCURVE",
"285 80 CURVE SMOOTH",
"285 86 OFFCURVE",
"283 89 OFFCURVE",
"277 89 CURVE SMOOTH",
"266 89 OFFCURVE",
"256 78 OFFCURVE",
"234 78 CURVE SMOOTH",
"223 78 OFFCURVE",
"210 81 OFFCURVE",
"198 87 CURVE",
"198 88 LINE",
"209 98 OFFCURVE",
"218 115 OFFCURVE",
"221 133 CURVE SMOOTH",
"249 306 LINE",
"307 306 OFFCURVE",
"311 288 OFFCURVE",
"331 240 CURVE SMOOTH",
"395 87 LINE SMOOTH",
"423 21 OFFCURVE",
"457 -10 OFFCURVE",
"504 -10 CURVE SMOOTH"
);
}
);
width = 617;
},
{
anchors = (
{
name = bottom;
position = "{286, 0}";
},
{
name = top;
position = "{334, 700}";
}
);
background = {
anchors = (
{
name = bottom;
position = "{286, 0}";
},
{
name = top;
position = "{334, 700}";
}
);
paths = (
{
closed = 1;
nodes = (
"538 -10 OFFCURVE",
"590 43 OFFCURVE",
"590 93 CURVE SMOOTH",
"590 100 OFFCURVE",
"589 106 OFFCURVE",
"582 106 CURVE SMOOTH",
"576 106 OFFCURVE",
"575 101 OFFCURVE",
"565 89 CURVE SMOOTH",
"551 72 OFFCURVE",
"535 62 OFFCURVE",
"517 62 CURVE SMOOTH",
"492 62 OFFCURVE",
"481 81 OFFCURVE",
"470 111 CURVE SMOOTH",
"419 248 LINE SMOOTH",
"406 282 OFFCURVE",
"383 315 OFFCURVE",
"340 328 CURVE",
"441 358 OFFCURVE",
"518 441 OFFCURVE",
"518 547 CURVE SMOOTH",
"518 651 OFFCURVE",
"444 710 OFFCURVE",
"319 710 CURVE SMOOTH",
"171 710 OFFCURVE",
"68 628 OFFCURVE",
"53 564 CURVE SMOOTH",
"52 560 OFFCURVE",
"52 558 OFFCURVE",
"52 554 CURVE SMOOTH",
"52 550 OFFCURVE",
"54 545 OFFCURVE",
"60 545 CURVE SMOOTH",
"67 545 OFFCURVE",
"72 552 OFFCURVE",
"84 566 CURVE SMOOTH",
"137 627 OFFCURVE",
"207 655 OFFCURVE",
"286 655 CURVE SMOOTH",
"390 655 OFFCURVE",
"440 607 OFFCURVE",
"440 515 CURVE SMOOTH",
"440 418 OFFCURVE",
"384 352 OFFCURVE",
"287 352 CURVE SMOOTH",
"270 352 OFFCURVE",
"249 354 OFFCURVE",
"240 356 CURVE",
"268 539 LINE SMOOTH",
"276 590 OFFCURVE",
"293 593 OFFCURVE",
"293 602 CURVE SMOOTH",
"293 606 OFFCURVE",
"289 608 OFFCURVE",
"282 608 CURVE SMOOTH",
"251 608 OFFCURVE",
"198 566 OFFCURVE",
"192 533 CURVE SMOOTH",
"131 174 LINE SMOOTH",
"117 94 OFFCURVE",
"133 110 OFFCURVE",
"77 51 CURVE SMOOTH",
"62 36 OFFCURVE",
"55 25 OFFCURVE",
"55 10 CURVE SMOOTH",
"55 4 OFFCURVE",
"56 0 OFFCURVE",
"60 0 CURVE SMOOTH",
"68 0 OFFCURVE",
"86 17 OFFCURVE",
"111 17 CURVE SMOOTH",
"136 17 OFFCURVE",
"166 0 OFFCURVE",
"186 0 CURVE SMOOTH",
"194 0 OFFCURVE",
"211 3 OFFCURVE",
"247 41 CURVE SMOOTH",
"258 52 OFFCURVE",
"260 58 OFFCURVE",
"260 62 CURVE SMOOTH",
"260 67 OFFCURVE",
"257 70 OFFCURVE",
"253 70 CURVE SMOOTH",
"244 70 OFFCURVE",
"234 59 OFFCURVE",
"212 59 CURVE SMOOTH",
"200 59 OFFCURVE",
"192 62 OFFCURVE",
"177 68 CURVE",
"177 69 LINE",
"186 79 OFFCURVE",
"193 94 OFFCURVE",
"196 111 CURVE SMOOTH",
"229 306 LINE",
"311 306 OFFCURVE",
"326 285 OFFCURVE",
"346 230 CURVE SMOOTH",
"407 66 LINE SMOOTH",
"426 15 OFFCURVE",
"451 -10 OFFCURVE",
"486 -10 CURVE SMOOTH"
);
}
);
};
layerId = "0B1DFD06-3317-40CA-B510-4969A0718C16";
paths = (
{
closed = 1;
nodes = (
"538 -10 OFFCURVE",
"590 43 OFFCURVE",
"590 93 CURVE SMOOTH",
"590 100 OFFCURVE",
"589 106 OFFCURVE",
"582 106 CURVE SMOOTH",
"576 106 OFFCURVE",
"575 101 OFFCURVE",
"565 89 CURVE SMOOTH",
"551 72 OFFCURVE",
"535 62 OFFCURVE",
"517 62 CURVE SMOOTH",
"492 62 OFFCURVE",
"481 81 OFFCURVE",
"470 111 CURVE SMOOTH",
"419 248 LINE SMOOTH",
"406 282 OFFCURVE",
"383 315 OFFCURVE",
"340 328 CURVE",
"441 358 OFFCURVE",
"518 441 OFFCURVE",
"518 547 CURVE SMOOTH",
"518 651 OFFCURVE",
"444 710 OFFCURVE",
"319 710 CURVE SMOOTH",
"171 710 OFFCURVE",
"68 628 OFFCURVE",
"53 564 CURVE SMOOTH",
"52 560 OFFCURVE",
"52 558 OFFCURVE",
"52 554 CURVE SMOOTH",
"52 550 OFFCURVE",
"54 545 OFFCURVE",
"60 545 CURVE SMOOTH",
"67 545 OFFCURVE",
"72 552 OFFCURVE",
"84 566 CURVE SMOOTH",
"137 627 OFFCURVE",
"207 655 OFFCURVE",
"286 655 CURVE SMOOTH",
"390 655 OFFCURVE",
"440 607 OFFCURVE",
"440 515 CURVE SMOOTH",
"440 418 OFFCURVE",
"384 352 OFFCURVE",
"287 352 CURVE SMOOTH",
"270 352 OFFCURVE",
"249 354 OFFCURVE",
"240 356 CURVE",
"268 539 LINE SMOOTH",
"276 590 OFFCURVE",
"293 593 OFFCURVE",
"293 602 CURVE SMOOTH",
"293 606 OFFCURVE",
"289 608 OFFCURVE",
"282 608 CURVE SMOOTH",
"251 608 OFFCURVE",
"198 566 OFFCURVE",
"192 533 CURVE SMOOTH",
"131 174 LINE SMOOTH",
"117 94 OFFCURVE",
"133 110 OFFCURVE",
"77 51 CURVE SMOOTH",
"62 36 OFFCURVE",
"55 25 OFFCURVE",
"55 10 CURVE SMOOTH",
"55 4 OFFCURVE",
"56 0 OFFCURVE",
"60 0 CURVE SMOOTH",
"68 0 OFFCURVE",
"86 17 OFFCURVE",
"111 17 CURVE SMOOTH",
"136 17 OFFCURVE",
"166 0 OFFCURVE",
"186 0 CURVE SMOOTH",
"194 0 OFFCURVE",
"211 3 OFFCURVE",
"247 41 CURVE SMOOTH",
"258 52 OFFCURVE",
"260 58 OFFCURVE",
"260 62 CURVE SMOOTH",
"260 67 OFFCURVE",
"257 70 OFFCURVE",
"253 70 CURVE SMOOTH",
"244 70 OFFCURVE",
"234 59 OFFCURVE",
"212 59 CURVE SMOOTH",
"200 59 OFFCURVE",
"192 62 OFFCURVE",
"177 68 CURVE",
"177 69 LINE",
"186 79 OFFCURVE",
"193 94 OFFCURVE",
"196 111 CURVE SMOOTH",
"229 306 LINE",
"311 306 OFFCURVE",
"326 285 OFFCURVE",
"346 230 CURVE SMOOTH",
"407 66 LINE SMOOTH",
"426 15 OFFCURVE",
"451 -10 OFFCURVE",
"486 -10 CURVE SMOOTH"
);
}
);
width = 596;
}
);
leftKerningGroup = R;
note = R;
rightKerningGroup = R;
unicode = 0052;
},
{
glyphname = S;
lastChange = "2018-05-23 06:41:33 +0000";
layers = (
{
anchors = (
{
name = bottom;
position = "{158, 0}";
},
{
name = top;
position = "{335, 700}";
}
);
background = {
paths = (
{
closed = 1;
nodes = (
"366 642 OFFCURVE",
"396 615 OFFCURVE",
"396 562 CURVE SMOOTH",
"396 537 OFFCURVE",
"403 526 OFFCURVE",
"420 526 CURVE SMOOTH",
"434 526 OFFCURVE",
"448 543 OFFCURVE",
"456 557 CURVE SMOOTH",
"469 580 OFFCURVE",
"475 599 OFFCURVE",
"475 624 CURVE SMOOTH",
"475 678 OFFCURVE",
"431 710 OFFCURVE",
"335 710 CURVE SMOOTH",
"219 710 OFFCURVE",
"122 616 OFFCURVE",
"122 498 CURVE SMOOTH",
"122 463 OFFCURVE",
"133 435 OFFCURVE",
"162 400 CURVE SMOOTH",
"257 287 LINE SMOOTH",
"302 233 OFFCURVE",
"314 209 OFFCURVE",
"314 167 CURVE SMOOTH",
"314 104 OFFCURVE",
"274 62 OFFCURVE",
"214 62 CURVE SMOOTH",
"138 62 OFFCURVE",
"105 107 OFFCURVE",
"100 221 CURVE SMOOTH",
"98 266 OFFCURVE",
"5 159 OFFCURVE",
"13 106 CURVE SMOOTH",
"23 36 OFFCURVE",
"86 -10 OFFCURVE",
"170 -10 CURVE SMOOTH",
"301 -10 OFFCURVE",
"418 98 OFFCURVE",
"418 219 CURVE SMOOTH",
"418 277 OFFCURVE",
"395 321 OFFCURVE",
"350 373 CURVE SMOOTH",
"253 484 LINE SMOOTH",
"230 510 OFFCURVE",
"220 533 OFFCURVE",
"220 558 CURVE SMOOTH",
"220 608 OFFCURVE",
"256 642 OFFCURVE",
"309 642 CURVE SMOOTH"
);
}
);
};
layerId = "56450C88-1299-454A-B666-E6F9AF06B23F";
paths = (
{
closed = 1;
nodes = (
"291 -10 OFFCURVE",
"408 97 OFFCURVE",
"408 221 CURVE SMOOTH",
"408 276 OFFCURVE",
"385 321 OFFCURVE",
"340 373 CURVE SMOOTH",
"243 484 LINE SMOOTH",
"220 510 OFFCURVE",
"210 533 OFFCURVE",
"210 560 CURVE SMOOTH",
"210 607 OFFCURVE",
"242 642 OFFCURVE",
"305 642 CURVE SMOOTH",
"367 642 OFFCURVE",
"384 607 OFFCURVE",
"388 562 CURVE SMOOTH",
"389 546 OFFCURVE",
"391 526 OFFCURVE",
"409 526 CURVE SMOOTH",
"421 526 OFFCURVE",
"433 535 OFFCURVE",
"446 557 CURVE SMOOTH",
"456 574 OFFCURVE",
"465 597 OFFCURVE",
"465 621 CURVE SMOOTH",
"465 678 OFFCURVE",
"417 710 OFFCURVE",
"337 710 CURVE SMOOTH",
"189 710 OFFCURVE",
"112 601 OFFCURVE",
"112 500 CURVE SMOOTH",
"112 462 OFFCURVE",
"123 435 OFFCURVE",
"152 400 CURVE SMOOTH",
"247 287 LINE SMOOTH",
"287 239 OFFCURVE",
"304 212 OFFCURVE",
"304 168 CURVE SMOOTH",
"304 104 OFFCURVE",
"267 62 OFFCURVE",
"194 62 CURVE SMOOTH",
"112 62 OFFCURVE",
"103 115 OFFCURVE",
"90 221 CURVE SMOOTH",
"89 228 OFFCURVE",
"88 232 OFFCURVE",
"83 232 CURVE SMOOTH",
"60 232 OFFCURVE",
"1 160 OFFCURVE",
"3 106 CURVE SMOOTH",
"5 58 OFFCURVE",
"58 -10 OFFCURVE",
"161 -10 CURVE SMOOTH"
);
}
);
width = 477;
},
{
anchors = (
{
name = bottom;
position = "{154, 0}";
},
{
name = top;
position = "{328, 700}";
}
);
background = {
anchors = (
{
name = bottom;
position = "{154, 0}";
},
{
name = top;
position = "{328, 700}";
}
);
paths = (
{
closed = 1;
nodes = (
"273 -10 OFFCURVE",
"385 91 OFFCURVE",
"385 211 CURVE SMOOTH",
"385 265 OFFCURVE",
"362 319 OFFCURVE",
"322 366 CURVE SMOOTH",
"226 478 LINE SMOOTH",
"201 507 OFFCURVE",
"189 536 OFFCURVE",
"189 568 CURVE SMOOTH",
"189 626 OFFCURVE",
"227 664 OFFCURVE",
"295 664 CURVE SMOOTH",
"375 664 OFFCURVE",
"380 610 OFFCURVE",
"382 582 CURVE SMOOTH",
"383 565 OFFCURVE",
"385 548 OFFCURVE",
"399 548 CURVE SMOOTH",
"406 548 OFFCURVE",
"411 553 OFFCURVE",
"418 563 CURVE SMOOTH",
"434 586 OFFCURVE",
"441 610 OFFCURVE",
"441 630 CURVE SMOOTH",
"441 684 OFFCURVE",
"391 710 OFFCURVE",
"326 710 CURVE SMOOTH",
"198 710 OFFCURVE",
"124 610 OFFCURVE",
"124 507 CURVE SMOOTH",
"124 460 OFFCURVE",
"139 433 OFFCURVE",
"159 409 CURVE SMOOTH",
"257 291 LINE SMOOTH",
"296 244 OFFCURVE",
"314 210 OFFCURVE",
"314 162 CURVE SMOOTH",
"314 85 OFFCURVE",
"267 40 OFFCURVE",
"199 40 CURVE SMOOTH",
"97 40 OFFCURVE",
"81 143 OFFCURVE",
"77 187 CURVE SMOOTH",
"77 190 OFFCURVE",
"76 194 OFFCURVE",
"72 194 CURVE SMOOTH",
"57 194 OFFCURVE",
"11 147 OFFCURVE",
"13 103 CURVE SMOOTH",
"15 63 OFFCURVE",
"59 -10 OFFCURVE",
"157 -10 CURVE SMOOTH"
);
}
);
};
layerId = "0B1DFD06-3317-40CA-B510-4969A0718C16";
paths = (
{
closed = 1;
nodes = (
"273 -10 OFFCURVE",
"385 91 OFFCURVE",
"385 211 CURVE SMOOTH",
"385 265 OFFCURVE",
"362 319 OFFCURVE",
"322 366 CURVE SMOOTH",
"226 478 LINE SMOOTH",
"201 507 OFFCURVE",
"189 536 OFFCURVE",
"189 568 CURVE SMOOTH",
"189 626 OFFCURVE",
"227 664 OFFCURVE",
"295 664 CURVE SMOOTH",
"375 664 OFFCURVE",
"380 610 OFFCURVE",
"382 582 CURVE SMOOTH",
"383 565 OFFCURVE",
"385 548 OFFCURVE",
"399 548 CURVE SMOOTH",
"406 548 OFFCURVE",
"411 553 OFFCURVE",
"418 563 CURVE SMOOTH",
"434 586 OFFCURVE",
"441 610 OFFCURVE",
"441 630 CURVE SMOOTH",
"441 684 OFFCURVE",
"391 710 OFFCURVE",
"326 710 CURVE SMOOTH",
"198 710 OFFCURVE",
"124 610 OFFCURVE",
"124 507 CURVE SMOOTH",
"124 460 OFFCURVE",
"139 433 OFFCURVE",
"159 409 CURVE SMOOTH",
"257 291 LINE SMOOTH",
"296 244 OFFCURVE",
"314 210 OFFCURVE",
"314 162 CURVE SMOOTH",
"314 85 OFFCURVE",
"267 40 OFFCURVE",
"199 40 CURVE SMOOTH",
"97 40 OFFCURVE",
"81 143 OFFCURVE",
"77 187 CURVE SMOOTH",
"77 190 OFFCURVE",
"76 194 OFFCURVE",
"72 194 CURVE SMOOTH",
"57 194 OFFCURVE",
"11 147 OFFCURVE",
"13 103 CURVE SMOOTH",
"15 63 OFFCURVE",
"59 -10 OFFCURVE",
"157 -10 CURVE SMOOTH"
);
}
);
width = 463;
}
);
leftKerningGroup = S;
note = S;
rightKerningGroup = S;
unicode = 0053;
},
{
glyphname = T;
lastChange = "2018-05-23 06:41:33 +0000";
layers = (
{
anchors = (
{
name = bottom;
position = "{262, 0}";
},
{
name = center;
position = "{328, 350}";
},
{
name = top;
position = "{383, 700}";
}
);
background = {
paths = (
{
closed = 1;
nodes = (
"190 0 OFFCURVE",
"208 16 OFFCURVE",
"243 16 CURVE SMOOTH",
"275 16 OFFCURVE",
"306 0 OFFCURVE",
"334 0 CURVE SMOOTH",
"358 0 OFFCURVE",
"377 11 OFFCURVE",
"412 53 CURVE SMOOTH",
"421 64 OFFCURVE",
"424 71 OFFCURVE",
"424 80 CURVE SMOOTH",
"424 85 OFFCURVE",
"421 89 OFFCURVE",
"416 89 CURVE SMOOTH",
"405 89 OFFCURVE",
"394 78 OFFCURVE",
"368 78 CURVE SMOOTH",
"356 78 OFFCURVE",
"341 81 OFFCURVE",
"329 87 CURVE",
"329 88 LINE",
"340 98 OFFCURVE",
"349 115 OFFCURVE",
"352 133 CURVE SMOOTH",
"436 609 LINE",
"465 609 LINE SMOOTH",
"623 609 OFFCURVE",
"719 684 OFFCURVE",
"722 811 CURVE SMOOTH",
"723 851 OFFCURVE",
"713 889 OFFCURVE",
"694 913 CURVE SMOOTH",
"678 934 OFFCURVE",
"619 845 OFFCURVE",
"619 826 CURVE SMOOTH",
"619 812 OFFCURVE",
"639 800 OFFCURVE",
"639 757 CURVE SMOOTH",
"639 713 OFFCURVE",
"606 700 OFFCURVE",
"527 700 CURVE SMOOTH",
"313 700 LINE SMOOTH",
"159 700 OFFCURVE",
"56 605 OFFCURVE",
"56 463 CURVE SMOOTH",
"56 440 OFFCURVE",
"63 411 OFFCURVE",
"73 390 CURVE SMOOTH",
"88 359 OFFCURVE",
"159 440 OFFCURVE",
"159 470 CURVE SMOOTH",
"159 487 OFFCURVE",
"142 496 OFFCURVE",
"142 540 CURVE SMOOTH",
"142 591 OFFCURVE",
"174 609 OFFCURVE",
"267 609 CURVE SMOOTH",
"329 609 LINE",
"252 175 LINE SMOOTH",
"240 108 OFFCURVE",
"231 87 OFFCURVE",
"205 65 CURVE SMOOTH",
"186 49 OFFCURVE",
"173 30 OFFCURVE",
"173 10 CURVE SMOOTH",
"173 4 OFFCURVE",
"176 0 OFFCURVE",
"181 0 CURVE SMOOTH"
);
}
);
};
layerId = "56450C88-1299-454A-B666-E6F9AF06B23F";
paths = (
{
closed = 1;
nodes = (
"180 0 OFFCURVE",
"199 16 OFFCURVE",
"233 16 CURVE SMOOTH",
"266 16 OFFCURVE",
"296 0 OFFCURVE",
"323 0 CURVE SMOOTH",
"345 0 OFFCURVE",
"369 10 OFFCURVE",
"402 53 CURVE SMOOTH",
"409 62 OFFCURVE",
"414 70 OFFCURVE",
"414 80 CURVE SMOOTH",
"414 86 OFFCURVE",
"412 89 OFFCURVE",
"406 89 CURVE SMOOTH",
"395 89 OFFCURVE",
"383 78 OFFCURVE",
"359 78 CURVE SMOOTH",
"346 78 OFFCURVE",
"331 81 OFFCURVE",
"319 87 CURVE",
"319 88 LINE",
"330 98 OFFCURVE",
"339 115 OFFCURVE",
"342 133 CURVE SMOOTH",
"426 609 LINE",
"455 609 LINE SMOOTH",
"610 609 OFFCURVE",
"712 685 OFFCURVE",
"712 812 CURVE SMOOTH",
"712 850 OFFCURVE",
"703 893 OFFCURVE",
"684 913 CURVE SMOOTH",
"682 915 OFFCURVE",
"681 916 OFFCURVE",
"678 916 CURVE SMOOTH",
"657 916 OFFCURVE",
"609 844 OFFCURVE",
"609 826 CURVE SMOOTH",
"609 814 OFFCURVE",
"629 797 OFFCURVE",
"629 760 CURVE SMOOTH",
"629 713 OFFCURVE",
"598 700 OFFCURVE",
"517 700 CURVE SMOOTH",
"303 700 LINE SMOOTH",
"149 700 OFFCURVE",
"46 601 OFFCURVE",
"46 472 CURVE SMOOTH",
"46 441 OFFCURVE",
"52 411 OFFCURVE",
"63 390 CURVE SMOOTH",
"65 386 OFFCURVE",
"67 383 OFFCURVE",
"72 383 CURVE SMOOTH",
"95 383 OFFCURVE",
"149 448 OFFCURVE",
"149 472 CURVE SMOOTH",
"149 485 OFFCURVE",
"132 499 OFFCURVE",
"132 539 CURVE SMOOTH",
"132 591 OFFCURVE",
"162 609 OFFCURVE",
"257 609 CURVE SMOOTH",
"319 609 LINE",
"243 177 LINE SMOOTH",
"230 106 OFFCURVE",
"224 93 OFFCURVE",
"195 65 CURVE SMOOTH",
"179 50 OFFCURVE",
"163 33 OFFCURVE",
"163 12 CURVE SMOOTH",
"163 3 OFFCURVE",
"166 0 OFFCURVE",
"170 0 CURVE SMOOTH"
);
}
);
width = 610;
},
{
anchors = (
{
name = bottom;
position = "{242, 0}";
},
{
name = center;
position = "{303, 350}";
},
{
name = top;
position = "{359, 700}";
}
);
background = {
anchors = (
{
name = bottom;
position = "{242, 0}";
},
{
name = center;
position = "{303, 350}";
},
{
name = top;
position = "{359, 700}";
}
);
paths = (
{
closed = 1;
nodes = (
"169 -1 OFFCURVE",
"193 15 OFFCURVE",
"215 15 CURVE SMOOTH",
"237 15 OFFCURVE",
"269 -1 OFFCURVE",
"291 -1 CURVE SMOOTH",
"309 -1 OFFCURVE",
"328 10 OFFCURVE",
"358 45 CURVE SMOOTH",
"364 52 OFFCURVE",
"366 57 OFFCURVE",
"366 61 CURVE SMOOTH",
"366 65 OFFCURVE",
"366 68 OFFCURVE",
"360 68 CURVE SMOOTH",
"348 68 OFFCURVE",
"340 57 OFFCURVE",
"317 57 CURVE SMOOTH",
"307 57 OFFCURVE",
"293 59 OFFCURVE",
"278 65 CURVE",
"278 66 LINE",
"288 78 OFFCURVE",
"295 89 OFFCURVE",
"299 113 CURVE SMOOTH",
"388 632 LINE",
"419 632 LINE SMOOTH",
"570 632 OFFCURVE",
"665 711 OFFCURVE",
"665 831 CURVE SMOOTH",
"665 858 OFFCURVE",
"660 889 OFFCURVE",
"647 910 CURVE SMOOTH",
"646 912 OFFCURVE",
"644 914 OFFCURVE",
"641 914 CURVE SMOOTH",
"624 914 OFFCURVE",
"587 858 OFFCURVE",
"587 844 CURVE SMOOTH",
"587 834 OFFCURVE",
"606 819 OFFCURVE",
"606 774 CURVE SMOOTH",
"606 722 OFFCURVE",
"581 700 OFFCURVE",
"476 700 CURVE SMOOTH",
"302 700 LINE SMOOTH",
"158 700 OFFCURVE",
"60 620 OFFCURVE",
"57 502 CURVE SMOOTH",
"56 471 OFFCURVE",
"62 438 OFFCURVE",
"74 420 CURVE SMOOTH",
"76 417 OFFCURVE",
"77 416 OFFCURVE",
"80 416 CURVE SMOOTH",
"97 416 OFFCURVE",
"134 471 OFFCURVE",
"134 486 CURVE SMOOTH",
"134 497 OFFCURVE",
"115 513 OFFCURVE",
"115 556 CURVE SMOOTH",
"115 612 OFFCURVE",
"146 632 OFFCURVE",
"245 632 CURVE SMOOTH",
"314 632 LINE",
"232 164 LINE SMOOTH",
"218 84 OFFCURVE",
"206 73 OFFCURVE",
"177 48 CURVE SMOOTH",
"170 42 OFFCURVE",
"153 17 OFFCURVE",
"153 5 CURVE SMOOTH",
"153 1 OFFCURVE",
"155 -1 OFFCURVE",
"158 -1 CURVE SMOOTH"
);
}
);
};
layerId = "0B1DFD06-3317-40CA-B510-4969A0718C16";
paths = (
{
closed = 1;
nodes = (
"169 -1 OFFCURVE",
"193 15 OFFCURVE",
"215 15 CURVE SMOOTH",
"237 15 OFFCURVE",
"269 -1 OFFCURVE",
"291 -1 CURVE SMOOTH",
"309 -1 OFFCURVE",
"328 10 OFFCURVE",
"358 45 CURVE SMOOTH",
"364 52 OFFCURVE",
"366 57 OFFCURVE",
"366 61 CURVE SMOOTH",
"366 65 OFFCURVE",
"366 68 OFFCURVE",
"360 68 CURVE SMOOTH",
"348 68 OFFCURVE",
"340 57 OFFCURVE",
"317 57 CURVE SMOOTH",
"307 57 OFFCURVE",
"293 59 OFFCURVE",
"278 65 CURVE",
"278 66 LINE",
"288 78 OFFCURVE",
"295 89 OFFCURVE",
"299 113 CURVE SMOOTH",
"388 632 LINE",
"419 632 LINE SMOOTH",
"570 632 OFFCURVE",
"665 711 OFFCURVE",
"665 831 CURVE SMOOTH",
"665 858 OFFCURVE",
"660 889 OFFCURVE",
"647 910 CURVE SMOOTH",
"646 912 OFFCURVE",
"644 914 OFFCURVE",
"641 914 CURVE SMOOTH",
"624 914 OFFCURVE",
"587 858 OFFCURVE",
"587 844 CURVE SMOOTH",
"587 834 OFFCURVE",
"606 819 OFFCURVE",
"606 774 CURVE SMOOTH",
"606 722 OFFCURVE",
"581 700 OFFCURVE",
"476 700 CURVE SMOOTH",
"302 700 LINE SMOOTH",
"158 700 OFFCURVE",
"60 620 OFFCURVE",
"57 502 CURVE SMOOTH",
"56 471 OFFCURVE",
"62 438 OFFCURVE",
"74 420 CURVE SMOOTH",
"76 417 OFFCURVE",
"77 416 OFFCURVE",
"80 416 CURVE SMOOTH",
"97 416 OFFCURVE",
"134 471 OFFCURVE",
"134 486 CURVE SMOOTH",
"134 497 OFFCURVE",
"115 513 OFFCURVE",
"115 556 CURVE SMOOTH",
"115 612 OFFCURVE",
"146 632 OFFCURVE",
"245 632 CURVE SMOOTH",
"314 632 LINE",
"232 164 LINE SMOOTH",
"218 84 OFFCURVE",
"206 73 OFFCURVE",
"177 48 CURVE SMOOTH",
"170 42 OFFCURVE",
"153 17 OFFCURVE",
"153 5 CURVE SMOOTH",
"153 1 OFFCURVE",
"155 -1 OFFCURVE",
"158 -1 CURVE SMOOTH"
);
}
);
width = 573;
}
);
leftKerningGroup = T;
note = T;
rightKerningGroup = T;
unicode = 0054;
},
{
glyphname = U;
lastChange = "2018-05-23 06:41:33 +0000";
layers = (
{
anchors = (
{
name = bottom;
position = "{296, 0}";
},
{
name = ogonek;
position = "{377, 6}";
},
{
name = top;
position = "{436, 700}";
},
{
name = topright;
position = "{640, 597}";
}
);
background = {
paths = (
{
closed = 1;
nodes = (
"656 618 LINE SMOOTH",
"665 673 OFFCURVE",
"683 681 OFFCURVE",
"683 696 CURVE SMOOTH",
"683 704 OFFCURVE",
"679 710 OFFCURVE",
"664 710 CURVE SMOOTH",
"612 710 OFFCURVE",
"557 664 OFFCURVE",
"551 626 CURVE SMOOTH",
"503 324 LINE SMOOTH",
"474 144 OFFCURVE",
"427 72 OFFCURVE",
"340 72 CURVE SMOOTH",
"250 72 OFFCURVE",
"220 134 OFFCURVE",
"243 269 CURVE SMOOTH",
"290 543 LINE SMOOTH",
"306 636 OFFCURVE",
"321 682 OFFCURVE",
"331 700 CURVE",
"311 700 OFFCURVE",
"295 695 OFFCURVE",
"263 695 CURVE SMOOTH",
"229 695 OFFCURVE",
"203 700 OFFCURVE",
"178 700 CURVE SMOOTH",
"98 700 OFFCURVE",
"46 662 OFFCURVE",
"28 589 CURVE SMOOTH",
"27 585 OFFCURVE",
"26 578 OFFCURVE",
"26 574 CURVE SMOOTH",
"26 567 OFFCURVE",
"29 562 OFFCURVE",
"34 562 CURVE SMOOTH",
"40 562 OFFCURVE",
"46 569 OFFCURVE",
"53 579 CURVE SMOOTH",
"71 604 OFFCURVE",
"97 615 OFFCURVE",
"139 615 CURVE SMOOTH",
"170 615 OFFCURVE",
"182 610 OFFCURVE",
"195 610 CURVE",
"135 273 LINE SMOOTH",
"105 103 OFFCURVE",
"175 -10 OFFCURVE",
"312 -10 CURVE SMOOTH",
"460 -10 OFFCURVE",
"578 118 OFFCURVE",
"608 309 CURVE SMOOTH"
);
}
);
};
layerId = "56450C88-1299-454A-B666-E6F9AF06B23F";
paths = (
{
closed = 1;
nodes = (
"446 -10 OFFCURVE",
"567 113 OFFCURVE",
"598 309 CURVE SMOOTH",
"646 618 LINE SMOOTH",
"654 672 OFFCURVE",
"673 683 OFFCURVE",
"673 699 CURVE SMOOTH",
"673 707 OFFCURVE",
"668 710 OFFCURVE",
"655 710 CURVE SMOOTH",
"607 710 OFFCURVE",
"547 666 OFFCURVE",
"541 626 CURVE SMOOTH",
"493 324 LINE SMOOTH",
"464 142 OFFCURVE",
"417 72 OFFCURVE",
"327 72 CURVE SMOOTH",
"241 72 OFFCURVE",
"210 135 OFFCURVE",
"233 269 CURVE SMOOTH",
"280 543 LINE SMOOTH",
"296 636 OFFCURVE",
"311 682 OFFCURVE",
"321 700 CURVE",
"301 700 OFFCURVE",
"286 695 OFFCURVE",
"253 695 CURVE SMOOTH",
"219 695 OFFCURVE",
"194 700 OFFCURVE",
"167 700 CURVE SMOOTH",
"86 700 OFFCURVE",
"32 656 OFFCURVE",
"18 589 CURVE SMOOTH",
"17 585 OFFCURVE",
"16 578 OFFCURVE",
"16 574 CURVE SMOOTH",
"16 567 OFFCURVE",
"19 562 OFFCURVE",
"24 562 CURVE SMOOTH",
"30 562 OFFCURVE",
"35 569 OFFCURVE",
"43 579 CURVE SMOOTH",
"63 603 OFFCURVE",
"81 616 OFFCURVE",
"129 616 CURVE SMOOTH",
"161 616 OFFCURVE",
"172 610 OFFCURVE",
"185 610 CURVE",
"125 273 LINE SMOOTH",
"95 106 OFFCURVE",
"163 -10 OFFCURVE",
"302 -10 CURVE SMOOTH"
);
}
);
width = 675;
},
{
anchors = (
{
name = bottom;
position = "{279, 0}";
},
{
name = ogonek;
position = "{351, 10}";
},
{
name = top;
position = "{428, 700}";
},
{
name = topright;
position = "{612, 608}";
}
);
background = {
anchors = (
{
name = bottom;
position = "{279, 0}";
},
{
name = ogonek;
position = "{351, 10}";
},
{
name = top;
position = "{428, 700}";
},
{
name = topright;
position = "{612, 608}";
}
);
paths = (
{
closed = 1;
nodes = (
"418 -10 OFFCURVE",
"533 114 OFFCURVE",
"563 301 CURVE SMOOTH",
"617 639 LINE SMOOTH",
"624 685 OFFCURVE",
"642 696 OFFCURVE",
"642 704 CURVE SMOOTH",
"642 708 OFFCURVE",
"638 710 OFFCURVE",
"630 710 CURVE SMOOTH",
"595 710 OFFCURVE",
"544 669 OFFCURVE",
"539 636 CURVE SMOOTH",
"487 314 LINE SMOOTH",
"457 126 OFFCURVE",
"393 32 OFFCURVE",
"293 32 CURVE SMOOTH",
"193 32 OFFCURVE",
"182 127 OFFCURVE",
"203 249 CURVE SMOOTH",
"251 528 LINE SMOOTH",
"264 602 OFFCURVE",
"280 679 OFFCURVE",
"294 700 CURVE",
"273 700 OFFCURVE",
"263 696 OFFCURVE",
"234 696 CURVE SMOOTH",
"205 696 OFFCURVE",
"175 700 OFFCURVE",
"153 700 CURVE SMOOTH",
"84 700 OFFCURVE",
"38 661 OFFCURVE",
"27 606 CURVE SMOOTH",
"27 604 OFFCURVE",
"26 604 OFFCURVE",
"26 597 CURVE SMOOTH",
"26 589 OFFCURVE",
"27 585 OFFCURVE",
"31 585 CURVE SMOOTH",
"37 585 OFFCURVE",
"40 593 OFFCURVE",
"47 603 CURVE SMOOTH",
"58 619 OFFCURVE",
"83 640 OFFCURVE",
"131 640 CURVE SMOOTH",
"155 640 OFFCURVE",
"180 635 OFFCURVE",
"195 635 CURVE",
"126 250 LINE SMOOTH",
"97 87 OFFCURVE",
"147 -10 OFFCURVE",
"274 -10 CURVE SMOOTH"
);
}
);
};
layerId = "0B1DFD06-3317-40CA-B510-4969A0718C16";
paths = (
{
closed = 1;
nodes = (
"418 -10 OFFCURVE",
"533 114 OFFCURVE",
"563 301 CURVE SMOOTH",
"617 639 LINE SMOOTH",
"624 685 OFFCURVE",
"642 696 OFFCURVE",
"642 704 CURVE SMOOTH",
"642 708 OFFCURVE",
"638 710 OFFCURVE",
"630 710 CURVE SMOOTH",
"595 710 OFFCURVE",
"544 669 OFFCURVE",
"539 636 CURVE SMOOTH",
"487 314 LINE SMOOTH",
"457 126 OFFCURVE",
"393 32 OFFCURVE",
"293 32 CURVE SMOOTH",
"193 32 OFFCURVE",
"182 127 OFFCURVE",
"203 249 CURVE SMOOTH",
"251 528 LINE SMOOTH",
"264 602 OFFCURVE",
"280 679 OFFCURVE",
"294 700 CURVE",
"273 700 OFFCURVE",
"263 696 OFFCURVE",
"234 696 CURVE SMOOTH",
"205 696 OFFCURVE",
"175 700 OFFCURVE",
"153 700 CURVE SMOOTH",
"84 700 OFFCURVE",
"38 661 OFFCURVE",
"27 606 CURVE SMOOTH",
"27 604 OFFCURVE",
"26 604 OFFCURVE",
"26 597 CURVE SMOOTH",
"26 589 OFFCURVE",
"27 585 OFFCURVE",
"31 585 CURVE SMOOTH",
"37 585 OFFCURVE",
"40 593 OFFCURVE",
"47 603 CURVE SMOOTH",
"58 619 OFFCURVE",
"83 640 OFFCURVE",
"131 640 CURVE SMOOTH",
"155 640 OFFCURVE",
"180 635 OFFCURVE",
"195 635 CURVE",
"126 250 LINE SMOOTH",
"97 87 OFFCURVE",
"147 -10 OFFCURVE",
"274 -10 CURVE SMOOTH"
);
}
);
width = 654;
}
);
leftKerningGroup = U;
note = U;
rightKerningGroup = U;
unicode = 0055;
},
{
glyphname = V;
lastChange = "2018-05-23 06:41:33 +0000";
layers = (
{
anchors = (
{
name = bottom;
position = "{292, 0}";
},
{
name = top;
position = "{398, 700}";
}
);
background = {
paths = (
{
closed = 1;
nodes = (
"309 -10 OFFCURVE",
"345 18 OFFCURVE",
"362 42 CURVE SMOOTH",
"376 62 OFFCURVE",
"384 77 OFFCURVE",
"390 87 CURVE SMOOTH",
"536 336 LINE SMOOTH",
"604 452 OFFCURVE",
"638 552 OFFCURVE",
"639 604 CURVE SMOOTH",
"640 652 OFFCURVE",
"618 710 OFFCURVE",
"578 710 CURVE SMOOTH",
"551 710 OFFCURVE",
"481 612 OFFCURVE",
"493 603 CURVE SMOOTH",
"512 589 OFFCURVE",
"522 560 OFFCURVE",
"522 530 CURVE SMOOTH",
"522 439 OFFCURVE",
"468 316 OFFCURVE",
"357 133 CURVE",
"357 265 OFFCURVE",
"331 508 OFFCURVE",
"298 608 CURVE SMOOTH",
"273 683 OFFCURVE",
"248 710 OFFCURVE",
"201 710 CURVE SMOOTH",
"118 710 OFFCURVE",
"46 602 OFFCURVE",
"46 507 CURVE SMOOTH",
"46 500 OFFCURVE",
"49 496 OFFCURVE",
"56 496 CURVE SMOOTH",
"63 496 OFFCURVE",
"68 503 OFFCURVE",
"73 515 CURVE SMOOTH",
"97 573 OFFCURVE",
"120 600 OFFCURVE",
"146 600 CURVE SMOOTH",
"166 600 OFFCURVE",
"178 587 OFFCURVE",
"186 561 CURVE SMOOTH",
"223 442 OFFCURVE",
"250 212 OFFCURVE",
"259 23 CURVE SMOOTH",
"260 1 OFFCURVE",
"259 -10 OFFCURVE",
"279 -10 CURVE SMOOTH"
);
}
);
};
layerId = "56450C88-1299-454A-B666-E6F9AF06B23F";
paths = (
{
closed = 1;
nodes = (
"293 -10 OFFCURVE",
"331 14 OFFCURVE",
"352 42 CURVE SMOOTH",
"363 57 OFFCURVE",
"378 84 OFFCURVE",
"380 87 CURVE SMOOTH",
"526 336 LINE SMOOTH",
"594 452 OFFCURVE",
"627 550 OFFCURVE",
"629 604 CURVE SMOOTH",
"631 657 OFFCURVE",
"601 710 OFFCURVE",
"573 710 CURVE SMOOTH",
"536 710 OFFCURVE",
"473 613 OFFCURVE",
"483 603 CURVE SMOOTH",
"496 591 OFFCURVE",
"512 575 OFFCURVE",
"512 528 CURVE SMOOTH",
"512 438 OFFCURVE",
"454 309 OFFCURVE",
"347 133 CURVE",
"347 264 OFFCURVE",
"323 495 OFFCURVE",
"288 608 CURVE SMOOTH",
"264 686 OFFCURVE",
"232 710 OFFCURVE",
"192 710 CURVE SMOOTH",
"107 710 OFFCURVE",
"36 599 OFFCURVE",
"36 513 CURVE SMOOTH",
"36 499 OFFCURVE",
"38 496 OFFCURVE",
"45 496 CURVE SMOOTH",
"53 496 OFFCURVE",
"57 501 OFFCURVE",
"63 515 CURVE SMOOTH",
"84 563 OFFCURVE",
"104 600 OFFCURVE",
"137 600 CURVE SMOOTH",
"161 600 OFFCURVE",
"170 579 OFFCURVE",
"176 561 CURVE SMOOTH",
"214 448 OFFCURVE",
"246 141 OFFCURVE",
"249 23 CURVE SMOOTH",
"250 1 OFFCURVE",
"247 -10 OFFCURVE",
"265 -10 CURVE SMOOTH"
);
}
);
width = 625;
},
{
anchors = (
{
name = bottom;
position = "{295, 0}";
},
{
name = top;
position = "{385, 700}";
}
);
background = {
anchors = (
{
name = bottom;
position = "{295, 0}";
},
{
name = top;
position = "{385, 700}";
}
);
paths = (
{
closed = 1;
nodes = (
"288 -10 OFFCURVE",
"314 8 OFFCURVE",
"326 23 CURVE SMOOTH",
"338 38 OFFCURVE",
"356 73 OFFCURVE",
"359 78 CURVE SMOOTH",
"506 332 LINE SMOOTH",
"578 456 OFFCURVE",
"604 571 OFFCURVE",
"604 625 CURVE SMOOTH",
"604 674 OFFCURVE",
"582 711 OFFCURVE",
"567 711 CURVE SMOOTH",
"545 711 OFFCURVE",
"487 631 OFFCURVE",
"494 624 CURVE SMOOTH",
"510 606 OFFCURVE",
"519 594 OFFCURVE",
"519 557 CURVE SMOOTH",
"519 453 OFFCURVE",
"448 299 OFFCURVE",
"328 109 CURVE",
"319 300 OFFCURVE",
"291 519 OFFCURVE",
"263 615 CURVE SMOOTH",
"238 701 OFFCURVE",
"205 710 OFFCURVE",
"182 710 CURVE SMOOTH",
"106 710 OFFCURVE",
"46 610 OFFCURVE",
"46 534 CURVE SMOOTH",
"46 520 OFFCURVE",
"48 516 OFFCURVE",
"54 516 CURVE SMOOTH",
"62 516 OFFCURVE",
"65 522 OFFCURVE",
"70 537 CURVE SMOOTH",
"94 604 OFFCURVE",
"118 624 OFFCURVE",
"143 624 CURVE SMOOTH",
"167 624 OFFCURVE",
"176 604 OFFCURVE",
"185 574 CURVE SMOOTH",
"225 445 OFFCURVE",
"242 232 OFFCURVE",
"254 18 CURVE SMOOTH",
"255 -6 OFFCURVE",
"257 -10 OFFCURVE",
"267 -10 CURVE SMOOTH"
);
}
);
};
layerId = "0B1DFD06-3317-40CA-B510-4969A0718C16";
paths = (
{
closed = 1;
nodes = (
"288 -10 OFFCURVE",
"314 8 OFFCURVE",
"326 23 CURVE SMOOTH",
"338 38 OFFCURVE",
"356 73 OFFCURVE",
"359 78 CURVE SMOOTH",
"506 332 LINE SMOOTH",
"578 456 OFFCURVE",
"604 571 OFFCURVE",
"604 625 CURVE SMOOTH",
"604 674 OFFCURVE",
"582 711 OFFCURVE",
"567 711 CURVE SMOOTH",
"545 711 OFFCURVE",
"487 631 OFFCURVE",
"494 624 CURVE SMOOTH",
"510 606 OFFCURVE",
"519 594 OFFCURVE",
"519 557 CURVE SMOOTH",
"519 453 OFFCURVE",
"448 299 OFFCURVE",
"328 109 CURVE",
"319 300 OFFCURVE",
"291 519 OFFCURVE",
"263 615 CURVE SMOOTH",
"238 701 OFFCURVE",
"205 710 OFFCURVE",
"182 710 CURVE SMOOTH",
"106 710 OFFCURVE",
"46 610 OFFCURVE",
"46 534 CURVE SMOOTH",
"46 520 OFFCURVE",
"48 516 OFFCURVE",
"54 516 CURVE SMOOTH",
"62 516 OFFCURVE",
"65 522 OFFCURVE",
"70 537 CURVE SMOOTH",
"94 604 OFFCURVE",
"118 624 OFFCURVE",
"143 624 CURVE SMOOTH",
"167 624 OFFCURVE",
"176 604 OFFCURVE",
"185 574 CURVE SMOOTH",
"225 445 OFFCURVE",
"242 232 OFFCURVE",
"254 18 CURVE SMOOTH",
"255 -6 OFFCURVE",
"257 -10 OFFCURVE",
"267 -10 CURVE SMOOTH"
);
}
);
width = 610;
}
);
note = V;
unicode = 0056;
},
{
glyphname = W;
lastChange = "2018-05-23 06:41:33 +0000";
layers = (
{
anchors = (
{
name = bottom;
position = "{341, 0}";
},
{
name = top;
position = "{491, 700}";
}
);
background = {
paths = (
{
closed = 1;
nodes = (
"185 -10 OFFCURVE",
"201 -3 OFFCURVE",
"209 4 CURVE SMOOTH",
"233 25 OFFCURVE",
"259 53 OFFCURVE",
"276 90 CURVE SMOOTH",
"310 165 OFFCURVE",
"367 312 OFFCURVE",
"437 434 CURVE",
"438 434 LINE",
"441 331 OFFCURVE",
"465 161 OFFCURVE",
"465 36 CURVE SMOOTH",
"465 11 OFFCURVE",
"462 -10 OFFCURVE",
"475 -10 CURVE SMOOTH",
"489 -10 OFFCURVE",
"499 -1 OFFCURVE",
"512 11 CURVE SMOOTH",
"539 37 OFFCURVE",
"560 70 OFFCURVE",
"570 92 CURVE SMOOTH",
"583 120 OFFCURVE",
"735 442 OFFCURVE",
"751 478 CURVE SMOOTH",
"778 538 OFFCURVE",
"796 581 OFFCURVE",
"796 617 CURVE SMOOTH",
"796 664 OFFCURVE",
"762 711 OFFCURVE",
"737 711 CURVE SMOOTH",
"714 711 OFFCURVE",
"640 611 OFFCURVE",
"652 603 CURVE SMOOTH",
"676 587 OFFCURVE",
"684 564 OFFCURVE",
"684 535 CURVE SMOOTH",
"684 493 OFFCURVE",
"661 434 OFFCURVE",
"629 364 CURVE SMOOTH",
"597 294 OFFCURVE",
"563 226 OFFCURVE",
"557 212 CURVE",
"556 212 LINE",
"554 228 OFFCURVE",
"553 261 OFFCURVE",
"548 337 CURVE SMOOTH",
"543 414 OFFCURVE",
"538 518 OFFCURVE",
"538 573 CURVE SMOOTH",
"538 606 OFFCURVE",
"542 648 OFFCURVE",
"547 676 CURVE SMOOTH",
"553 710 OFFCURVE",
"457 641 OFFCURVE",
"441 595 CURVE SMOOTH",
"417 525 OFFCURVE",
"364 442 OFFCURVE",
"295 290 CURVE",
"294 290 LINE",
"296 317 OFFCURVE",
"297 375 OFFCURVE",
"297 414 CURVE SMOOTH",
"297 617 OFFCURVE",
"284 710 OFFCURVE",
"201 710 CURVE SMOOTH",
"118 710 OFFCURVE",
"46 604 OFFCURVE",
"46 509 CURVE SMOOTH",
"46 502 OFFCURVE",
"49 498 OFFCURVE",
"56 498 CURVE SMOOTH",
"63 498 OFFCURVE",
"68 505 OFFCURVE",
"73 517 CURVE SMOOTH",
"99 580 OFFCURVE",
"122 602 OFFCURVE",
"154 602 CURVE SMOOTH",
"186 602 OFFCURVE",
"195 564 OFFCURVE",
"195 435 CURVE SMOOTH",
"195 315 OFFCURVE",
"191 214 OFFCURVE",
"165 5 CURVE SMOOTH",
"164 -4 OFFCURVE",
"166 -10 OFFCURVE",
"178 -10 CURVE SMOOTH"
);
}
);
};
layerId = "56450C88-1299-454A-B666-E6F9AF06B23F";
paths = (
{
closed = 1;
nodes = (
"180 -10 OFFCURVE",
"190 -3 OFFCURVE",
"199 4 CURVE SMOOTH",
"225 24 OFFCURVE",
"249 54 OFFCURVE",
"266 90 CURVE SMOOTH",
"289 137 OFFCURVE",
"353 305 OFFCURVE",
"427 434 CURVE",
"428 434 LINE",
"431 336 OFFCURVE",
"455 153 OFFCURVE",
"455 44 CURVE SMOOTH",
"455 5 OFFCURVE",
"452 -10 OFFCURVE",
"467 -10 CURVE SMOOTH",
"478 -10 OFFCURVE",
"489 -1 OFFCURVE",
"502 11 CURVE SMOOTH",
"530 38 OFFCURVE",
"549 69 OFFCURVE",
"560 92 CURVE SMOOTH",
"680 347 OFFCURVE",
"726 445 OFFCURVE",
"741 478 CURVE SMOOTH",
"768 538 OFFCURVE",
"786 581 OFFCURVE",
"786 616 CURVE SMOOTH",
"786 666 OFFCURVE",
"749 711 OFFCURVE",
"730 711 CURVE SMOOTH",
"702 711 OFFCURVE",
"635 618 OFFCURVE",
"642 603 CURVE SMOOTH",
"645 596 OFFCURVE",
"674 587 OFFCURVE",
"674 537 CURVE SMOOTH",
"674 492 OFFCURVE",
"651 434 OFFCURVE",
"619 364 CURVE SMOOTH",
"589 298 OFFCURVE",
"553 226 OFFCURVE",
"547 212 CURVE",
"546 212 LINE",
"545 225 OFFCURVE",
"544 240 OFFCURVE",
"538 337 CURVE SMOOTH",
"533 418 OFFCURVE",
"528 516 OFFCURVE",
"528 568 CURVE SMOOTH",
"528 614 OFFCURVE",
"532 645 OFFCURVE",
"537 676 CURVE SMOOTH",
"542 705 OFFCURVE",
"462 658 OFFCURVE",
"431 595 CURVE SMOOTH",
"422 576 OFFCURVE",
"311 345 OFFCURVE",
"285 290 CURVE",
"284 290 LINE",
"286 317 OFFCURVE",
"287 371 OFFCURVE",
"287 422 CURVE SMOOTH",
"287 614 OFFCURVE",
"273 710 OFFCURVE",
"193 710 CURVE SMOOTH",
"107 710 OFFCURVE",
"36 601 OFFCURVE",
"36 515 CURVE SMOOTH",
"36 501 OFFCURVE",
"38 498 OFFCURVE",
"45 498 CURVE SMOOTH",
"53 498 OFFCURVE",
"57 503 OFFCURVE",
"63 517 CURVE SMOOTH",
"82 560 OFFCURVE",
"102 602 OFFCURVE",
"141 602 CURVE SMOOTH",
"179 602 OFFCURVE",
"185 562 OFFCURVE",
"185 419 CURVE SMOOTH",
"185 275 OFFCURVE",
"179 217 OFFCURVE",
"155 4 CURVE SMOOTH",
"154 -5 OFFCURVE",
"154 -10 OFFCURVE",
"166 -10 CURVE SMOOTH"
);
}
);
width = 776;
},
{
anchors = (
{
name = bottom;
position = "{343, 0}";
},
{
name = top;
position = "{513, 700}";
}
);
background = {
anchors = (
{
name = bottom;
position = "{343, 0}";
},
{
name = top;
position = "{513, 700}";
}
);
paths = (
{
closed = 1;
nodes = (
"171 -10 OFFCURVE",
"185 -8 OFFCURVE",
"198 6 CURVE SMOOTH",
"217 27 OFFCURVE",
"237 68 OFFCURVE",
"245 83 CURVE",
"266 136 OFFCURVE",
"385 397 OFFCURVE",
"436 499 CURVE",
"437 499 LINE",
"440 398 OFFCURVE",
"464 148 OFFCURVE",
"464 29 CURVE SMOOTH",
"464 5 OFFCURVE",
"463 -10 OFFCURVE",
"469 -10 CURVE SMOOTH",
"473 -10 OFFCURVE",
"485 -5 OFFCURVE",
"494 7 CURVE SMOOTH",
"505 22 OFFCURVE",
"534 76 OFFCURVE",
"539 85 CURVE",
"548 105 OFFCURVE",
"696 438 OFFCURVE",
"725 504 CURVE SMOOTH",
"750 561 OFFCURVE",
"765 603 OFFCURVE",
"765 636 CURVE SMOOTH",
"765 675 OFFCURVE",
"745 711 OFFCURVE",
"729 711 CURVE SMOOTH",
"705 711 OFFCURVE",
"653 628 OFFCURVE",
"657 624 CURVE SMOOTH",
"669 613 OFFCURVE",
"684 599 OFFCURVE",
"684 558 CURVE SMOOTH",
"684 497 OFFCURVE",
"651 436 OFFCURVE",
"622 369 CURVE SMOOTH",
"544 191 OFFCURVE",
"613 348 OFFCURVE",
"530 159 CURVE",
"529 159 LINE",
"527 190 OFFCURVE",
"516 328 OFFCURVE",
"515 348 CURVE SMOOTH",
"510 410 OFFCURVE",
"507 529 OFFCURVE",
"507 589 CURVE SMOOTH",
"507 624 OFFCURVE",
"508 631 OFFCURVE",
"513 661 CURVE SMOOTH",
"516 681 OFFCURVE",
"459 641 OFFCURVE",
"440 602 CURVE SMOOTH",
"432 585 OFFCURVE",
"300 304 OFFCURVE",
"260 218 CURVE",
"259 218 LINE",
"265 325 OFFCURVE",
"267 377 OFFCURVE",
"267 435 CURVE SMOOTH",
"267 576 OFFCURVE",
"255 710 OFFCURVE",
"176 710 CURVE SMOOTH",
"112 710 OFFCURVE",
"46 620 OFFCURVE",
"46 540 CURVE SMOOTH",
"46 526 OFFCURVE",
"48 522 OFFCURVE",
"54 522 CURVE SMOOTH",
"62 522 OFFCURVE",
"65 528 OFFCURVE",
"70 543 CURVE SMOOTH",
"89 595 OFFCURVE",
"111 624 OFFCURVE",
"141 624 CURVE SMOOTH",
"182 624 OFFCURVE",
"193 567 OFFCURVE",
"193 419 CURVE SMOOTH",
"193 265 OFFCURVE",
"181 147 OFFCURVE",
"165 0 CURVE SMOOTH",
"164 -8 OFFCURVE",
"166 -10 OFFCURVE",
"169 -10 CURVE SMOOTH"
);
}
);
};
layerId = "0B1DFD06-3317-40CA-B510-4969A0718C16";
paths = (
{
closed = 1;
nodes = (
"171 -10 OFFCURVE",
"185 -8 OFFCURVE",
"198 6 CURVE SMOOTH",
"217 27 OFFCURVE",
"237 68 OFFCURVE",
"245 83 CURVE",
"266 136 OFFCURVE",
"385 397 OFFCURVE",
"436 499 CURVE",
"437 499 LINE",
"440 398 OFFCURVE",
"464 148 OFFCURVE",
"464 29 CURVE SMOOTH",
"464 5 OFFCURVE",
"463 -10 OFFCURVE",
"469 -10 CURVE SMOOTH",
"473 -10 OFFCURVE",
"485 -5 OFFCURVE",
"494 7 CURVE SMOOTH",
"505 22 OFFCURVE",
"534 76 OFFCURVE",
"539 85 CURVE",
"548 105 OFFCURVE",
"696 438 OFFCURVE",
"725 504 CURVE SMOOTH",
"750 561 OFFCURVE",
"765 603 OFFCURVE",
"765 636 CURVE SMOOTH",
"765 675 OFFCURVE",
"745 711 OFFCURVE",
"729 711 CURVE SMOOTH",
"705 711 OFFCURVE",
"653 628 OFFCURVE",
"657 624 CURVE SMOOTH",
"669 613 OFFCURVE",
"684 599 OFFCURVE",
"684 558 CURVE SMOOTH",
"684 497 OFFCURVE",
"651 436 OFFCURVE",
"622 369 CURVE SMOOTH",
"544 191 OFFCURVE",
"613 348 OFFCURVE",
"530 159 CURVE",
"529 159 LINE",
"527 190 OFFCURVE",
"516 328 OFFCURVE",
"515 348 CURVE SMOOTH",
"510 410 OFFCURVE",
"507 529 OFFCURVE",
"507 589 CURVE SMOOTH",
"507 624 OFFCURVE",
"508 631 OFFCURVE",
"513 661 CURVE SMOOTH",
"516 681 OFFCURVE",
"459 641 OFFCURVE",
"440 602 CURVE SMOOTH",
"432 585 OFFCURVE",
"300 304 OFFCURVE",
"260 218 CURVE",
"259 218 LINE",
"265 325 OFFCURVE",
"267 377 OFFCURVE",
"267 435 CURVE SMOOTH",
"267 576 OFFCURVE",
"255 710 OFFCURVE",
"176 710 CURVE SMOOTH",
"112 710 OFFCURVE",
"46 620 OFFCURVE",
"46 540 CURVE SMOOTH",
"46 526 OFFCURVE",
"48 522 OFFCURVE",
"54 522 CURVE SMOOTH",
"62 522 OFFCURVE",
"65 528 OFFCURVE",
"70 543 CURVE SMOOTH",
"89 595 OFFCURVE",
"111 624 OFFCURVE",
"141 624 CURVE SMOOTH",
"182 624 OFFCURVE",
"193 567 OFFCURVE",
"193 419 CURVE SMOOTH",
"193 265 OFFCURVE",
"181 147 OFFCURVE",
"165 0 CURVE SMOOTH",
"164 -8 OFFCURVE",
"166 -10 OFFCURVE",
"169 -10 CURVE SMOOTH"
);
}
);
width = 765;
}
);
leftKerningGroup = W;
note = W;
rightKerningGroup = W;
unicode = 0057;
},
{
glyphname = X;
lastChange = "2018-05-23 06:41:33 +0000";
layers = (
{
anchors = (
{
name = bottom;
position = "{264, 0}";
},
{
name = top;
position = "{388, 700}";
}
);
background = {
paths = (
{
closed = 1;
nodes = (
"131 -10 OFFCURVE",
"227 80 OFFCURVE",
"303 231 CURVE SMOOTH",
"306 237 LINE",
"320 185 LINE SMOOTH",
"363 27 OFFCURVE",
"390 -10 OFFCURVE",
"442 -10 CURVE SMOOTH",
"515 -10 OFFCURVE",
"588 91 OFFCURVE",
"588 176 CURVE SMOOTH",
"588 183 OFFCURVE",
"585 189 OFFCURVE",
"578 189 CURVE SMOOTH",
"571 189 OFFCURVE",
"566 183 OFFCURVE",
"561 170 CURVE SMOOTH",
"546 131 OFFCURVE",
"516 98 OFFCURVE",
"489 98 CURVE SMOOTH",
"460 98 OFFCURVE",
"447 128 OFFCURVE",
"431 188 CURVE SMOOTH",
"383 369 LINE",
"417 437 OFFCURVE",
"465 519 OFFCURVE",
"509 572 CURVE SMOOTH",
"523 589 OFFCURVE",
"536 599 OFFCURVE",
"555 599 CURVE SMOOTH",
"571 599 OFFCURVE",
"580 593 OFFCURVE",
"594 582 CURVE SMOOTH",
"603 575 OFFCURVE",
"679 656 OFFCURVE",
"679 668 CURVE SMOOTH",
"679 687 OFFCURVE",
"632 710 OFFCURVE",
"593 710 CURVE SMOOTH",
"525 710 OFFCURVE",
"457 646 OFFCURVE",
"380 501 CURVE SMOOTH",
"356 456 LINE",
"312 627 LINE SMOOTH",
"297 687 OFFCURVE",
"269 710 OFFCURVE",
"232 710 CURVE SMOOTH",
"159 710 OFFCURVE",
"96 599 OFFCURVE",
"96 514 CURVE SMOOTH",
"96 507 OFFCURVE",
"99 501 OFFCURVE",
"106 501 CURVE SMOOTH",
"113 501 OFFCURVE",
"118 507 OFFCURVE",
"123 520 CURVE SMOOTH",
"137 559 OFFCURVE",
"157 602 OFFCURVE",
"184 602 CURVE SMOOTH",
"210 602 OFFCURVE",
"215 577 OFFCURVE",
"229 521 CURVE SMOOTH",
"275 338 LINE",
"268 323 LINE SMOOTH",
"189 152 OFFCURVE",
"125 100 OFFCURVE",
"88 100 CURVE SMOOTH",
"75 100 OFFCURVE",
"62 103 OFFCURVE",
"48 117 CURVE SMOOTH",
"36 129 OFFCURVE",
"-32 52 OFFCURVE",
"-32 27 CURVE SMOOTH",
"-32 7 OFFCURVE",
"-2 -10 OFFCURVE",
"43 -10 CURVE SMOOTH"
);
}
);
};
layerId = "56450C88-1299-454A-B666-E6F9AF06B23F";
paths = (
{
closed = 1;
nodes = (
"118 -10 OFFCURVE",
"215 75 OFFCURVE",
"293 231 CURVE SMOOTH",
"296 237 LINE",
"310 185 LINE SMOOTH",
"352 28 OFFCURVE",
"382 -10 OFFCURVE",
"429 -10 CURVE SMOOTH",
"508 -10 OFFCURVE",
"578 97 OFFCURVE",
"578 171 CURVE SMOOTH",
"578 184 OFFCURVE",
"576 189 OFFCURVE",
"569 189 CURVE SMOOTH",
"559 189 OFFCURVE",
"555 180 OFFCURVE",
"551 170 CURVE SMOOTH",
"530 121 OFFCURVE",
"503 98 OFFCURVE",
"479 98 CURVE SMOOTH",
"450 98 OFFCURVE",
"437 128 OFFCURVE",
"421 188 CURVE SMOOTH",
"373 369 LINE",
"411 445 OFFCURVE",
"463 530 OFFCURVE",
"499 572 CURVE SMOOTH",
"515 591 OFFCURVE",
"527 599 OFFCURVE",
"545 599 CURVE SMOOTH",
"561 599 OFFCURVE",
"570 593 OFFCURVE",
"584 582 CURVE SMOOTH",
"593 575 OFFCURVE",
"669 654 OFFCURVE",
"669 671 CURVE SMOOTH",
"669 682 OFFCURVE",
"639 710 OFFCURVE",
"590 710 CURVE SMOOTH",
"515 710 OFFCURVE",
"447 646 OFFCURVE",
"370 501 CURVE SMOOTH",
"346 456 LINE",
"302 627 LINE SMOOTH",
"287 687 OFFCURVE",
"258 710 OFFCURVE",
"223 710 CURVE SMOOTH",
"144 710 OFFCURVE",
"86 594 OFFCURVE",
"86 520 CURVE SMOOTH",
"86 506 OFFCURVE",
"88 501 OFFCURVE",
"95 501 CURVE SMOOTH",
"103 501 OFFCURVE",
"108 507 OFFCURVE",
"113 520 CURVE SMOOTH",
"128 559 OFFCURVE",
"145 602 OFFCURVE",
"175 602 CURVE SMOOTH",
"200 602 OFFCURVE",
"206 573 OFFCURVE",
"219 521 CURVE SMOOTH",
"265 338 LINE",
"258 323 LINE SMOOTH",
"181 158 OFFCURVE",
"120 100 OFFCURVE",
"76 100 CURVE SMOOTH",
"58 100 OFFCURVE",
"47 109 OFFCURVE",
"38 117 CURVE SMOOTH",
"25 128 OFFCURVE",
"-42 52 OFFCURVE",
"-42 27 CURVE SMOOTH",
"-42 11 OFFCURVE",
"-12 -10 OFFCURVE",
"31 -10 CURVE SMOOTH"
);
}
);
width = 643;
},
{
anchors = (
{
name = bottom;
position = "{248, 0}";
},
{
name = top;
position = "{360, 700}";
}
);
background = {
anchors = (
{
name = bottom;
position = "{248, 0}";
},
{
name = top;
position = "{360, 700}";
}
);
paths = (
{
closed = 1;
nodes = (
"111 -10 OFFCURVE",
"204 88 OFFCURVE",
"280 265 CURVE SMOOTH",
"286 279 LINE",
"313 179 LINE SMOOTH",
"348 50 OFFCURVE",
"373 -10 OFFCURVE",
"419 -10 CURVE SMOOTH",
"483 -10 OFFCURVE",
"538 106 OFFCURVE",
"538 150 CURVE SMOOTH",
"538 158 OFFCURVE",
"536 162 OFFCURVE",
"531 162 CURVE SMOOTH",
"524 162 OFFCURVE",
"520 156 OFFCURVE",
"515 145 CURVE SMOOTH",
"502 117 OFFCURVE",
"482 75 OFFCURVE",
"452 75 CURVE SMOOTH",
"433 75 OFFCURVE",
"417 91 OFFCURVE",
"401 151 CURVE SMOOTH",
"342 369 LINE",
"384 456 OFFCURVE",
"421 527 OFFCURVE",
"459 575 CURVE SMOOTH",
"485 608 OFFCURVE",
"506 622 OFFCURVE",
"532 622 CURVE SMOOTH",
"551 622 OFFCURVE",
"560 614 OFFCURVE",
"571 604 CURVE SMOOTH",
"575 600 OFFCURVE",
"628 665 OFFCURVE",
"628 683 CURVE SMOOTH",
"628 696 OFFCURVE",
"597 710 OFFCURVE",
"568 710 CURVE SMOOTH",
"504 710 OFFCURVE",
"440 640 OFFCURVE",
"367 506 CURVE SMOOTH",
"324 427 LINE",
"270 634 LINE SMOOTH",
"258 682 OFFCURVE",
"238 710 OFFCURVE",
"207 710 CURVE SMOOTH",
"144 710 OFFCURVE",
"86 595 OFFCURVE",
"86 543 CURVE SMOOTH",
"86 533 OFFCURVE",
"88 529 OFFCURVE",
"93 529 CURVE SMOOTH",
"100 529 OFFCURVE",
"104 535 OFFCURVE",
"109 546 CURVE SMOOTH",
"121 573 OFFCURVE",
"144 624 OFFCURVE",
"173 624 CURVE SMOOTH",
"193 624 OFFCURVE",
"203 599 OFFCURVE",
"217 542 CURVE SMOOTH",
"268 338 LINE",
"259 319 LINE SMOOTH",
"214 224 OFFCURVE",
"144 78 OFFCURVE",
"69 78 CURVE SMOOTH",
"50 78 OFFCURVE",
"40 87 OFFCURVE",
"29 98 CURVE SMOOTH",
"24 103 OFFCURVE",
"-32 43 OFFCURVE",
"-32 25 CURVE SMOOTH",
"-32 13 OFFCURVE",
"-11 -10 OFFCURVE",
"29 -10 CURVE SMOOTH"
);
}
);
};
layerId = "0B1DFD06-3317-40CA-B510-4969A0718C16";
paths = (
{
closed = 1;
nodes = (
"111 -10 OFFCURVE",
"204 88 OFFCURVE",
"280 265 CURVE SMOOTH",
"286 279 LINE",
"313 179 LINE SMOOTH",
"348 50 OFFCURVE",
"373 -10 OFFCURVE",
"419 -10 CURVE SMOOTH",
"483 -10 OFFCURVE",
"538 106 OFFCURVE",
"538 150 CURVE SMOOTH",
"538 158 OFFCURVE",
"536 162 OFFCURVE",
"531 162 CURVE SMOOTH",
"524 162 OFFCURVE",
"520 156 OFFCURVE",
"515 145 CURVE SMOOTH",
"502 117 OFFCURVE",
"482 75 OFFCURVE",
"452 75 CURVE SMOOTH",
"433 75 OFFCURVE",
"417 91 OFFCURVE",
"401 151 CURVE SMOOTH",
"342 369 LINE",
"384 456 OFFCURVE",
"421 527 OFFCURVE",
"459 575 CURVE SMOOTH",
"485 608 OFFCURVE",
"506 622 OFFCURVE",
"532 622 CURVE SMOOTH",
"551 622 OFFCURVE",
"560 614 OFFCURVE",
"571 604 CURVE SMOOTH",
"575 600 OFFCURVE",
"628 665 OFFCURVE",
"628 683 CURVE SMOOTH",
"628 696 OFFCURVE",
"597 710 OFFCURVE",
"568 710 CURVE SMOOTH",
"504 710 OFFCURVE",
"440 640 OFFCURVE",
"367 506 CURVE SMOOTH",
"324 427 LINE",
"270 634 LINE SMOOTH",
"258 682 OFFCURVE",
"238 710 OFFCURVE",
"207 710 CURVE SMOOTH",
"144 710 OFFCURVE",
"86 595 OFFCURVE",
"86 543 CURVE SMOOTH",
"86 533 OFFCURVE",
"88 529 OFFCURVE",
"93 529 CURVE SMOOTH",
"100 529 OFFCURVE",
"104 535 OFFCURVE",
"109 546 CURVE SMOOTH",
"121 573 OFFCURVE",
"144 624 OFFCURVE",
"173 624 CURVE SMOOTH",
"193 624 OFFCURVE",
"203 599 OFFCURVE",
"217 542 CURVE SMOOTH",
"268 338 LINE",
"259 319 LINE SMOOTH",
"214 224 OFFCURVE",
"144 78 OFFCURVE",
"69 78 CURVE SMOOTH",
"50 78 OFFCURVE",
"40 87 OFFCURVE",
"29 98 CURVE SMOOTH",
"24 103 OFFCURVE",
"-32 43 OFFCURVE",
"-32 25 CURVE SMOOTH",
"-32 13 OFFCURVE",
"-11 -10 OFFCURVE",
"29 -10 CURVE SMOOTH"
);
}
);
width = 612;
}
);
note = X;
unicode = 0058;
},
{
glyphname = Y;
lastChange = "2018-05-23 06:41:33 +0000";
layers = (
{
anchors = (
{
name = bottom;
position = "{221, 0}";
},
{
name = top;
position = "{366, 700}";
}
);
background = {
paths = (
{
closed = 1;
nodes = (
"152 0 OFFCURVE",
"170 16 OFFCURVE",
"205 16 CURVE SMOOTH",
"237 16 OFFCURVE",
"268 0 OFFCURVE",
"296 0 CURVE SMOOTH",
"320 0 OFFCURVE",
"339 11 OFFCURVE",
"374 53 CURVE SMOOTH",
"383 64 OFFCURVE",
"386 71 OFFCURVE",
"386 80 CURVE SMOOTH",
"386 85 OFFCURVE",
"383 89 OFFCURVE",
"378 89 CURVE SMOOTH",
"367 89 OFFCURVE",
"356 78 OFFCURVE",
"330 78 CURVE SMOOTH",
"318 78 OFFCURVE",
"303 81 OFFCURVE",
"291 87 CURVE",
"291 88 LINE",
"302 98 OFFCURVE",
"311 117 OFFCURVE",
"314 135 CURVE SMOOTH",
"338 263 LINE SMOOTH",
"368 423 OFFCURVE",
"462 592 OFFCURVE",
"531 592 CURVE SMOOTH",
"549 592 OFFCURVE",
"558 589 OFFCURVE",
"576 571 CURVE SMOOTH",
"590 557 OFFCURVE",
"647 651 OFFCURVE",
"647 677 CURVE SMOOTH",
"647 688 OFFCURVE",
"618 710 OFFCURVE",
"575 710 CURVE SMOOTH",
"483 710 OFFCURVE",
"397 605 OFFCURVE",
"333 428 CURVE",
"332 428 LINE",
"313 603 OFFCURVE",
"257 710 OFFCURVE",
"182 710 CURVE SMOOTH",
"109 710 OFFCURVE",
"56 614 OFFCURVE",
"56 549 CURVE SMOOTH",
"56 542 OFFCURVE",
"59 538 OFFCURVE",
"66 538 CURVE SMOOTH",
"71 538 OFFCURVE",
"77 543 OFFCURVE",
"82 554 CURVE SMOOTH",
"101 595 OFFCURVE",
"119 612 OFFCURVE",
"148 612 CURVE SMOOTH",
"218 612 OFFCURVE",
"253 372 OFFCURVE",
"230 250 CURVE SMOOTH",
"214 166 LINE SMOOTH",
"202 101 OFFCURVE",
"193 87 OFFCURVE",
"167 65 CURVE SMOOTH",
"148 49 OFFCURVE",
"135 30 OFFCURVE",
"135 10 CURVE SMOOTH",
"135 4 OFFCURVE",
"138 0 OFFCURVE",
"143 0 CURVE SMOOTH"
);
}
);
};
layerId = "56450C88-1299-454A-B666-E6F9AF06B23F";
paths = (
{
closed = 1;
nodes = (
"143 0 OFFCURVE",
"162 16 OFFCURVE",
"196 16 CURVE SMOOTH",
"229 16 OFFCURVE",
"259 0 OFFCURVE",
"286 0 CURVE SMOOTH",
"308 0 OFFCURVE",
"332 10 OFFCURVE",
"365 53 CURVE SMOOTH",
"372 62 OFFCURVE",
"377 70 OFFCURVE",
"377 80 CURVE SMOOTH",
"377 86 OFFCURVE",
"375 89 OFFCURVE",
"369 89 CURVE SMOOTH",
"358 89 OFFCURVE",
"346 78 OFFCURVE",
"322 78 CURVE SMOOTH",
"309 78 OFFCURVE",
"294 81 OFFCURVE",
"282 87 CURVE",
"282 88 LINE",
"292 97 OFFCURVE",
"301 114 OFFCURVE",
"305 135 CURVE SMOOTH",
"329 263 LINE SMOOTH",
"358 420 OFFCURVE",
"449 592 OFFCURVE",
"525 592 CURVE SMOOTH",
"550 592 OFFCURVE",
"560 574 OFFCURVE",
"566 571 CURVE SMOOTH",
"584 561 OFFCURVE",
"637 656 OFFCURVE",
"637 675 CURVE SMOOTH",
"637 690 OFFCURVE",
"606 710 OFFCURVE",
"566 710 CURVE SMOOTH",
"473 710 OFFCURVE",
"387 605 OFFCURVE",
"323 428 CURVE",
"322 428 LINE",
"303 603 OFFCURVE",
"247 710 OFFCURVE",
"171 710 CURVE SMOOTH",
"99 710 OFFCURVE",
"46 612 OFFCURVE",
"46 553 CURVE SMOOTH",
"46 542 OFFCURVE",
"48 538 OFFCURVE",
"54 538 CURVE SMOOTH",
"60 538 OFFCURVE",
"66 543 OFFCURVE",
"71 554 CURVE SMOOTH",
"83 578 OFFCURVE",
"103 612 OFFCURVE",
"133 612 CURVE SMOOTH",
"211 612 OFFCURVE",
"242 372 OFFCURVE",
"219 250 CURVE SMOOTH",
"203 166 LINE SMOOTH",
"190 100 OFFCURVE",
"185 91 OFFCURVE",
"158 65 CURVE SMOOTH",
"142 50 OFFCURVE",
"126 33 OFFCURVE",
"126 12 CURVE SMOOTH",
"126 3 OFFCURVE",
"129 0 OFFCURVE",
"133 0 CURVE SMOOTH"
);
}
);
width = 585;
},
{
anchors = (
{
name = bottom;
position = "{202, 0}";
},
{
name = top;
position = "{351, 700}";
}
);
background = {
anchors = (
{
name = bottom;
position = "{202, 0}";
},
{
name = top;
position = "{351, 700}";
}
);
paths = (
{
closed = 1;
nodes = (
"142 0 OFFCURVE",
"160 17 OFFCURVE",
"185 17 CURVE SMOOTH",
"210 17 OFFCURVE",
"240 0 OFFCURVE",
"260 0 CURVE SMOOTH",
"272 0 OFFCURVE",
"292 6 OFFCURVE",
"326 41 CURVE SMOOTH",
"337 52 OFFCURVE",
"339 58 OFFCURVE",
"339 62 CURVE SMOOTH",
"339 67 OFFCURVE",
"336 70 OFFCURVE",
"332 70 CURVE SMOOTH",
"323 70 OFFCURVE",
"313 59 OFFCURVE",
"291 59 CURVE SMOOTH",
"279 59 OFFCURVE",
"266 62 OFFCURVE",
"251 68 CURVE",
"251 69 LINE",
"261 79 OFFCURVE",
"269 94 OFFCURVE",
"272 111 CURVE SMOOTH",
"302 273 LINE SMOOTH",
"326 401 OFFCURVE",
"428 614 OFFCURVE",
"517 614 CURVE SMOOTH",
"531 614 OFFCURVE",
"539 609 OFFCURVE",
"550 598 CURVE SMOOTH",
"554 594 OFFCURVE",
"607 668 OFFCURVE",
"607 683 CURVE SMOOTH",
"607 692 OFFCURVE",
"585 710 OFFCURVE",
"553 710 CURVE SMOOTH",
"450 710 OFFCURVE",
"347 530 OFFCURVE",
"297 388 CURVE",
"296 388 LINE",
"286 517 OFFCURVE",
"253 710 OFFCURVE",
"155 710 CURVE SMOOTH",
"99 710 OFFCURVE",
"56 646 OFFCURVE",
"56 586 CURVE SMOOTH",
"56 577 OFFCURVE",
"57 572 OFFCURVE",
"63 572 CURVE SMOOTH",
"68 572 OFFCURVE",
"71 577 OFFCURVE",
"80 593 CURVE SMOOTH",
"96 621 OFFCURVE",
"116 634 OFFCURVE",
"133 634 CURVE SMOOTH",
"211 634 OFFCURVE",
"245 361 OFFCURVE",
"225 257 CURVE SMOOTH",
"210 177 LINE SMOOTH",
"190 68 OFFCURVE",
"186 86 OFFCURVE",
"151 51 CURVE SMOOTH",
"132 32 OFFCURVE",
"129 22 OFFCURVE",
"129 11 CURVE SMOOTH",
"129 4 OFFCURVE",
"130 0 OFFCURVE",
"134 0 CURVE SMOOTH"
);
}
);
};
layerId = "0B1DFD06-3317-40CA-B510-4969A0718C16";
paths = (
{
closed = 1;
nodes = (
"142 0 OFFCURVE",
"160 17 OFFCURVE",
"185 17 CURVE SMOOTH",
"210 17 OFFCURVE",
"240 0 OFFCURVE",
"260 0 CURVE SMOOTH",
"272 0 OFFCURVE",
"292 6 OFFCURVE",
"326 41 CURVE SMOOTH",
"337 52 OFFCURVE",
"339 58 OFFCURVE",
"339 62 CURVE SMOOTH",
"339 67 OFFCURVE",
"336 70 OFFCURVE",
"332 70 CURVE SMOOTH",
"323 70 OFFCURVE",
"313 59 OFFCURVE",
"291 59 CURVE SMOOTH",
"279 59 OFFCURVE",
"266 62 OFFCURVE",
"251 68 CURVE",
"251 69 LINE",
"261 79 OFFCURVE",
"269 94 OFFCURVE",
"272 111 CURVE SMOOTH",
"302 273 LINE SMOOTH",
"326 401 OFFCURVE",
"428 614 OFFCURVE",
"517 614 CURVE SMOOTH",
"531 614 OFFCURVE",
"539 609 OFFCURVE",
"550 598 CURVE SMOOTH",
"554 594 OFFCURVE",
"607 668 OFFCURVE",
"607 683 CURVE SMOOTH",
"607 692 OFFCURVE",
"585 710 OFFCURVE",
"553 710 CURVE SMOOTH",
"450 710 OFFCURVE",
"347 530 OFFCURVE",
"297 388 CURVE",
"296 388 LINE",
"286 517 OFFCURVE",
"253 710 OFFCURVE",
"155 710 CURVE SMOOTH",
"99 710 OFFCURVE",
"56 646 OFFCURVE",
"56 586 CURVE SMOOTH",
"56 577 OFFCURVE",
"57 572 OFFCURVE",
"63 572 CURVE SMOOTH",
"68 572 OFFCURVE",
"71 577 OFFCURVE",
"80 593 CURVE SMOOTH",
"96 621 OFFCURVE",
"116 634 OFFCURVE",
"133 634 CURVE SMOOTH",
"211 634 OFFCURVE",
"245 361 OFFCURVE",
"225 257 CURVE SMOOTH",
"210 177 LINE SMOOTH",
"190 68 OFFCURVE",
"186 86 OFFCURVE",
"151 51 CURVE SMOOTH",
"132 32 OFFCURVE",
"129 22 OFFCURVE",
"129 11 CURVE SMOOTH",
"129 4 OFFCURVE",
"130 0 OFFCURVE",
"134 0 CURVE SMOOTH"
);
}
);
width = 565;
}
);
leftKerningGroup = Y;
note = Y;
rightKerningGroup = Y;
unicode = 0059;
},
{
glyphname = Z;
lastChange = "2018-05-23 06:41:33 +0000";
layers = (
{
anchors = (
{
name = bottom;
position = "{215, 0}";
},
{
name = top;
position = "{343, 700}";
}
);
background = {
paths = (
{
closed = 1;
nodes = (
"44 -10 OFFCURVE",
"75 48 OFFCURVE",
"157 48 CURVE SMOOTH",
"218 48 OFFCURVE",
"301 -10 OFFCURVE",
"359 -10 CURVE SMOOTH",
"434 -10 OFFCURVE",
"500 48 OFFCURVE",
"500 136 CURVE SMOOTH",
"500 159 OFFCURVE",
"496 169 OFFCURVE",
"486 169 CURVE SMOOTH",
"479 169 OFFCURVE",
"475 161 OFFCURVE",
"470 149 CURVE SMOOTH",
"455 114 OFFCURVE",
"425 96 OFFCURVE",
"381 96 CURVE SMOOTH",
"326 96 OFFCURVE",
"264 143 OFFCURVE",
"217 143 CURVE SMOOTH",
"199 143 OFFCURVE",
"177 140 OFFCURVE",
"161 133 CURVE",
"160 133 LINE",
"533 619 LINE SMOOTH",
"544 633 OFFCURVE",
"563 658 OFFCURVE",
"563 677 CURVE SMOOTH",
"563 689 OFFCURVE",
"554 714 OFFCURVE",
"542 714 CURVE SMOOTH",
"531 714 OFFCURVE",
"525 678 OFFCURVE",
"455 678 CURVE SMOOTH",
"396 678 OFFCURVE",
"364 710 OFFCURVE",
"313 710 CURVE SMOOTH",
"200 710 OFFCURVE",
"92 634 OFFCURVE",
"92 449 CURVE SMOOTH",
"92 444 OFFCURVE",
"97 441 OFFCURVE",
"102 441 CURVE SMOOTH",
"133 441 OFFCURVE",
"201 518 OFFCURVE",
"199 537 CURVE SMOOTH",
"192 599 OFFCURVE",
"213 621 OFFCURVE",
"255 621 CURVE SMOOTH",
"310 621 OFFCURVE",
"338 578 OFFCURVE",
"397 578 CURVE SMOOTH",
"403 578 OFFCURVE",
"413 578 OFFCURVE",
"419 580 CURVE",
"278 393 OFFCURVE",
"187 276 OFFCURVE",
"127 200 CURVE SMOOTH",
"48 100 OFFCURVE",
"26 74 OFFCURVE",
"16 57 CURVE SMOOTH",
"8 43 OFFCURVE",
"6 35 OFFCURVE",
"6 27 CURVE SMOOTH",
"6 12 OFFCURVE",
"14 -10 OFFCURVE",
"28 -10 CURVE"
);
}
);
};
layerId = "56450C88-1299-454A-B666-E6F9AF06B23F";
paths = (
{
closed = 1;
nodes = (
"32 -10 OFFCURVE",
"70 48 OFFCURVE",
"143 48 CURVE SMOOTH",
"215 48 OFFCURVE",
"284 -10 OFFCURVE",
"353 -10 CURVE SMOOTH",
"422 -10 OFFCURVE",
"490 48 OFFCURVE",
"490 137 CURVE SMOOTH",
"490 158 OFFCURVE",
"486 169 OFFCURVE",
"477 169 CURVE SMOOTH",
"469 169 OFFCURVE",
"465 161 OFFCURVE",
"460 149 CURVE SMOOTH",
"443 113 OFFCURVE",
"414 96 OFFCURVE",
"375 96 CURVE SMOOTH",
"310 96 OFFCURVE",
"259 143 OFFCURVE",
"204 143 CURVE SMOOTH",
"190 143 OFFCURVE",
"167 140 OFFCURVE",
"151 133 CURVE",
"150 133 LINE",
"523 619 LINE SMOOTH",
"534 633 OFFCURVE",
"553 658 OFFCURVE",
"553 677 CURVE SMOOTH",
"553 690 OFFCURVE",
"543 714 OFFCURVE",
"533 714 CURVE SMOOTH",
"521 714 OFFCURVE",
"504 678 OFFCURVE",
"437 678 CURVE SMOOTH",
"373 678 OFFCURVE",
"326 710 OFFCURVE",
"251 710 CURVE SMOOTH",
"156 710 OFFCURVE",
"92 658 OFFCURVE",
"82 581 CURVE SMOOTH",
"79 560 OFFCURVE",
"82 548 OFFCURVE",
"92 548 CURVE SMOOTH",
"100 548 OFFCURVE",
"104 557 OFFCURVE",
"115 570 CURVE SMOOTH",
"143 604 OFFCURVE",
"182 620 OFFCURVE",
"234 620 CURVE SMOOTH",
"312 620 OFFCURVE",
"343 585 OFFCURVE",
"403 585 CURVE SMOOTH",
"413 585 LINE",
"117 200 LINE SMOOTH",
"42 102 OFFCURVE",
"18 76 OFFCURVE",
"6 57 CURVE SMOOTH",
"-2 43 OFFCURVE",
"-4 35 OFFCURVE",
"-4 27 CURVE SMOOTH",
"-4 12 OFFCURVE",
"4 -10 OFFCURVE",
"18 -10 CURVE"
);
}
);
width = 543;
},
{
anchors = (
{
name = bottom;
position = "{224, 0}";
},
{
name = top;
position = "{361, 700}";
}
);
background = {
anchors = (
{
name = bottom;
position = "{224, 0}";
},
{
name = top;
position = "{361, 700}";
}
);
paths = (
{
closed = 1;
nodes = (
"34 0 OFFCURVE",
"61 57 OFFCURVE",
"129 57 CURVE SMOOTH",
"195 57 OFFCURVE",
"272 0 OFFCURVE",
"342 0 CURVE SMOOTH",
"397 0 OFFCURVE",
"467 52 OFFCURVE",
"467 126 CURVE SMOOTH",
"467 141 OFFCURVE",
"463 151 OFFCURVE",
"458 151 CURVE SMOOTH",
"453 151 OFFCURVE",
"451 146 OFFCURVE",
"447 138 CURVE SMOOTH",
"429 101 OFFCURVE",
"400 84 OFFCURVE",
"356 84 CURVE SMOOTH",
"299 84 OFFCURVE",
"218 137 OFFCURVE",
"168 137 CURVE SMOOTH",
"151 137 OFFCURVE",
"134 134 OFFCURVE",
"125 129 CURVE",
"124 130 LINE",
"503 626 LINE",
"511 637 OFFCURVE",
"530 661 OFFCURVE",
"530 677 CURVE SMOOTH",
"530 692 OFFCURVE",
"525 702 OFFCURVE",
"518 702 CURVE SMOOTH",
"508 702 OFFCURVE",
"495 668 OFFCURVE",
"438 668 CURVE SMOOTH",
"366 668 OFFCURVE",
"313 700 OFFCURVE",
"241 700 CURVE SMOOTH",
"156 700 OFFCURVE",
"101 643 OFFCURVE",
"92 569 CURVE SMOOTH",
"91 561 OFFCURVE",
"95 555 OFFCURVE",
"100 555 CURVE SMOOTH",
"107 555 OFFCURVE",
"116 572 OFFCURVE",
"134 586 CURVE SMOOTH",
"161 607 OFFCURVE",
"192 618 OFFCURVE",
"231 618 CURVE SMOOTH",
"274 618 OFFCURVE",
"349 586 OFFCURVE",
"412 586 CURVE SMOOTH",
"419 586 LINE",
"117 195 LINE SMOOTH",
"41 96 OFFCURVE",
"26 65 OFFCURVE",
"14 47 CURVE SMOOTH",
"10 41 OFFCURVE",
"6 32 OFFCURVE",
"6 24 CURVE SMOOTH",
"6 11 OFFCURVE",
"15 0 OFFCURVE",
"22 0 CURVE SMOOTH"
);
}
);
};
layerId = "0B1DFD06-3317-40CA-B510-4969A0718C16";
paths = (
{
closed = 1;
nodes = (
"34 0 OFFCURVE",
"61 57 OFFCURVE",
"129 57 CURVE SMOOTH",
"195 57 OFFCURVE",
"272 0 OFFCURVE",
"342 0 CURVE SMOOTH",
"397 0 OFFCURVE",
"467 52 OFFCURVE",
"467 126 CURVE SMOOTH",
"467 141 OFFCURVE",
"463 151 OFFCURVE",
"458 151 CURVE SMOOTH",
"453 151 OFFCURVE",
"451 146 OFFCURVE",
"447 138 CURVE SMOOTH",
"429 101 OFFCURVE",
"400 84 OFFCURVE",
"356 84 CURVE SMOOTH",
"299 84 OFFCURVE",
"218 137 OFFCURVE",
"168 137 CURVE SMOOTH",
"151 137 OFFCURVE",
"134 134 OFFCURVE",
"125 129 CURVE",
"124 130 LINE",
"503 626 LINE",
"511 637 OFFCURVE",
"530 661 OFFCURVE",
"530 677 CURVE SMOOTH",
"530 692 OFFCURVE",
"525 702 OFFCURVE",
"518 702 CURVE SMOOTH",
"508 702 OFFCURVE",
"495 668 OFFCURVE",
"438 668 CURVE SMOOTH",
"366 668 OFFCURVE",
"313 700 OFFCURVE",
"241 700 CURVE SMOOTH",
"156 700 OFFCURVE",
"101 643 OFFCURVE",
"92 569 CURVE SMOOTH",
"91 561 OFFCURVE",
"95 555 OFFCURVE",
"100 555 CURVE SMOOTH",
"107 555 OFFCURVE",
"116 572 OFFCURVE",
"134 586 CURVE SMOOTH",
"161 607 OFFCURVE",
"192 618 OFFCURVE",
"231 618 CURVE SMOOTH",
"274 618 OFFCURVE",
"349 586 OFFCURVE",
"412 586 CURVE SMOOTH",
"419 586 LINE",
"117 195 LINE SMOOTH",
"41 96 OFFCURVE",
"26 65 OFFCURVE",
"14 47 CURVE SMOOTH",
"10 41 OFFCURVE",
"6 32 OFFCURVE",
"6 24 CURVE SMOOTH",
"6 11 OFFCURVE",
"15 0 OFFCURVE",
"22 0 CURVE SMOOTH"
);
}
);
width = 530;
}
);
leftKerningGroup = Z;
note = Z;
rightKerningGroup = Z;
unicode = 005A;
},
{
glyphname = a;
lastChange = "2018-05-23 06:41:33 +0000";
layers = (
{
anchors = (
{
name = bottom;
position = "{200, 0}";
},
{
name = ogonek;
position = "{346, 10}";
},
{
name = top;
position = "{319, 470}";
}
);
background = {
paths = (
{
closed = 1;
nodes = (
"145 -10 OFFCURVE",
"195 28 OFFCURVE",
"260 109 CURVE",
"261 109 LINE",
"256 75 LINE SMOOTH",
"249 22 OFFCURVE",
"268 -10 OFFCURVE",
"308 -10 CURVE SMOOTH",
"375 -10 OFFCURVE",
"444 79 OFFCURVE",
"453 152 CURVE SMOOTH",
"455 169 OFFCURVE",
"451 177 OFFCURVE",
"444 177 CURVE SMOOTH",
"438 177 OFFCURVE",
"434 172 OFFCURVE",
"431 164 CURVE SMOOTH",
"412 114 OFFCURVE",
"389 85 OFFCURVE",
"370 85 CURVE SMOOTH",
"352 85 OFFCURVE",
"352 104 OFFCURVE",
"361 153 CURVE SMOOTH",
"376 235 OFFCURVE",
"393 322 OFFCURVE",
"408 404 CURVE SMOOTH",
"411 420 OFFCURVE",
"419 441 OFFCURVE",
"424 459 CURVE",
"402 471 OFFCURVE",
"367 480 OFFCURVE",
"329 480 CURVE SMOOTH",
"158 480 OFFCURVE",
"26 269 OFFCURVE",
"26 102 CURVE SMOOTH",
"26 20 OFFCURVE",
"54 -10 OFFCURVE",
"100 -10 CURVE SMOOTH"
);
},
{
closed = 1;
nodes = (
"138 89 OFFCURVE",
"134 99 OFFCURVE",
"134 121 CURVE SMOOTH",
"134 268 OFFCURVE",
"208 400 OFFCURVE",
"270 400 CURVE SMOOTH",
"287 400 OFFCURVE",
"303 395 OFFCURVE",
"319 386 CURVE",
"312 347 LINE SMOOTH",
"290 224 OFFCURVE",
"193 89 OFFCURVE",
"147 89 CURVE SMOOTH"
);
}
);
};
layerId = "56450C88-1299-454A-B666-E6F9AF06B23F";
paths = (
{
closed = 1;
nodes = (
"130 -10 OFFCURVE",
"201 44 OFFCURVE",
"252 119 CURVE",
"253 119 LINE",
"248 85 LINE SMOOTH",
"240 31 OFFCURVE",
"257 -10 OFFCURVE",
"301 -10 CURVE SMOOTH",
"367 -10 OFFCURVE",
"437 84 OFFCURVE",
"443 152 CURVE SMOOTH",
"445 172 OFFCURVE",
"440 177 OFFCURVE",
"434 177 CURVE SMOOTH",
"427 177 OFFCURVE",
"424 171 OFFCURVE",
"421 164 CURVE SMOOTH",
"403 121 OFFCURVE",
"384 85 OFFCURVE",
"360 85 CURVE SMOOTH",
"342 85 OFFCURVE",
"342 104 OFFCURVE",
"351 153 CURVE SMOOTH",
"364 222 OFFCURVE",
"395 389 OFFCURVE",
"398 404 CURVE SMOOTH",
"402 425 OFFCURVE",
"404 433 OFFCURVE",
"414 459 CURVE",
"392 471 OFFCURVE",
"356 480 OFFCURVE",
"320 480 CURVE SMOOTH",
"148 480 OFFCURVE",
"16 269 OFFCURVE",
"16 105 CURVE SMOOTH",
"16 35 OFFCURVE",
"40 -10 OFFCURVE",
"83 -10 CURVE SMOOTH"
);
},
{
closed = 1;
nodes = (
"128 90 OFFCURVE",
"124 99 OFFCURVE",
"124 131 CURVE SMOOTH",
"124 265 OFFCURVE",
"196 402 OFFCURVE",
"262 402 CURVE SMOOTH",
"275 402 OFFCURVE",
"293 397 OFFCURVE",
"309 388 CURVE",
"302 348 LINE SMOOTH",
"280 223 OFFCURVE",
"184 90 OFFCURVE",
"140 90 CURVE SMOOTH"
);
}
);
width = 476;
},
{
anchors = (
{
name = bottom;
position = "{177, 0}";
},
{
name = ogonek;
position = "{326, 14}";
},
{
name = top;
position = "{316, 470}";
}
);
background = {
anchors = (
{
name = bottom;
position = "{177, 0}";
},
{
name = ogonek;
position = "{326, 14}";
},
{
name = top;
position = "{316, 470}";
}
);
paths = (
{
closed = 1;
nodes = (
"130 -10 OFFCURVE",
"210 66 OFFCURVE",
"275 180 CURVE",
"276 180 LINE",
"259 93 LINE SMOOTH",
"251 53 OFFCURVE",
"247 -10 OFFCURVE",
"289 -10 CURVE SMOOTH",
"333 -10 OFFCURVE",
"399 58 OFFCURVE",
"414 128 CURVE SMOOTH",
"419 150 OFFCURVE",
"415 155 OFFCURVE",
"410 155 CURVE SMOOTH",
"404 155 OFFCURVE",
"401 149 OFFCURVE",
"399 144 CURVE SMOOTH",
"384 110 OFFCURVE",
"363 65 OFFCURVE",
"337 65 CURVE SMOOTH",
"325 65 OFFCURVE",
"321 76 OFFCURVE",
"325 104 CURVE SMOOTH",
"331 152 OFFCURVE",
"367 325 OFFCURVE",
"381 391 CURVE SMOOTH",
"388 424 OFFCURVE",
"392 443 OFFCURVE",
"399 466 CURVE",
"378 476 OFFCURVE",
"350 480 OFFCURVE",
"327 480 CURVE SMOOTH",
"159 480 OFFCURVE",
"26 274 OFFCURVE",
"26 88 CURVE SMOOTH",
"26 24 OFFCURVE",
"42 -10 OFFCURVE",
"77 -10 CURVE SMOOTH"
);
},
{
closed = 1;
nodes = (
"105 72 OFFCURVE",
"100 91 OFFCURVE",
"100 122 CURVE SMOOTH",
"100 232 OFFCURVE",
"162 422 OFFCURVE",
"255 422 CURVE SMOOTH",
"272 422 OFFCURVE",
"297 416 OFFCURVE",
"319 402 CURVE",
"303 338 LINE SMOOTH",
"278 237 OFFCURVE",
"184 72 OFFCURVE",
"125 72 CURVE SMOOTH"
);
}
);
};
layerId = "0B1DFD06-3317-40CA-B510-4969A0718C16";
paths = (
{
closed = 1;
nodes = (
"130 -10 OFFCURVE",
"210 66 OFFCURVE",
"275 180 CURVE",
"276 180 LINE",
"259 93 LINE SMOOTH",
"251 53 OFFCURVE",
"247 -10 OFFCURVE",
"289 -10 CURVE SMOOTH",
"333 -10 OFFCURVE",
"399 58 OFFCURVE",
"414 128 CURVE SMOOTH",
"419 150 OFFCURVE",
"415 155 OFFCURVE",
"410 155 CURVE SMOOTH",
"404 155 OFFCURVE",
"401 149 OFFCURVE",
"399 144 CURVE SMOOTH",
"384 110 OFFCURVE",
"363 65 OFFCURVE",
"337 65 CURVE SMOOTH",
"325 65 OFFCURVE",
"321 76 OFFCURVE",
"325 104 CURVE SMOOTH",
"331 152 OFFCURVE",
"367 325 OFFCURVE",
"381 391 CURVE SMOOTH",
"388 424 OFFCURVE",
"392 443 OFFCURVE",
"399 466 CURVE",
"378 476 OFFCURVE",
"350 480 OFFCURVE",
"327 480 CURVE SMOOTH",
"159 480 OFFCURVE",
"26 274 OFFCURVE",
"26 88 CURVE SMOOTH",
"26 24 OFFCURVE",
"42 -10 OFFCURVE",
"77 -10 CURVE SMOOTH"
);
},
{
closed = 1;
nodes = (
"105 72 OFFCURVE",
"100 91 OFFCURVE",
"100 122 CURVE SMOOTH",
"100 232 OFFCURVE",
"162 422 OFFCURVE",
"255 422 CURVE SMOOTH",
"272 422 OFFCURVE",
"297 416 OFFCURVE",
"319 402 CURVE",
"303 338 LINE SMOOTH",
"278 237 OFFCURVE",
"184 72 OFFCURVE",
"125 72 CURVE SMOOTH"
);
}
);
width = 458;
}
);
leftKerningGroup = a;
note = a;
rightKerningGroup = a;
unicode = 0061;
},
{
glyphname = b;
lastChange = "2018-05-23 06:41:33 +0000";
layers = (
{
anchors = (
{
name = bottom;
position = "{172, 0}";
},
{
name = top;
position = "{305, 884}";
}
);
background = {
paths = (
{
closed = 1;
nodes = (
"309 -10 OFFCURVE",
"428 152 OFFCURVE",
"430 346 CURVE SMOOTH",
"431 438 OFFCURVE",
"406 480 OFFCURVE",
"356 480 CURVE SMOOTH",
"306 480 OFFCURVE",
"242 427 OFFCURVE",
"195 349 CURVE",
"194 349 LINE",
"205 430 LINE SMOOTH",
"231 621 OFFCURVE",
"252 704 OFFCURVE",
"286 753 CURVE SMOOTH",
"313 791 OFFCURVE",
"344 810 OFFCURVE",
"387 812 CURVE SMOOTH",
"404 813 OFFCURVE",
"421 814 OFFCURVE",
"436 828 CURVE SMOOTH",
"450 841 OFFCURVE",
"462 861 OFFCURVE",
"462 874 CURVE SMOOTH",
"462 880 OFFCURVE",
"458 884 OFFCURVE",
"452 884 CURVE SMOOTH",
"444 884 OFFCURVE",
"435 877 OFFCURVE",
"399 874 CURVE SMOOTH",
"336 868 OFFCURVE",
"277 841 OFFCURVE",
"241 802 CURVE SMOOTH",
"180 736 OFFCURVE",
"144 639 OFFCURVE",
"115 461 CURVE SMOOTH",
"52 82 LINE SMOOTH",
"47 52 OFFCURVE",
"43 28 OFFCURVE",
"31 -7 CURVE",
"33 -7 LINE",
"40 -4 OFFCURVE",
"56 0 OFFCURVE",
"72 0 CURVE SMOOTH",
"104 0 OFFCURVE",
"117 -10 OFFCURVE",
"154 -10 CURVE SMOOTH"
);
},
{
closed = 1;
nodes = (
"183 69 OFFCURVE",
"166 74 OFFCURVE",
"150 85 CURVE",
"156 128 LINE SMOOTH",
"174 256 OFFCURVE",
"256 376 OFFCURVE",
"299 376 CURVE SMOOTH",
"319 376 OFFCURVE",
"324 352 OFFCURVE",
"324 317 CURVE SMOOTH",
"324 183 OFFCURVE",
"274 69 OFFCURVE",
"206 69 CURVE SMOOTH"
);
}
);
};
layerId = "56450C88-1299-454A-B666-E6F9AF06B23F";
paths = (
{
closed = 1;
nodes = (
"299 -10 OFFCURVE",
"418 152 OFFCURVE",
"420 346 CURVE SMOOTH",
"421 438 OFFCURVE",
"395 480 OFFCURVE",
"348 480 CURVE SMOOTH",
"295 480 OFFCURVE",
"232 427 OFFCURVE",
"185 349 CURVE",
"184 349 LINE",
"195 430 LINE SMOOTH",
"221 622 OFFCURVE",
"242 703 OFFCURVE",
"276 753 CURVE SMOOTH",
"308 800 OFFCURVE",
"346 810 OFFCURVE",
"377 812 CURVE SMOOTH",
"399 813 OFFCURVE",
"413 816 OFFCURVE",
"426 828 CURVE SMOOTH",
"440 841 OFFCURVE",
"452 861 OFFCURVE",
"452 873 CURVE SMOOTH",
"452 880 OFFCURVE",
"448 884 OFFCURVE",
"442 884 CURVE SMOOTH",
"436 884 OFFCURVE",
"437 881 OFFCURVE",
"389 874 CURVE SMOOTH",
"347 868 OFFCURVE",
"285 858 OFFCURVE",
"231 802 CURVE SMOOTH",
"165 734 OFFCURVE",
"131 618 OFFCURVE",
"105 461 CURVE SMOOTH",
"42 82 LINE SMOOTH",
"37 52 OFFCURVE",
"34 34 OFFCURVE",
"22 -5 CURVE",
"24 -5 LINE",
"34 -2 OFFCURVE",
"47 0 OFFCURVE",
"62 0 CURVE SMOOTH",
"96 0 OFFCURVE",
"106 -10 OFFCURVE",
"144 -10 CURVE SMOOTH"
);
},
{
closed = 1;
nodes = (
"175 69 OFFCURVE",
"156 74 OFFCURVE",
"140 85 CURVE",
"146 128 LINE SMOOTH",
"163 253 OFFCURVE",
"245 376 OFFCURVE",
"290 376 CURVE SMOOTH",
"309 376 OFFCURVE",
"314 353 OFFCURVE",
"314 312 CURVE SMOOTH",
"314 185 OFFCURVE",
"266 69 OFFCURVE",
"191 69 CURVE SMOOTH"
);
}
);
width = 438;
},
{
anchors = (
{
name = bottom;
position = "{150, 0}";
},
{
name = top;
position = "{353, 883}";
}
);
background = {
anchors = (
{
name = bottom;
position = "{150, 0}";
},
{
name = top;
position = "{353, 883}";
}
);
paths = (
{
closed = 1;
nodes = (
"252 -10 OFFCURVE",
"383 158 OFFCURVE",
"393 358 CURVE SMOOTH",
"397 441 OFFCURVE",
"378 480 OFFCURVE",
"341 480 CURVE SMOOTH",
"285 480 OFFCURVE",
"203 385 OFFCURVE",
"157 302 CURVE",
"156 302 LINE",
"180 451 LINE SMOOTH",
"207 620 OFFCURVE",
"230 708 OFFCURVE",
"273 769 CURVE SMOOTH",
"300 807 OFFCURVE",
"322 819 OFFCURVE",
"362 824 CURVE SMOOTH",
"378 826 OFFCURVE",
"391 826 OFFCURVE",
"409 841 CURVE SMOOTH",
"422 852 OFFCURVE",
"428 863 OFFCURVE",
"428 871 CURVE SMOOTH",
"428 876 OFFCURVE",
"426 879 OFFCURVE",
"421 879 CURVE SMOOTH",
"414 879 OFFCURVE",
"406 873 OFFCURVE",
"380 868 CURVE SMOOTH",
"330 859 OFFCURVE",
"299 853 OFFCURVE",
"255 812 CURVE SMOOTH",
"184 745 OFFCURVE",
"142 629 OFFCURVE",
"112 444 CURVE SMOOTH",
"53 82 LINE SMOOTH",
"49 56 OFFCURVE",
"45 32 OFFCURVE",
"32 -4 CURVE",
"33 -4 LINE SMOOTH",
"38 -4 OFFCURVE",
"44 -2 OFFCURVE",
"55 -2 CURVE SMOOTH",
"78 -2 OFFCURVE",
"95 -10 OFFCURVE",
"123 -10 CURVE SMOOTH"
);
},
{
closed = 1;
nodes = (
"164 50 OFFCURVE",
"141 53 OFFCURVE",
"118 69 CURVE",
"128 131 LINE SMOOTH",
"149 258 OFFCURVE",
"245 397 OFFCURVE",
"295 397 CURVE SMOOTH",
"312 397 OFFCURVE",
"319 382 OFFCURVE",
"319 338 CURVE SMOOTH",
"319 221 OFFCURVE",
"268 50 OFFCURVE",
"176 50 CURVE SMOOTH"
);
}
);
};
layerId = "0B1DFD06-3317-40CA-B510-4969A0718C16";
paths = (
{
closed = 1;
nodes = (
"252 -10 OFFCURVE",
"383 158 OFFCURVE",
"393 358 CURVE SMOOTH",
"397 441 OFFCURVE",
"378 480 OFFCURVE",
"341 480 CURVE SMOOTH",
"285 480 OFFCURVE",
"203 385 OFFCURVE",
"157 302 CURVE",
"156 302 LINE",
"180 451 LINE SMOOTH",
"207 620 OFFCURVE",
"230 708 OFFCURVE",
"273 769 CURVE SMOOTH",
"300 807 OFFCURVE",
"322 819 OFFCURVE",
"362 824 CURVE SMOOTH",
"378 826 OFFCURVE",
"391 826 OFFCURVE",
"409 841 CURVE SMOOTH",
"422 852 OFFCURVE",
"428 863 OFFCURVE",
"428 871 CURVE SMOOTH",
"428 876 OFFCURVE",
"426 879 OFFCURVE",
"421 879 CURVE SMOOTH",
"414 879 OFFCURVE",
"406 873 OFFCURVE",
"380 868 CURVE SMOOTH",
"330 859 OFFCURVE",
"299 853 OFFCURVE",
"255 812 CURVE SMOOTH",
"184 745 OFFCURVE",
"142 629 OFFCURVE",
"112 444 CURVE SMOOTH",
"53 82 LINE SMOOTH",
"49 56 OFFCURVE",
"45 32 OFFCURVE",
"32 -4 CURVE",
"33 -4 LINE SMOOTH",
"38 -4 OFFCURVE",
"44 -2 OFFCURVE",
"55 -2 CURVE SMOOTH",
"78 -2 OFFCURVE",
"95 -10 OFFCURVE",
"123 -10 CURVE SMOOTH"
);
},
{
closed = 1;
nodes = (
"164 50 OFFCURVE",
"141 53 OFFCURVE",
"118 69 CURVE",
"128 131 LINE SMOOTH",
"149 258 OFFCURVE",
"245 397 OFFCURVE",
"295 397 CURVE SMOOTH",
"312 397 OFFCURVE",
"319 382 OFFCURVE",
"319 338 CURVE SMOOTH",
"319 221 OFFCURVE",
"268 50 OFFCURVE",
"176 50 CURVE SMOOTH"
);
}
);
width = 424;
}
);
note = b;
rightKerningGroup = b;
unicode = 0062;
},
{
glyphname = c;
lastChange = "2018-05-23 06:41:33 +0000";
layers = (
{
anchors = (
{
name = bottom;
position = "{132, 0}";
},
{
name = top;
position = "{270, 470}";
}
);
background = {
paths = (
{
closed = 1;
nodes = (
"225 -10 OFFCURVE",
"318 94 OFFCURVE",
"318 166 CURVE SMOOTH",
"318 175 OFFCURVE",
"314 180 OFFCURVE",
"307 180 CURVE SMOOTH",
"300 180 OFFCURVE",
"297 176 OFFCURVE",
"290 162 CURVE SMOOTH",
"263 111 OFFCURVE",
"232 88 OFFCURVE",
"191 88 CURVE SMOOTH",
"150 88 OFFCURVE",
"134 118 OFFCURVE",
"134 194 CURVE SMOOTH",
"134 314 OFFCURVE",
"187 406 OFFCURVE",
"266 406 CURVE SMOOTH",
"287 406 OFFCURVE",
"307 397 OFFCURVE",
"325 379 CURVE SMOOTH",
"328 376 OFFCURVE",
"332 372 OFFCURVE",
"337 372 CURVE SMOOTH",
"345 372 OFFCURVE",
"349 378 OFFCURVE",
"355 387 CURVE SMOOTH",
"368 409 OFFCURVE",
"371 423 OFFCURVE",
"371 434 CURVE SMOOTH",
"371 462 OFFCURVE",
"343 480 OFFCURVE",
"302 480 CURVE SMOOTH",
"161 480 OFFCURVE",
"26 283 OFFCURVE",
"26 129 CURVE SMOOTH",
"26 42 OFFCURVE",
"66 -10 OFFCURVE",
"135 -10 CURVE SMOOTH"
);
}
);
};
layerId = "56450C88-1299-454A-B666-E6F9AF06B23F";
paths = (
{
closed = 1;
nodes = (
"215 -10 OFFCURVE",
"308 94 OFFCURVE",
"308 163 CURVE SMOOTH",
"308 175 OFFCURVE",
"305 180 OFFCURVE",
"297 180 CURVE SMOOTH",
"290 180 OFFCURVE",
"287 176 OFFCURVE",
"280 162 CURVE SMOOTH",
"253 112 OFFCURVE",
"222 88 OFFCURVE",
"185 88 CURVE SMOOTH",
"143 88 OFFCURVE",
"124 118 OFFCURVE",
"124 191 CURVE SMOOTH",
"124 314 OFFCURVE",
"177 406 OFFCURVE",
"254 406 CURVE SMOOTH",
"278 406 OFFCURVE",
"297 397 OFFCURVE",
"315 379 CURVE SMOOTH",
"319 375 OFFCURVE",
"323 372 OFFCURVE",
"327 372 CURVE SMOOTH",
"335 372 OFFCURVE",
"340 379 OFFCURVE",
"345 387 CURVE SMOOTH",
"358 408 OFFCURVE",
"361 425 OFFCURVE",
"361 434 CURVE SMOOTH",
"361 462 OFFCURVE",
"333 480 OFFCURVE",
"291 480 CURVE SMOOTH",
"151 480 OFFCURVE",
"16 283 OFFCURVE",
"16 128 CURVE SMOOTH",
"16 41 OFFCURVE",
"58 -10 OFFCURVE",
"123 -10 CURVE SMOOTH"
);
}
);
width = 367;
},
{
anchors = (
{
name = bottom;
position = "{103, 0}";
},
{
name = top;
position = "{277, 470}";
}
);
background = {
anchors = (
{
name = bottom;
position = "{103, 0}";
},
{
name = top;
position = "{277, 470}";
}
);
paths = (
{
closed = 1;
nodes = (
"189 -10 OFFCURVE",
"285 99 OFFCURVE",
"285 156 CURVE SMOOTH",
"285 164 OFFCURVE",
"283 169 OFFCURVE",
"277 169 CURVE SMOOTH",
"272 169 OFFCURVE",
"268 164 OFFCURVE",
"263 154 CURVE SMOOTH",
"246 123 OFFCURVE",
"211 68 OFFCURVE",
"162 68 CURVE SMOOTH",
"119 68 OFFCURVE",
"100 109 OFFCURVE",
"100 180 CURVE SMOOTH",
"100 312 OFFCURVE",
"167 426 OFFCURVE",
"250 426 CURVE SMOOTH",
"273 426 OFFCURVE",
"290 417 OFFCURVE",
"305 398 CURVE SMOOTH",
"308 394 OFFCURVE",
"310 393 OFFCURVE",
"313 393 CURVE SMOOTH",
"318 393 OFFCURVE",
"322 399 OFFCURVE",
"325 404 CURVE SMOOTH",
"332 416 OFFCURVE",
"338 429 OFFCURVE",
"338 441 CURVE SMOOTH",
"338 464 OFFCURVE",
"315 480 OFFCURVE",
"279 480 CURVE SMOOTH",
"149 480 OFFCURVE",
"26 275 OFFCURVE",
"26 121 CURVE SMOOTH",
"26 59 OFFCURVE",
"46 -10 OFFCURVE",
"109 -10 CURVE SMOOTH"
);
}
);
};
layerId = "0B1DFD06-3317-40CA-B510-4969A0718C16";
paths = (
{
closed = 1;
nodes = (
"189 -10 OFFCURVE",
"285 99 OFFCURVE",
"285 156 CURVE SMOOTH",
"285 164 OFFCURVE",
"283 169 OFFCURVE",
"277 169 CURVE SMOOTH",
"272 169 OFFCURVE",
"268 164 OFFCURVE",
"263 154 CURVE SMOOTH",
"246 123 OFFCURVE",
"211 68 OFFCURVE",
"162 68 CURVE SMOOTH",
"119 68 OFFCURVE",
"100 109 OFFCURVE",
"100 180 CURVE SMOOTH",
"100 312 OFFCURVE",
"167 426 OFFCURVE",
"250 426 CURVE SMOOTH",
"273 426 OFFCURVE",
"290 417 OFFCURVE",
"305 398 CURVE SMOOTH",
"308 394 OFFCURVE",
"310 393 OFFCURVE",
"313 393 CURVE SMOOTH",
"318 393 OFFCURVE",
"322 399 OFFCURVE",
"325 404 CURVE SMOOTH",
"332 416 OFFCURVE",
"338 429 OFFCURVE",
"338 441 CURVE SMOOTH",
"338 464 OFFCURVE",
"315 480 OFFCURVE",
"279 480 CURVE SMOOTH",
"149 480 OFFCURVE",
"26 275 OFFCURVE",
"26 121 CURVE SMOOTH",
"26 59 OFFCURVE",
"46 -10 OFFCURVE",
"109 -10 CURVE SMOOTH"
);
}
);
width = 354;
}
);
note = c;
rightKerningGroup = c;
unicode = 0063;
},
